G04 #@! TF.GenerationSoftware,KiCad,Pcbnew,(5.0.2)-1*
G04 #@! TF.CreationDate,2020-09-24T18:59:20-07:00*
G04 #@! TF.ProjectId,mouse_v2,6d6f7573-655f-4763-922e-6b696361645f,rev?*
G04 #@! TF.SameCoordinates,Original*
G04 #@! TF.FileFunction,Legend,Top*
G04 #@! TF.FilePolarity,Positive*
%FSLAX46Y46*%
G04 Gerber Fmt 4.6, Leading zero omitted, Abs format (unit mm)*
G04 Created by KiCad (PCBNEW (5.0.2)-1) date 9/24/2020 6:59:20 PM*
%MOMM*%
%LPD*%
G01*
G04 APERTURE LIST*
%ADD10C,0.100000*%
%ADD11C,0.300000*%
%ADD12C,0.120000*%
%ADD13C,0.150000*%
%ADD14C,0.152400*%
G04 APERTURE END LIST*
D10*
X182189428Y-68706952D02*
X182189428Y-67945047D01*
X181737047Y-71661328D02*
X182498952Y-71661328D01*
X182118000Y-72042280D02*
X182118000Y-71280376D01*
D11*
X200187631Y-65575642D02*
X201330488Y-65575642D01*
X200136831Y-68250262D02*
X201279688Y-68250262D01*
X200708260Y-68821691D02*
X200708260Y-67678834D01*
X191198571Y-65512142D02*
X192341428Y-65512142D01*
X191198571Y-68687142D02*
X192341428Y-68687142D01*
X191770000Y-69258571D02*
X191770000Y-68115714D01*
D10*
X177157451Y-75825000D02*
X177086022Y-75789285D01*
X176978880Y-75789285D01*
X176871737Y-75825000D01*
X176800308Y-75896428D01*
X176764594Y-75967857D01*
X176728880Y-76110714D01*
X176728880Y-76217857D01*
X176764594Y-76360714D01*
X176800308Y-76432142D01*
X176871737Y-76503571D01*
X176978880Y-76539285D01*
X177050308Y-76539285D01*
X177157451Y-76503571D01*
X177193165Y-76467857D01*
X177193165Y-76217857D01*
X177050308Y-76217857D01*
X177514594Y-76539285D02*
X177514594Y-75789285D01*
X177943165Y-76539285D01*
X177943165Y-75789285D01*
X178300308Y-76539285D02*
X178300308Y-75789285D01*
X178478880Y-75789285D01*
X178586022Y-75825000D01*
X178657451Y-75896428D01*
X178693165Y-75967857D01*
X178728880Y-76110714D01*
X178728880Y-76217857D01*
X178693165Y-76360714D01*
X178657451Y-76432142D01*
X178586022Y-76503571D01*
X178478880Y-76539285D01*
X178300308Y-76539285D01*
X142240071Y-75987560D02*
X142168642Y-75951845D01*
X142061500Y-75951845D01*
X141954357Y-75987560D01*
X141882928Y-76058988D01*
X141847214Y-76130417D01*
X141811500Y-76273274D01*
X141811500Y-76380417D01*
X141847214Y-76523274D01*
X141882928Y-76594702D01*
X141954357Y-76666131D01*
X142061500Y-76701845D01*
X142132928Y-76701845D01*
X142240071Y-76666131D01*
X142275785Y-76630417D01*
X142275785Y-76380417D01*
X142132928Y-76380417D01*
X142597214Y-76701845D02*
X142597214Y-75951845D01*
X143025785Y-76701845D01*
X143025785Y-75951845D01*
X143382928Y-76701845D02*
X143382928Y-75951845D01*
X143561500Y-75951845D01*
X143668642Y-75987560D01*
X143740071Y-76058988D01*
X143775785Y-76130417D01*
X143811500Y-76273274D01*
X143811500Y-76380417D01*
X143775785Y-76523274D01*
X143740071Y-76594702D01*
X143668642Y-76666131D01*
X143561500Y-76701845D01*
X143382928Y-76701845D01*
X186563047Y-130119428D02*
X187324952Y-130119428D01*
X133139227Y-129944168D02*
X133901132Y-129944168D01*
X133520180Y-130325120D02*
X133520180Y-129563216D01*
X129253027Y-129918768D02*
X130014932Y-129918768D01*
X190126667Y-130119428D02*
X190888572Y-130119428D01*
X190507620Y-130500380D02*
X190507620Y-129738476D01*
X195206667Y-130119428D02*
X195968572Y-130119428D01*
X191269667Y-130119428D02*
X192031572Y-130119428D01*
X191650620Y-130500380D02*
X191650620Y-129738476D01*
X146908295Y-142718343D02*
X147248256Y-143400198D01*
X146737348Y-143229251D02*
X147419203Y-142889291D01*
X145104895Y-139340143D02*
X145444856Y-140021998D01*
X175026943Y-140174398D02*
X175366904Y-139492543D01*
X175537851Y-140003451D02*
X174855996Y-139663491D01*
X173325143Y-143654198D02*
X173665104Y-142972343D01*
X177058943Y-135653198D02*
X177398904Y-134971343D01*
X175509543Y-139132998D02*
X175849504Y-138451143D01*
X176020451Y-138962051D02*
X175338596Y-138622091D01*
X144622295Y-138247943D02*
X144962256Y-138929798D01*
X142717295Y-134971343D02*
X143057256Y-135653198D01*
X142546348Y-135482251D02*
X143228203Y-135142291D01*
X127891587Y-129900988D02*
X128653492Y-129900988D01*
X124081587Y-129900988D02*
X124843492Y-129900988D01*
X124462540Y-130281940D02*
X124462540Y-129520036D01*
D12*
G04 #@! TO.C,C2*
X188852564Y-63860000D02*
X187648436Y-63860000D01*
X188852564Y-65680000D02*
X187648436Y-65680000D01*
G04 #@! TO.C,C4*
X158840000Y-77375936D02*
X158840000Y-78580064D01*
X156120000Y-77375936D02*
X156120000Y-78580064D01*
G04 #@! TO.C,C1*
X186489000Y-71916775D02*
X186989000Y-71916775D01*
X186739000Y-72166775D02*
X186739000Y-71666775D01*
X187930000Y-66761000D02*
X188498000Y-66761000D01*
X187696000Y-66801000D02*
X188732000Y-66801000D01*
X187537000Y-66841000D02*
X188891000Y-66841000D01*
X187409000Y-66881000D02*
X189019000Y-66881000D01*
X187299000Y-66921000D02*
X189129000Y-66921000D01*
X187203000Y-66961000D02*
X189225000Y-66961000D01*
X187116000Y-67001000D02*
X189312000Y-67001000D01*
X187036000Y-67041000D02*
X189392000Y-67041000D01*
X189254000Y-67081000D02*
X189465000Y-67081000D01*
X186963000Y-67081000D02*
X187174000Y-67081000D01*
X189254000Y-67121000D02*
X189533000Y-67121000D01*
X186895000Y-67121000D02*
X187174000Y-67121000D01*
X189254000Y-67161000D02*
X189597000Y-67161000D01*
X186831000Y-67161000D02*
X187174000Y-67161000D01*
X189254000Y-67201000D02*
X189657000Y-67201000D01*
X186771000Y-67201000D02*
X187174000Y-67201000D01*
X189254000Y-67241000D02*
X189714000Y-67241000D01*
X186714000Y-67241000D02*
X187174000Y-67241000D01*
X189254000Y-67281000D02*
X189768000Y-67281000D01*
X186660000Y-67281000D02*
X187174000Y-67281000D01*
X189254000Y-67321000D02*
X189819000Y-67321000D01*
X186609000Y-67321000D02*
X187174000Y-67321000D01*
X189254000Y-67361000D02*
X189867000Y-67361000D01*
X186561000Y-67361000D02*
X187174000Y-67361000D01*
X189254000Y-67401000D02*
X189913000Y-67401000D01*
X186515000Y-67401000D02*
X187174000Y-67401000D01*
X189254000Y-67441000D02*
X189957000Y-67441000D01*
X186471000Y-67441000D02*
X187174000Y-67441000D01*
X189254000Y-67481000D02*
X189999000Y-67481000D01*
X186429000Y-67481000D02*
X187174000Y-67481000D01*
X189254000Y-67521000D02*
X190040000Y-67521000D01*
X186388000Y-67521000D02*
X187174000Y-67521000D01*
X189254000Y-67561000D02*
X190078000Y-67561000D01*
X186350000Y-67561000D02*
X187174000Y-67561000D01*
X189254000Y-67601000D02*
X190115000Y-67601000D01*
X186313000Y-67601000D02*
X187174000Y-67601000D01*
X189254000Y-67641000D02*
X190151000Y-67641000D01*
X186277000Y-67641000D02*
X187174000Y-67641000D01*
X189254000Y-67681000D02*
X190185000Y-67681000D01*
X186243000Y-67681000D02*
X187174000Y-67681000D01*
X189254000Y-67721000D02*
X190218000Y-67721000D01*
X186210000Y-67721000D02*
X187174000Y-67721000D01*
X189254000Y-67761000D02*
X190249000Y-67761000D01*
X186179000Y-67761000D02*
X187174000Y-67761000D01*
X189254000Y-67801000D02*
X190279000Y-67801000D01*
X186149000Y-67801000D02*
X187174000Y-67801000D01*
X189254000Y-67841000D02*
X190309000Y-67841000D01*
X186119000Y-67841000D02*
X187174000Y-67841000D01*
X189254000Y-67881000D02*
X190336000Y-67881000D01*
X186092000Y-67881000D02*
X187174000Y-67881000D01*
X189254000Y-67921000D02*
X190363000Y-67921000D01*
X186065000Y-67921000D02*
X187174000Y-67921000D01*
X189254000Y-67961000D02*
X190389000Y-67961000D01*
X186039000Y-67961000D02*
X187174000Y-67961000D01*
X189254000Y-68001000D02*
X190414000Y-68001000D01*
X186014000Y-68001000D02*
X187174000Y-68001000D01*
X189254000Y-68041000D02*
X190438000Y-68041000D01*
X185990000Y-68041000D02*
X187174000Y-68041000D01*
X189254000Y-68081000D02*
X190461000Y-68081000D01*
X185967000Y-68081000D02*
X187174000Y-68081000D01*
X189254000Y-68121000D02*
X190482000Y-68121000D01*
X185946000Y-68121000D02*
X187174000Y-68121000D01*
X189254000Y-68161000D02*
X190504000Y-68161000D01*
X185924000Y-68161000D02*
X187174000Y-68161000D01*
X189254000Y-68201000D02*
X190524000Y-68201000D01*
X185904000Y-68201000D02*
X187174000Y-68201000D01*
X189254000Y-68241000D02*
X190543000Y-68241000D01*
X185885000Y-68241000D02*
X187174000Y-68241000D01*
X189254000Y-68281000D02*
X190562000Y-68281000D01*
X185866000Y-68281000D02*
X187174000Y-68281000D01*
X189254000Y-68321000D02*
X190579000Y-68321000D01*
X185849000Y-68321000D02*
X187174000Y-68321000D01*
X189254000Y-68361000D02*
X190596000Y-68361000D01*
X185832000Y-68361000D02*
X187174000Y-68361000D01*
X189254000Y-68401000D02*
X190612000Y-68401000D01*
X185816000Y-68401000D02*
X187174000Y-68401000D01*
X189254000Y-68441000D02*
X190628000Y-68441000D01*
X185800000Y-68441000D02*
X187174000Y-68441000D01*
X189254000Y-68481000D02*
X190642000Y-68481000D01*
X185786000Y-68481000D02*
X187174000Y-68481000D01*
X189254000Y-68521000D02*
X190656000Y-68521000D01*
X185772000Y-68521000D02*
X187174000Y-68521000D01*
X189254000Y-68561000D02*
X190669000Y-68561000D01*
X185759000Y-68561000D02*
X187174000Y-68561000D01*
X189254000Y-68601000D02*
X190682000Y-68601000D01*
X185746000Y-68601000D02*
X187174000Y-68601000D01*
X189254000Y-68641000D02*
X190694000Y-68641000D01*
X185734000Y-68641000D02*
X187174000Y-68641000D01*
X189254000Y-68682000D02*
X190705000Y-68682000D01*
X185723000Y-68682000D02*
X187174000Y-68682000D01*
X189254000Y-68722000D02*
X190715000Y-68722000D01*
X185713000Y-68722000D02*
X187174000Y-68722000D01*
X189254000Y-68762000D02*
X190725000Y-68762000D01*
X185703000Y-68762000D02*
X187174000Y-68762000D01*
X189254000Y-68802000D02*
X190734000Y-68802000D01*
X185694000Y-68802000D02*
X187174000Y-68802000D01*
X189254000Y-68842000D02*
X190742000Y-68842000D01*
X185686000Y-68842000D02*
X187174000Y-68842000D01*
X189254000Y-68882000D02*
X190750000Y-68882000D01*
X185678000Y-68882000D02*
X187174000Y-68882000D01*
X189254000Y-68922000D02*
X190757000Y-68922000D01*
X185671000Y-68922000D02*
X187174000Y-68922000D01*
X189254000Y-68962000D02*
X190764000Y-68962000D01*
X185664000Y-68962000D02*
X187174000Y-68962000D01*
X189254000Y-69002000D02*
X190770000Y-69002000D01*
X185658000Y-69002000D02*
X187174000Y-69002000D01*
X189254000Y-69042000D02*
X190775000Y-69042000D01*
X185653000Y-69042000D02*
X187174000Y-69042000D01*
X189254000Y-69082000D02*
X190779000Y-69082000D01*
X185649000Y-69082000D02*
X187174000Y-69082000D01*
X189254000Y-69122000D02*
X190783000Y-69122000D01*
X185645000Y-69122000D02*
X187174000Y-69122000D01*
X185641000Y-69162000D02*
X190787000Y-69162000D01*
X185638000Y-69202000D02*
X190790000Y-69202000D01*
X185636000Y-69242000D02*
X190792000Y-69242000D01*
X185635000Y-69282000D02*
X190793000Y-69282000D01*
X185634000Y-69322000D02*
X190794000Y-69322000D01*
X185634000Y-69362000D02*
X190794000Y-69362000D01*
X190834000Y-69362000D02*
G75*
G03X190834000Y-69362000I-2620000J0D01*
G01*
G04 #@! TO.C,C3*
X202010000Y-58948000D02*
G75*
G03X202010000Y-58948000I-2620000J0D01*
G01*
X196810000Y-58948000D02*
X201970000Y-58948000D01*
X196810000Y-58908000D02*
X201970000Y-58908000D01*
X196811000Y-58868000D02*
X201969000Y-58868000D01*
X196812000Y-58828000D02*
X201968000Y-58828000D01*
X196814000Y-58788000D02*
X201966000Y-58788000D01*
X196817000Y-58748000D02*
X201963000Y-58748000D01*
X196821000Y-58708000D02*
X198350000Y-58708000D01*
X200430000Y-58708000D02*
X201959000Y-58708000D01*
X196825000Y-58668000D02*
X198350000Y-58668000D01*
X200430000Y-58668000D02*
X201955000Y-58668000D01*
X196829000Y-58628000D02*
X198350000Y-58628000D01*
X200430000Y-58628000D02*
X201951000Y-58628000D01*
X196834000Y-58588000D02*
X198350000Y-58588000D01*
X200430000Y-58588000D02*
X201946000Y-58588000D01*
X196840000Y-58548000D02*
X198350000Y-58548000D01*
X200430000Y-58548000D02*
X201940000Y-58548000D01*
X196847000Y-58508000D02*
X198350000Y-58508000D01*
X200430000Y-58508000D02*
X201933000Y-58508000D01*
X196854000Y-58468000D02*
X198350000Y-58468000D01*
X200430000Y-58468000D02*
X201926000Y-58468000D01*
X196862000Y-58428000D02*
X198350000Y-58428000D01*
X200430000Y-58428000D02*
X201918000Y-58428000D01*
X196870000Y-58388000D02*
X198350000Y-58388000D01*
X200430000Y-58388000D02*
X201910000Y-58388000D01*
X196879000Y-58348000D02*
X198350000Y-58348000D01*
X200430000Y-58348000D02*
X201901000Y-58348000D01*
X196889000Y-58308000D02*
X198350000Y-58308000D01*
X200430000Y-58308000D02*
X201891000Y-58308000D01*
X196899000Y-58268000D02*
X198350000Y-58268000D01*
X200430000Y-58268000D02*
X201881000Y-58268000D01*
X196910000Y-58227000D02*
X198350000Y-58227000D01*
X200430000Y-58227000D02*
X201870000Y-58227000D01*
X196922000Y-58187000D02*
X198350000Y-58187000D01*
X200430000Y-58187000D02*
X201858000Y-58187000D01*
X196935000Y-58147000D02*
X198350000Y-58147000D01*
X200430000Y-58147000D02*
X201845000Y-58147000D01*
X196948000Y-58107000D02*
X198350000Y-58107000D01*
X200430000Y-58107000D02*
X201832000Y-58107000D01*
X196962000Y-58067000D02*
X198350000Y-58067000D01*
X200430000Y-58067000D02*
X201818000Y-58067000D01*
X196976000Y-58027000D02*
X198350000Y-58027000D01*
X200430000Y-58027000D02*
X201804000Y-58027000D01*
X196992000Y-57987000D02*
X198350000Y-57987000D01*
X200430000Y-57987000D02*
X201788000Y-57987000D01*
X197008000Y-57947000D02*
X198350000Y-57947000D01*
X200430000Y-57947000D02*
X201772000Y-57947000D01*
X197025000Y-57907000D02*
X198350000Y-57907000D01*
X200430000Y-57907000D02*
X201755000Y-57907000D01*
X197042000Y-57867000D02*
X198350000Y-57867000D01*
X200430000Y-57867000D02*
X201738000Y-57867000D01*
X197061000Y-57827000D02*
X198350000Y-57827000D01*
X200430000Y-57827000D02*
X201719000Y-57827000D01*
X197080000Y-57787000D02*
X198350000Y-57787000D01*
X200430000Y-57787000D02*
X201700000Y-57787000D01*
X197100000Y-57747000D02*
X198350000Y-57747000D01*
X200430000Y-57747000D02*
X201680000Y-57747000D01*
X197122000Y-57707000D02*
X198350000Y-57707000D01*
X200430000Y-57707000D02*
X201658000Y-57707000D01*
X197143000Y-57667000D02*
X198350000Y-57667000D01*
X200430000Y-57667000D02*
X201637000Y-57667000D01*
X197166000Y-57627000D02*
X198350000Y-57627000D01*
X200430000Y-57627000D02*
X201614000Y-57627000D01*
X197190000Y-57587000D02*
X198350000Y-57587000D01*
X200430000Y-57587000D02*
X201590000Y-57587000D01*
X197215000Y-57547000D02*
X198350000Y-57547000D01*
X200430000Y-57547000D02*
X201565000Y-57547000D01*
X197241000Y-57507000D02*
X198350000Y-57507000D01*
X200430000Y-57507000D02*
X201539000Y-57507000D01*
X197268000Y-57467000D02*
X198350000Y-57467000D01*
X200430000Y-57467000D02*
X201512000Y-57467000D01*
X197295000Y-57427000D02*
X198350000Y-57427000D01*
X200430000Y-57427000D02*
X201485000Y-57427000D01*
X197325000Y-57387000D02*
X198350000Y-57387000D01*
X200430000Y-57387000D02*
X201455000Y-57387000D01*
X197355000Y-57347000D02*
X198350000Y-57347000D01*
X200430000Y-57347000D02*
X201425000Y-57347000D01*
X197386000Y-57307000D02*
X198350000Y-57307000D01*
X200430000Y-57307000D02*
X201394000Y-57307000D01*
X197419000Y-57267000D02*
X198350000Y-57267000D01*
X200430000Y-57267000D02*
X201361000Y-57267000D01*
X197453000Y-57227000D02*
X198350000Y-57227000D01*
X200430000Y-57227000D02*
X201327000Y-57227000D01*
X197489000Y-57187000D02*
X198350000Y-57187000D01*
X200430000Y-57187000D02*
X201291000Y-57187000D01*
X197526000Y-57147000D02*
X198350000Y-57147000D01*
X200430000Y-57147000D02*
X201254000Y-57147000D01*
X197564000Y-57107000D02*
X198350000Y-57107000D01*
X200430000Y-57107000D02*
X201216000Y-57107000D01*
X197605000Y-57067000D02*
X198350000Y-57067000D01*
X200430000Y-57067000D02*
X201175000Y-57067000D01*
X197647000Y-57027000D02*
X198350000Y-57027000D01*
X200430000Y-57027000D02*
X201133000Y-57027000D01*
X197691000Y-56987000D02*
X198350000Y-56987000D01*
X200430000Y-56987000D02*
X201089000Y-56987000D01*
X197737000Y-56947000D02*
X198350000Y-56947000D01*
X200430000Y-56947000D02*
X201043000Y-56947000D01*
X197785000Y-56907000D02*
X198350000Y-56907000D01*
X200430000Y-56907000D02*
X200995000Y-56907000D01*
X197836000Y-56867000D02*
X198350000Y-56867000D01*
X200430000Y-56867000D02*
X200944000Y-56867000D01*
X197890000Y-56827000D02*
X198350000Y-56827000D01*
X200430000Y-56827000D02*
X200890000Y-56827000D01*
X197947000Y-56787000D02*
X198350000Y-56787000D01*
X200430000Y-56787000D02*
X200833000Y-56787000D01*
X198007000Y-56747000D02*
X198350000Y-56747000D01*
X200430000Y-56747000D02*
X200773000Y-56747000D01*
X198071000Y-56707000D02*
X198350000Y-56707000D01*
X200430000Y-56707000D02*
X200709000Y-56707000D01*
X198139000Y-56667000D02*
X198350000Y-56667000D01*
X200430000Y-56667000D02*
X200641000Y-56667000D01*
X198212000Y-56627000D02*
X200568000Y-56627000D01*
X198292000Y-56587000D02*
X200488000Y-56587000D01*
X198379000Y-56547000D02*
X200401000Y-56547000D01*
X198475000Y-56507000D02*
X200305000Y-56507000D01*
X198585000Y-56467000D02*
X200195000Y-56467000D01*
X198713000Y-56427000D02*
X200067000Y-56427000D01*
X198872000Y-56387000D02*
X199908000Y-56387000D01*
X199106000Y-56347000D02*
X199674000Y-56347000D01*
X197915000Y-61752775D02*
X197915000Y-61252775D01*
X197665000Y-61502775D02*
X198165000Y-61502775D01*
G04 #@! TO.C,T0*
X193608478Y-123123478D02*
G75*
G03X191770000Y-118685000I-1838478J1838478D01*
G01*
X189931522Y-123123478D02*
G75*
G02X191770000Y-118685000I1838478J1838478D01*
G01*
X189970000Y-123135000D02*
X193570000Y-123135000D01*
G04 #@! TO.C,T1*
X186535940Y-122790360D02*
X186535940Y-119190360D01*
X186524418Y-122828838D02*
G75*
G02X182085940Y-120990360I-1838478J1838478D01*
G01*
X186524418Y-119151882D02*
G75*
G03X182085940Y-120990360I-1838478J-1838478D01*
G01*
G04 #@! TO.C,T2*
X126431522Y-119827522D02*
G75*
G03X128270000Y-124266000I1838478J-1838478D01*
G01*
X130108478Y-119827522D02*
G75*
G02X128270000Y-124266000I-1838478J-1838478D01*
G01*
X130070000Y-119816000D02*
X126470000Y-119816000D01*
G04 #@! TO.C,T3*
X133862200Y-119662800D02*
X133862200Y-123262800D01*
X133873722Y-119624322D02*
G75*
G02X138312200Y-121462800I1838478J-1838478D01*
G01*
X133873722Y-123301278D02*
G75*
G03X138312200Y-121462800I1838478J1838478D01*
G01*
D10*
G04 #@! TO.C,U1*
G36*
X164211000Y-119873000D02*
X163957000Y-120127000D01*
X163703000Y-119746000D01*
X163957000Y-119492000D01*
X164211000Y-119873000D01*
G37*
X164211000Y-119873000D02*
X163957000Y-120127000D01*
X163703000Y-119746000D01*
X163957000Y-119492000D01*
X164211000Y-119873000D01*
G36*
X163830000Y-120254000D02*
X163576000Y-120508000D01*
X163322000Y-120127000D01*
X163576000Y-119873000D01*
X163830000Y-120254000D01*
G37*
X163830000Y-120254000D02*
X163576000Y-120508000D01*
X163322000Y-120127000D01*
X163576000Y-119873000D01*
X163830000Y-120254000D01*
G36*
X161925000Y-119492000D02*
X161671000Y-119746000D01*
X161417000Y-119365000D01*
X161671000Y-119111000D01*
X161925000Y-119492000D01*
G37*
X161925000Y-119492000D02*
X161671000Y-119746000D01*
X161417000Y-119365000D01*
X161671000Y-119111000D01*
X161925000Y-119492000D01*
G36*
X162306000Y-120000000D02*
X162052000Y-120254000D01*
X161798000Y-119873000D01*
X162052000Y-119619000D01*
X162306000Y-120000000D01*
G37*
X162306000Y-120000000D02*
X162052000Y-120254000D01*
X161798000Y-119873000D01*
X162052000Y-119619000D01*
X162306000Y-120000000D01*
G36*
X162687000Y-120508000D02*
X162433000Y-120762000D01*
X162179000Y-120381000D01*
X162433000Y-120127000D01*
X162687000Y-120508000D01*
G37*
X162687000Y-120508000D02*
X162433000Y-120762000D01*
X162179000Y-120381000D01*
X162433000Y-120127000D01*
X162687000Y-120508000D01*
G36*
X162687000Y-119619000D02*
X162433000Y-119873000D01*
X162179000Y-119492000D01*
X162433000Y-119238000D01*
X162687000Y-119619000D01*
G37*
X162687000Y-119619000D02*
X162433000Y-119873000D01*
X162179000Y-119492000D01*
X162433000Y-119238000D01*
X162687000Y-119619000D01*
G36*
X163068000Y-120127000D02*
X162814000Y-120381000D01*
X162560000Y-120000000D01*
X162814000Y-119746000D01*
X163068000Y-120127000D01*
G37*
X163068000Y-120127000D02*
X162814000Y-120381000D01*
X162560000Y-120000000D01*
X162814000Y-119746000D01*
X163068000Y-120127000D01*
G36*
X163449000Y-120635000D02*
X163195000Y-120889000D01*
X162941000Y-120508000D01*
X163195000Y-120254000D01*
X163449000Y-120635000D01*
G37*
X163449000Y-120635000D02*
X163195000Y-120889000D01*
X162941000Y-120508000D01*
X163195000Y-120254000D01*
X163449000Y-120635000D01*
D13*
X155194000Y-121905000D02*
X155194000Y-125080000D01*
X152654000Y-121905000D02*
X155194000Y-121905000D01*
X152654000Y-125080000D02*
X152654000Y-121905000D01*
X155194000Y-125080000D02*
X152654000Y-125080000D01*
X178054000Y-111110000D02*
X178054000Y-128890000D01*
X142494000Y-111110000D02*
X178054000Y-111110000D01*
X142494000Y-128890000D02*
X142494000Y-111110000D01*
X178054000Y-128890000D02*
X142494000Y-128890000D01*
X155829000Y-114920000D02*
X165989000Y-114920000D01*
X155829000Y-125080000D02*
X165989000Y-125080000D01*
X165989000Y-125080000D02*
X165989000Y-114920000D01*
X155829000Y-114920000D02*
X155829000Y-125080000D01*
X150114000Y-121270000D02*
X145542000Y-121270000D01*
X150114000Y-118730000D02*
X150114000Y-121270000D01*
X145542000Y-118730000D02*
X150114000Y-118730000D01*
X145542000Y-121270000D02*
X145542000Y-118730000D01*
X172974000Y-116190000D02*
X178054000Y-116190000D01*
X172974000Y-123810000D02*
X178054000Y-123810000D01*
X172974000Y-116190000D02*
X172974000Y-123810000D01*
X179324000Y-123810000D02*
X178054000Y-123810000D01*
X179324000Y-116190000D02*
X179324000Y-123810000D01*
X178054000Y-116190000D02*
X179324000Y-116190000D01*
G04 #@! TO.C,S1*
X182704000Y-62990000D02*
X195404000Y-62990000D01*
X182704000Y-56390000D02*
X195404000Y-56390000D01*
X182704000Y-56390000D02*
X182704000Y-62990000D01*
X195404000Y-62990000D02*
X195404000Y-56390000D01*
D12*
G04 #@! TO.C,D4*
X118725000Y-68940000D02*
X118725000Y-72030000D01*
X123785000Y-70485000D02*
G75*
G03X123785000Y-70485000I-2500000J0D01*
G01*
X124275000Y-70485462D02*
G75*
G03X118725000Y-68940170I-2990000J462D01*
G01*
X124275000Y-70484538D02*
G75*
G02X118725000Y-72029830I-2990000J-462D01*
G01*
G04 #@! TO.C,D6*
X123785000Y-64135000D02*
G75*
G03X123785000Y-64135000I-2500000J0D01*
G01*
X118725000Y-62590000D02*
X118725000Y-65680000D01*
X124275000Y-64134538D02*
G75*
G02X118725000Y-65679830I-2990000J-462D01*
G01*
X124275000Y-64135462D02*
G75*
G03X118725000Y-62590170I-2990000J462D01*
G01*
G04 #@! TO.C,D5*
X118725000Y-56240000D02*
X118725000Y-59330000D01*
X123785000Y-57785000D02*
G75*
G03X123785000Y-57785000I-2500000J0D01*
G01*
X124275000Y-57785462D02*
G75*
G03X118725000Y-56240170I-2990000J462D01*
G01*
X124275000Y-57784538D02*
G75*
G02X118725000Y-59329830I-2990000J-462D01*
G01*
G04 #@! TO.C,R21*
X139605000Y-59590000D02*
X139605000Y-62330000D01*
X139605000Y-62330000D02*
X146145000Y-62330000D01*
X146145000Y-62330000D02*
X146145000Y-59590000D01*
X146145000Y-59590000D02*
X139605000Y-59590000D01*
X138835000Y-60960000D02*
X139605000Y-60960000D01*
X146915000Y-60960000D02*
X146145000Y-60960000D01*
G04 #@! TO.C,R20*
X146915000Y-57150000D02*
X146145000Y-57150000D01*
X138835000Y-57150000D02*
X139605000Y-57150000D01*
X146145000Y-55780000D02*
X139605000Y-55780000D01*
X146145000Y-58520000D02*
X146145000Y-55780000D01*
X139605000Y-58520000D02*
X146145000Y-58520000D01*
X139605000Y-55780000D02*
X139605000Y-58520000D01*
G04 #@! TO.C,R19*
X139605000Y-62765000D02*
X139605000Y-65505000D01*
X139605000Y-65505000D02*
X146145000Y-65505000D01*
X146145000Y-65505000D02*
X146145000Y-62765000D01*
X146145000Y-62765000D02*
X139605000Y-62765000D01*
X138835000Y-64135000D02*
X139605000Y-64135000D01*
X146915000Y-64135000D02*
X146145000Y-64135000D01*
G04 #@! TO.C,R18*
X168275000Y-58825000D02*
X168275000Y-59595000D01*
X168275000Y-66905000D02*
X168275000Y-66135000D01*
X166905000Y-59595000D02*
X166905000Y-66135000D01*
X169645000Y-59595000D02*
X166905000Y-59595000D01*
X169645000Y-66135000D02*
X169645000Y-59595000D01*
X166905000Y-66135000D02*
X169645000Y-66135000D01*
D13*
G04 #@! TO.C,BZ1*
X168365416Y-72390000D02*
G75*
G03X168365416Y-72390000I-4535416J0D01*
G01*
D12*
G04 #@! TO.C,C9*
X184552000Y-70638424D02*
X184552000Y-69434296D01*
X182732000Y-70638424D02*
X182732000Y-69434296D01*
G04 #@! TO.C,S2*
X133750000Y-60785000D02*
X133750000Y-59285000D01*
X132500000Y-56785000D02*
X128000000Y-56785000D01*
X126750000Y-59285000D02*
X126750000Y-60785000D01*
X128000000Y-63285000D02*
X132500000Y-63285000D01*
G04 #@! TO.C,U3*
X179505980Y-68616620D02*
X179505980Y-69716620D01*
X181315980Y-68616620D02*
X179505980Y-68616620D01*
X181315980Y-67116620D02*
X181315980Y-68616620D01*
X172725980Y-68616620D02*
X172725980Y-73741620D01*
X170915980Y-68616620D02*
X172725980Y-68616620D01*
X170915980Y-67116620D02*
X170915980Y-68616620D01*
G04 #@! TO.C,R11*
X128905000Y-106450000D02*
X128905000Y-107220000D01*
X128905000Y-114530000D02*
X128905000Y-113760000D01*
X127535000Y-107220000D02*
X127535000Y-113760000D01*
X130275000Y-107220000D02*
X127535000Y-107220000D01*
X130275000Y-113760000D02*
X130275000Y-107220000D01*
X127535000Y-113760000D02*
X130275000Y-113760000D01*
G04 #@! TO.C,R4*
X157580000Y-136430000D02*
X154840000Y-136430000D01*
X154840000Y-136430000D02*
X154840000Y-142970000D01*
X154840000Y-142970000D02*
X157580000Y-142970000D01*
X157580000Y-142970000D02*
X157580000Y-136430000D01*
X156210000Y-135660000D02*
X156210000Y-136430000D01*
X156210000Y-143740000D02*
X156210000Y-142970000D01*
G04 #@! TO.C,R1*
X184785000Y-114530000D02*
X184785000Y-113760000D01*
X184785000Y-106450000D02*
X184785000Y-107220000D01*
X186155000Y-113760000D02*
X186155000Y-107220000D01*
X183415000Y-113760000D02*
X186155000Y-113760000D01*
X183415000Y-107220000D02*
X183415000Y-113760000D01*
X186155000Y-107220000D02*
X183415000Y-107220000D01*
G04 #@! TO.C,R3*
X136625000Y-107220000D02*
X133885000Y-107220000D01*
X133885000Y-107220000D02*
X133885000Y-113760000D01*
X133885000Y-113760000D02*
X136625000Y-113760000D01*
X136625000Y-113760000D02*
X136625000Y-107220000D01*
X135255000Y-106450000D02*
X135255000Y-107220000D01*
X135255000Y-114530000D02*
X135255000Y-113760000D01*
G04 #@! TO.C,R17*
X136120000Y-67945000D02*
X135350000Y-67945000D01*
X128040000Y-67945000D02*
X128810000Y-67945000D01*
X135350000Y-66575000D02*
X128810000Y-66575000D01*
X135350000Y-69315000D02*
X135350000Y-66575000D01*
X128810000Y-69315000D02*
X135350000Y-69315000D01*
X128810000Y-66575000D02*
X128810000Y-69315000D01*
G04 #@! TO.C,R16*
X144240000Y-132180000D02*
X144240000Y-129440000D01*
X144240000Y-129440000D02*
X137700000Y-129440000D01*
X137700000Y-129440000D02*
X137700000Y-132180000D01*
X137700000Y-132180000D02*
X144240000Y-132180000D01*
X145010000Y-130810000D02*
X144240000Y-130810000D01*
X136930000Y-130810000D02*
X137700000Y-130810000D01*
G04 #@! TO.C,R2*
X163830000Y-143740000D02*
X163830000Y-142970000D01*
X163830000Y-135660000D02*
X163830000Y-136430000D01*
X165200000Y-142970000D02*
X165200000Y-136430000D01*
X162460000Y-142970000D02*
X165200000Y-142970000D01*
X162460000Y-136430000D02*
X162460000Y-142970000D01*
X165200000Y-136430000D02*
X162460000Y-136430000D01*
G04 #@! TO.C,R15*
X133450000Y-107220000D02*
X130710000Y-107220000D01*
X130710000Y-107220000D02*
X130710000Y-113760000D01*
X130710000Y-113760000D02*
X133450000Y-113760000D01*
X133450000Y-113760000D02*
X133450000Y-107220000D01*
X132080000Y-106450000D02*
X132080000Y-107220000D01*
X132080000Y-114530000D02*
X132080000Y-113760000D01*
G04 #@! TO.C,R14*
X183364000Y-130810000D02*
X182594000Y-130810000D01*
X175284000Y-130810000D02*
X176054000Y-130810000D01*
X182594000Y-129440000D02*
X176054000Y-129440000D01*
X182594000Y-132180000D02*
X182594000Y-129440000D01*
X176054000Y-132180000D02*
X182594000Y-132180000D01*
X176054000Y-129440000D02*
X176054000Y-132180000D01*
G04 #@! TO.C,R10*
X169894000Y-132180000D02*
X169894000Y-129440000D01*
X169894000Y-129440000D02*
X163354000Y-129440000D01*
X163354000Y-129440000D02*
X163354000Y-132180000D01*
X163354000Y-132180000D02*
X169894000Y-132180000D01*
X170664000Y-130810000D02*
X169894000Y-130810000D01*
X162584000Y-130810000D02*
X163354000Y-130810000D01*
G04 #@! TO.C,R9*
X191135000Y-106450000D02*
X191135000Y-107220000D01*
X191135000Y-114530000D02*
X191135000Y-113760000D01*
X189765000Y-107220000D02*
X189765000Y-113760000D01*
X192505000Y-107220000D02*
X189765000Y-107220000D01*
X192505000Y-113760000D02*
X192505000Y-107220000D01*
X189765000Y-113760000D02*
X192505000Y-113760000D01*
G04 #@! TO.C,R8*
X151030000Y-142970000D02*
X153770000Y-142970000D01*
X153770000Y-142970000D02*
X153770000Y-136430000D01*
X153770000Y-136430000D02*
X151030000Y-136430000D01*
X151030000Y-136430000D02*
X151030000Y-142970000D01*
X152400000Y-143740000D02*
X152400000Y-142970000D01*
X152400000Y-135660000D02*
X152400000Y-136430000D01*
G04 #@! TO.C,R7*
X125730000Y-114530000D02*
X125730000Y-113760000D01*
X125730000Y-106450000D02*
X125730000Y-107220000D01*
X127100000Y-113760000D02*
X127100000Y-107220000D01*
X124360000Y-113760000D02*
X127100000Y-113760000D01*
X124360000Y-107220000D02*
X124360000Y-113760000D01*
X127100000Y-107220000D02*
X124360000Y-107220000D01*
G04 #@! TO.C,R6*
X166270000Y-142970000D02*
X169010000Y-142970000D01*
X169010000Y-142970000D02*
X169010000Y-136430000D01*
X169010000Y-136430000D02*
X166270000Y-136430000D01*
X166270000Y-136430000D02*
X166270000Y-142970000D01*
X167640000Y-143740000D02*
X167640000Y-142970000D01*
X167640000Y-135660000D02*
X167640000Y-136430000D01*
G04 #@! TO.C,R5*
X194310000Y-114530000D02*
X194310000Y-113760000D01*
X194310000Y-106450000D02*
X194310000Y-107220000D01*
X195680000Y-113760000D02*
X195680000Y-107220000D01*
X192940000Y-113760000D02*
X195680000Y-113760000D01*
X192940000Y-107220000D02*
X192940000Y-113760000D01*
X195680000Y-107220000D02*
X192940000Y-107220000D01*
G04 #@! TO.C,R13*
X189330000Y-107220000D02*
X186590000Y-107220000D01*
X186590000Y-107220000D02*
X186590000Y-113760000D01*
X186590000Y-113760000D02*
X189330000Y-113760000D01*
X189330000Y-113760000D02*
X189330000Y-107220000D01*
X187960000Y-106450000D02*
X187960000Y-107220000D01*
X187960000Y-114530000D02*
X187960000Y-113760000D01*
G04 #@! TO.C,R12*
X157710000Y-130810000D02*
X156940000Y-130810000D01*
X149630000Y-130810000D02*
X150400000Y-130810000D01*
X156940000Y-129440000D02*
X150400000Y-129440000D01*
X156940000Y-132180000D02*
X156940000Y-129440000D01*
X150400000Y-132180000D02*
X156940000Y-132180000D01*
X150400000Y-129440000D02*
X150400000Y-132180000D01*
G04 #@! TO.C,Q2*
X127700529Y-129205605D02*
X127700529Y-129205605D01*
X127700529Y-131875605D02*
X127700529Y-129205605D01*
X127700529Y-131875605D02*
X127700529Y-131875605D01*
X127700529Y-129205605D02*
X127700529Y-131875605D01*
X125160529Y-129205605D02*
X125160529Y-129205605D01*
X125160529Y-131875605D02*
X125160529Y-129205605D01*
X125160529Y-131875605D02*
X125160529Y-131875605D01*
X125160529Y-129205605D02*
X125160529Y-131875605D01*
X127990529Y-131875605D02*
X128390529Y-131875605D01*
X127990529Y-132995605D02*
X127990529Y-131875605D01*
X128390529Y-132995605D02*
X127990529Y-132995605D01*
X128390529Y-131875605D02*
X128390529Y-132995605D01*
X124870529Y-131875605D02*
X127990529Y-131875605D01*
X127990529Y-131875605D02*
X127990529Y-135735605D01*
X124870529Y-131875605D02*
X124870529Y-135735605D01*
X127990529Y-135735605D02*
G75*
G02X124870529Y-135735605I-1560000J0D01*
G01*
G04 #@! TO.C,D0*
X187106120Y-132020000D02*
X187106120Y-135880000D01*
X190226120Y-132020000D02*
X190226120Y-135880000D01*
X187106120Y-132020000D02*
X190226120Y-132020000D01*
X190626120Y-132020000D02*
X190626120Y-133140000D01*
X190626120Y-133140000D02*
X190226120Y-133140000D01*
X190226120Y-133140000D02*
X190226120Y-132020000D01*
X190226120Y-132020000D02*
X190626120Y-132020000D01*
X187396120Y-129350000D02*
X187396120Y-132020000D01*
X187396120Y-132020000D02*
X187396120Y-132020000D01*
X187396120Y-132020000D02*
X187396120Y-129350000D01*
X187396120Y-129350000D02*
X187396120Y-129350000D01*
X189936120Y-129350000D02*
X189936120Y-132020000D01*
X189936120Y-132020000D02*
X189936120Y-132020000D01*
X189936120Y-132020000D02*
X189936120Y-129350000D01*
X189936120Y-129350000D02*
X189936120Y-129350000D01*
X190226120Y-135880000D02*
G75*
G02X187106120Y-135880000I-1560000J0D01*
G01*
G04 #@! TO.C,Q1*
X176949906Y-138991173D02*
X180404353Y-140713496D01*
X178342044Y-136198978D02*
X181796490Y-137921301D01*
X176949906Y-138991173D02*
X178342044Y-136198978D01*
X178520523Y-135841004D02*
X179522849Y-136340745D01*
X179522849Y-136340745D02*
X179344370Y-136698719D01*
X179344370Y-136698719D02*
X178342044Y-136198978D01*
X178342044Y-136198978D02*
X178520523Y-135841004D01*
X174689829Y-137540294D02*
X177079304Y-138731642D01*
X177079304Y-138731642D02*
X177079304Y-138731642D01*
X177079304Y-138731642D02*
X174689829Y-137540294D01*
X174689829Y-137540294D02*
X174689829Y-137540294D01*
X175823172Y-135267159D02*
X178212647Y-136458509D01*
X178212647Y-136458509D02*
X178212647Y-136458509D01*
X178212647Y-136458509D02*
X175823172Y-135267159D01*
X175823172Y-135267159D02*
X175823172Y-135267159D01*
X181796491Y-137921302D02*
G75*
G02X180404353Y-140713496I-696069J-1396097D01*
G01*
G04 #@! TO.C,BT1*
X198038720Y-69432480D02*
X196708720Y-69432480D01*
X196708720Y-69432480D02*
X196708720Y-68102480D01*
X196708720Y-66832480D02*
X196708720Y-64232480D01*
X199368720Y-64232480D02*
X196708720Y-64232480D01*
X199368720Y-66832480D02*
X199368720Y-64232480D01*
X199368720Y-66832480D02*
X196708720Y-66832480D01*
G04 #@! TO.C,D1*
X173600672Y-139775659D02*
X173600672Y-139775659D01*
X175990147Y-140967009D02*
X173600672Y-139775659D01*
X175990147Y-140967009D02*
X175990147Y-140967009D01*
X173600672Y-139775659D02*
X175990147Y-140967009D01*
X172467329Y-142048794D02*
X172467329Y-142048794D01*
X174856804Y-143240142D02*
X172467329Y-142048794D01*
X174856804Y-143240142D02*
X174856804Y-143240142D01*
X172467329Y-142048794D02*
X174856804Y-143240142D01*
X176119544Y-140707478D02*
X176298023Y-140349504D01*
X177121870Y-141207219D02*
X176119544Y-140707478D01*
X177300349Y-140849245D02*
X177121870Y-141207219D01*
X176298023Y-140349504D02*
X177300349Y-140849245D01*
X174727406Y-143499673D02*
X176119544Y-140707478D01*
X176119544Y-140707478D02*
X179573990Y-142429801D01*
X174727406Y-143499673D02*
X178181853Y-145221996D01*
X179573991Y-142429802D02*
G75*
G02X178181853Y-145221996I-696069J-1396097D01*
G01*
G04 #@! TO.C,D2*
X129978980Y-131882840D02*
X129978980Y-135742840D01*
X133098980Y-131882840D02*
X133098980Y-135742840D01*
X129978980Y-131882840D02*
X133098980Y-131882840D01*
X133498980Y-131882840D02*
X133498980Y-133002840D01*
X133498980Y-133002840D02*
X133098980Y-133002840D01*
X133098980Y-133002840D02*
X133098980Y-131882840D01*
X133098980Y-131882840D02*
X133498980Y-131882840D01*
X130268980Y-129212840D02*
X130268980Y-131882840D01*
X130268980Y-131882840D02*
X130268980Y-131882840D01*
X130268980Y-131882840D02*
X130268980Y-129212840D01*
X130268980Y-129212840D02*
X130268980Y-129212840D01*
X132808980Y-129212840D02*
X132808980Y-131882840D01*
X132808980Y-131882840D02*
X132808980Y-131882840D01*
X132808980Y-131882840D02*
X132808980Y-129212840D01*
X132808980Y-129212840D02*
X132808980Y-129212840D01*
X133098980Y-135742840D02*
G75*
G02X129978980Y-135742840I-1560000J0D01*
G01*
G04 #@! TO.C,D3*
X147613813Y-142099427D02*
X147613813Y-142099427D01*
X145224339Y-143290775D02*
X147613813Y-142099427D01*
X145224339Y-143290775D02*
X145224339Y-143290775D01*
X147613813Y-142099427D02*
X145224339Y-143290775D01*
X146480471Y-139826294D02*
X146480471Y-139826294D01*
X144090996Y-141017642D02*
X146480471Y-139826294D01*
X144090996Y-141017642D02*
X144090996Y-141017642D01*
X146480471Y-139826294D02*
X144090996Y-141017642D01*
X145353736Y-143550306D02*
X145532215Y-143908280D01*
X144351409Y-144050048D02*
X145353736Y-143550306D01*
X144529889Y-144408021D02*
X144351409Y-144050048D01*
X145532215Y-143908280D02*
X144529889Y-144408021D01*
X143961599Y-140758111D02*
X145353736Y-143550306D01*
X145353736Y-143550306D02*
X141899289Y-145272630D01*
X143961599Y-140758111D02*
X140507152Y-142480434D01*
X141899290Y-145272630D02*
G75*
G02X140507152Y-142480434I-696069J1396098D01*
G01*
G04 #@! TO.C,Q0*
X194949297Y-129365645D02*
X194949297Y-129365645D01*
X194949297Y-132035645D02*
X194949297Y-129365645D01*
X194949297Y-132035645D02*
X194949297Y-132035645D01*
X194949297Y-129365645D02*
X194949297Y-132035645D01*
X192409297Y-129365645D02*
X192409297Y-129365645D01*
X192409297Y-132035645D02*
X192409297Y-129365645D01*
X192409297Y-132035645D02*
X192409297Y-132035645D01*
X192409297Y-129365645D02*
X192409297Y-132035645D01*
X195239297Y-132035645D02*
X195639297Y-132035645D01*
X195239297Y-133155645D02*
X195239297Y-132035645D01*
X195639297Y-133155645D02*
X195239297Y-133155645D01*
X195639297Y-132035645D02*
X195639297Y-133155645D01*
X192119297Y-132035645D02*
X195239297Y-132035645D01*
X195239297Y-132035645D02*
X195239297Y-135895645D01*
X192119297Y-132035645D02*
X192119297Y-135895645D01*
X195239297Y-135895645D02*
G75*
G02X192119297Y-135895645I-1560000J0D01*
G01*
G04 #@! TO.C,Q3*
X141685258Y-136262477D02*
X138230809Y-137984802D01*
X143077393Y-139054673D02*
X139622947Y-140776997D01*
X141685258Y-136262477D02*
X143077393Y-139054673D01*
X143255873Y-139412647D02*
X142253547Y-139912388D01*
X142253547Y-139912388D02*
X142075067Y-139554415D01*
X142075067Y-139554415D02*
X143077393Y-139054673D01*
X143077393Y-139054673D02*
X143255873Y-139412647D01*
X144204129Y-135330661D02*
X141814654Y-136522009D01*
X141814654Y-136522009D02*
X141814654Y-136522009D01*
X141814654Y-136522009D02*
X144204129Y-135330661D01*
X144204129Y-135330661D02*
X144204129Y-135330661D01*
X145337471Y-137603794D02*
X142947997Y-138795142D01*
X142947997Y-138795142D02*
X142947997Y-138795142D01*
X142947997Y-138795142D02*
X145337471Y-137603794D01*
X145337471Y-137603794D02*
X145337471Y-137603794D01*
X139622949Y-140776996D02*
G75*
G02X138230809Y-137984802I-696070J1396097D01*
G01*
D14*
G04 #@! TO.C,U2*
X139133580Y-70708520D02*
X139133580Y-72892920D01*
X139133580Y-70098920D02*
X139133580Y-70708520D01*
X139133580Y-67482720D02*
X139133580Y-70098920D01*
X158843980Y-73324720D02*
X158843980Y-67482720D01*
D10*
X139133580Y-70098920D02*
G75*
G02X139133580Y-70708520I0J-304800D01*
G01*
D13*
G04 #@! TO.C,M1*
X158623000Y-87274400D02*
X158623000Y-93274400D01*
X158623000Y-87274400D02*
X158623000Y-81274400D01*
X158623000Y-81274400D02*
X127623000Y-81274400D01*
X158623000Y-93274400D02*
X127623000Y-93274400D01*
X127623000Y-81274400D02*
X127623000Y-85774400D01*
X127623000Y-93274400D02*
X127623000Y-88774400D01*
X127623000Y-85774400D02*
X117623000Y-85774400D01*
X127623000Y-88774400D02*
X117623000Y-88774400D01*
X117623000Y-85774400D02*
X117623000Y-88774400D01*
X126423000Y-87274400D02*
X126423000Y-73274400D01*
X126423000Y-87274400D02*
X126423000Y-101274400D01*
X126423000Y-73274400D02*
X112623000Y-73274400D01*
X126423000Y-101274400D02*
X112623000Y-101274400D01*
X112623000Y-73274400D02*
X112623000Y-101274400D01*
X136123000Y-93274400D02*
X136123000Y-100574400D01*
X136123000Y-81274400D02*
X136123000Y-73974400D01*
X127623000Y-87274400D02*
X127623000Y-100574400D01*
X127623000Y-87274400D02*
X127623000Y-73974400D01*
X127623000Y-73974400D02*
X136123000Y-73974400D01*
X127623000Y-100574400D02*
X136123000Y-100574400D01*
X139123000Y-87274400D02*
X139123000Y-94774400D01*
X139123000Y-87274400D02*
X139123000Y-79774400D01*
X127623000Y-79774400D02*
X139123000Y-79774400D01*
X127623000Y-94774400D02*
X139123000Y-94774400D01*
G04 #@! TO.C,M2*
X161290000Y-87274400D02*
X161290000Y-81274400D01*
X161290000Y-87274400D02*
X161290000Y-93274400D01*
X161290000Y-93274400D02*
X192290000Y-93274400D01*
X161290000Y-81274400D02*
X192290000Y-81274400D01*
X192290000Y-93274400D02*
X192290000Y-88774400D01*
X192290000Y-81274400D02*
X192290000Y-85774400D01*
X192290000Y-88774400D02*
X202290000Y-88774400D01*
X192290000Y-85774400D02*
X202290000Y-85774400D01*
X202290000Y-88774400D02*
X202290000Y-85774400D01*
X193490000Y-87274400D02*
X193490000Y-101274400D01*
X193490000Y-87274400D02*
X193490000Y-73274400D01*
X193490000Y-101274400D02*
X207290000Y-101274400D01*
X193490000Y-73274400D02*
X207290000Y-73274400D01*
X207290000Y-101274400D02*
X207290000Y-73274400D01*
X183790000Y-81274400D02*
X183790000Y-73974400D01*
X183790000Y-93274400D02*
X183790000Y-100574400D01*
X192290000Y-87274400D02*
X192290000Y-73974400D01*
X192290000Y-87274400D02*
X192290000Y-100574400D01*
X192290000Y-100574400D02*
X183790000Y-100574400D01*
X192290000Y-73974400D02*
X183790000Y-73974400D01*
X180790000Y-87274400D02*
X180790000Y-79774400D01*
X180790000Y-87274400D02*
X180790000Y-94774400D01*
X192290000Y-94774400D02*
X180790000Y-94774400D01*
X192290000Y-79774400D02*
X180790000Y-79774400D01*
D12*
G04 #@! TO.C,J4*
X194533520Y-64283280D02*
X195863520Y-64283280D01*
X195863520Y-64283280D02*
X195863520Y-65613280D01*
X195863520Y-66883280D02*
X195863520Y-69483280D01*
X193203520Y-69483280D02*
X195863520Y-69483280D01*
X193203520Y-66883280D02*
X193203520Y-69483280D01*
X193203520Y-66883280D02*
X195863520Y-66883280D01*
G04 #@! TO.C,U4*
X176655240Y-76978960D02*
X176655240Y-79098960D01*
X176655240Y-76978960D02*
X166595240Y-76978960D01*
X166595240Y-76978960D02*
X166595240Y-79098960D01*
X176655240Y-79098960D02*
X166595240Y-79098960D01*
X178715240Y-79098960D02*
X177655240Y-79098960D01*
X178715240Y-78038960D02*
X178715240Y-79098960D01*
G04 #@! TO.C,U5*
X141535600Y-77901800D02*
X141535600Y-76841800D01*
X141535600Y-76841800D02*
X142595600Y-76841800D01*
X143595600Y-76841800D02*
X153655600Y-76841800D01*
X153655600Y-78961800D02*
X153655600Y-76841800D01*
X143595600Y-78961800D02*
X153655600Y-78961800D01*
X143595600Y-78961800D02*
X143595600Y-76841800D01*
G04 #@! TO.C,C2*
D13*
X184491333Y-65635142D02*
X184443714Y-65682761D01*
X184300857Y-65730380D01*
X184205619Y-65730380D01*
X184062761Y-65682761D01*
X183967523Y-65587523D01*
X183919904Y-65492285D01*
X183872285Y-65301809D01*
X183872285Y-65158952D01*
X183919904Y-64968476D01*
X183967523Y-64873238D01*
X184062761Y-64778000D01*
X184205619Y-64730380D01*
X184300857Y-64730380D01*
X184443714Y-64778000D01*
X184491333Y-64825619D01*
X184872285Y-64825619D02*
X184919904Y-64778000D01*
X185015142Y-64730380D01*
X185253238Y-64730380D01*
X185348476Y-64778000D01*
X185396095Y-64825619D01*
X185443714Y-64920857D01*
X185443714Y-65016095D01*
X185396095Y-65158952D01*
X184824666Y-65730380D01*
X185443714Y-65730380D01*
G04 #@! TO.C,C4*
X160117142Y-78144666D02*
X160164761Y-78192285D01*
X160212380Y-78335142D01*
X160212380Y-78430380D01*
X160164761Y-78573238D01*
X160069523Y-78668476D01*
X159974285Y-78716095D01*
X159783809Y-78763714D01*
X159640952Y-78763714D01*
X159450476Y-78716095D01*
X159355238Y-78668476D01*
X159260000Y-78573238D01*
X159212380Y-78430380D01*
X159212380Y-78335142D01*
X159260000Y-78192285D01*
X159307619Y-78144666D01*
X159545714Y-77287523D02*
X160212380Y-77287523D01*
X159164761Y-77525619D02*
X159879047Y-77763714D01*
X159879047Y-77144666D01*
G04 #@! TO.C,C1*
X188047333Y-73255142D02*
X187999714Y-73302761D01*
X187856857Y-73350380D01*
X187761619Y-73350380D01*
X187618761Y-73302761D01*
X187523523Y-73207523D01*
X187475904Y-73112285D01*
X187428285Y-72921809D01*
X187428285Y-72778952D01*
X187475904Y-72588476D01*
X187523523Y-72493238D01*
X187618761Y-72398000D01*
X187761619Y-72350380D01*
X187856857Y-72350380D01*
X187999714Y-72398000D01*
X188047333Y-72445619D01*
X188999714Y-73350380D02*
X188428285Y-73350380D01*
X188714000Y-73350380D02*
X188714000Y-72350380D01*
X188618761Y-72493238D01*
X188523523Y-72588476D01*
X188428285Y-72636095D01*
G04 #@! TO.C,C3*
X196699142Y-56554666D02*
X196746761Y-56602285D01*
X196794380Y-56745142D01*
X196794380Y-56840380D01*
X196746761Y-56983238D01*
X196651523Y-57078476D01*
X196556285Y-57126095D01*
X196365809Y-57173714D01*
X196222952Y-57173714D01*
X196032476Y-57126095D01*
X195937238Y-57078476D01*
X195842000Y-56983238D01*
X195794380Y-56840380D01*
X195794380Y-56745142D01*
X195842000Y-56602285D01*
X195889619Y-56554666D01*
X195794380Y-56221333D02*
X195794380Y-55602285D01*
X196175333Y-55935619D01*
X196175333Y-55792761D01*
X196222952Y-55697523D01*
X196270571Y-55649904D01*
X196365809Y-55602285D01*
X196603904Y-55602285D01*
X196699142Y-55649904D01*
X196746761Y-55697523D01*
X196794380Y-55792761D01*
X196794380Y-56078476D01*
X196746761Y-56173714D01*
X196699142Y-56221333D01*
G04 #@! TO.C,T0*
X190754095Y-123912380D02*
X191325523Y-123912380D01*
X191039809Y-124912380D02*
X191039809Y-123912380D01*
X191849333Y-123912380D02*
X191944571Y-123912380D01*
X192039809Y-123960000D01*
X192087428Y-124007619D01*
X192135047Y-124102857D01*
X192182666Y-124293333D01*
X192182666Y-124531428D01*
X192135047Y-124721904D01*
X192087428Y-124817142D01*
X192039809Y-124864761D01*
X191944571Y-124912380D01*
X191849333Y-124912380D01*
X191754095Y-124864761D01*
X191706476Y-124817142D01*
X191658857Y-124721904D01*
X191611238Y-124531428D01*
X191611238Y-124293333D01*
X191658857Y-124102857D01*
X191706476Y-124007619D01*
X191754095Y-123960000D01*
X191849333Y-123912380D01*
G04 #@! TO.C,T1*
X180578320Y-121752264D02*
X180578320Y-121180836D01*
X181578320Y-121466550D02*
X180578320Y-121466550D01*
X181578320Y-120323693D02*
X181578320Y-120895121D01*
X181578320Y-120609407D02*
X180578320Y-120609407D01*
X180721178Y-120704645D01*
X180816416Y-120799883D01*
X180864035Y-120895121D01*
G04 #@! TO.C,T2*
X127508095Y-124678380D02*
X128079523Y-124678380D01*
X127793809Y-125678380D02*
X127793809Y-124678380D01*
X128365238Y-124773619D02*
X128412857Y-124726000D01*
X128508095Y-124678380D01*
X128746190Y-124678380D01*
X128841428Y-124726000D01*
X128889047Y-124773619D01*
X128936666Y-124868857D01*
X128936666Y-124964095D01*
X128889047Y-125106952D01*
X128317619Y-125678380D01*
X128936666Y-125678380D01*
G04 #@! TO.C,T3*
X138724580Y-122224704D02*
X138724580Y-121653276D01*
X139724580Y-121938990D02*
X138724580Y-121938990D01*
X138724580Y-121415180D02*
X138724580Y-120796133D01*
X139105533Y-121129466D01*
X139105533Y-120986609D01*
X139153152Y-120891371D01*
X139200771Y-120843752D01*
X139296009Y-120796133D01*
X139534104Y-120796133D01*
X139629342Y-120843752D01*
X139676961Y-120891371D01*
X139724580Y-120986609D01*
X139724580Y-121272323D01*
X139676961Y-121367561D01*
X139629342Y-121415180D01*
G04 #@! TO.C,U1*
X174244095Y-109434380D02*
X174244095Y-110243904D01*
X174291714Y-110339142D01*
X174339333Y-110386761D01*
X174434571Y-110434380D01*
X174625047Y-110434380D01*
X174720285Y-110386761D01*
X174767904Y-110339142D01*
X174815523Y-110243904D01*
X174815523Y-109434380D01*
X175815523Y-110434380D02*
X175244095Y-110434380D01*
X175529809Y-110434380D02*
X175529809Y-109434380D01*
X175434571Y-109577238D01*
X175339333Y-109672476D01*
X175244095Y-109720095D01*
X160336666Y-123083333D02*
X159636666Y-123083333D01*
X160136666Y-122850000D01*
X159636666Y-122616666D01*
X160336666Y-122616666D01*
X160336666Y-122283333D02*
X159636666Y-122283333D01*
X160336666Y-121950000D02*
X159636666Y-121950000D01*
X160136666Y-121716666D01*
X159636666Y-121483333D01*
X160336666Y-121483333D01*
X159636666Y-121216666D02*
X160336666Y-120750000D01*
X159636666Y-120750000D02*
X160336666Y-121216666D01*
X160336666Y-120083333D02*
X160003333Y-120316666D01*
X160336666Y-120483333D02*
X159636666Y-120483333D01*
X159636666Y-120216666D01*
X159670000Y-120150000D01*
X159703333Y-120116666D01*
X159770000Y-120083333D01*
X159870000Y-120083333D01*
X159936666Y-120116666D01*
X159970000Y-120150000D01*
X160003333Y-120216666D01*
X160003333Y-120483333D01*
X159636666Y-119883333D02*
X159636666Y-119483333D01*
X160336666Y-119683333D02*
X159636666Y-119683333D01*
X160336666Y-118883333D02*
X160336666Y-119283333D01*
X160336666Y-119083333D02*
X159636666Y-119083333D01*
X159736666Y-119150000D01*
X159803333Y-119216666D01*
X159836666Y-119283333D01*
X159636666Y-118450000D02*
X159636666Y-118383333D01*
X159670000Y-118316666D01*
X159703333Y-118283333D01*
X159770000Y-118250000D01*
X159903333Y-118216666D01*
X160070000Y-118216666D01*
X160203333Y-118250000D01*
X160270000Y-118283333D01*
X160303333Y-118316666D01*
X160336666Y-118383333D01*
X160336666Y-118450000D01*
X160303333Y-118516666D01*
X160270000Y-118550000D01*
X160203333Y-118583333D01*
X160070000Y-118616666D01*
X159903333Y-118616666D01*
X159770000Y-118583333D01*
X159703333Y-118550000D01*
X159670000Y-118516666D01*
X159636666Y-118450000D01*
X159636666Y-117616666D02*
X159636666Y-117750000D01*
X159670000Y-117816666D01*
X159703333Y-117850000D01*
X159803333Y-117916666D01*
X159936666Y-117950000D01*
X160203333Y-117950000D01*
X160270000Y-117916666D01*
X160303333Y-117883333D01*
X160336666Y-117816666D01*
X160336666Y-117683333D01*
X160303333Y-117616666D01*
X160270000Y-117583333D01*
X160203333Y-117550000D01*
X160036666Y-117550000D01*
X159970000Y-117583333D01*
X159936666Y-117616666D01*
X159903333Y-117683333D01*
X159903333Y-117816666D01*
X159936666Y-117883333D01*
X159970000Y-117916666D01*
X160036666Y-117950000D01*
X159703333Y-117283333D02*
X159670000Y-117250000D01*
X159636666Y-117183333D01*
X159636666Y-117016666D01*
X159670000Y-116950000D01*
X159703333Y-116916666D01*
X159770000Y-116883333D01*
X159836666Y-116883333D01*
X159936666Y-116916666D01*
X160336666Y-117316666D01*
X160336666Y-116883333D01*
X158812666Y-121400000D02*
X158112666Y-121400000D01*
X158112666Y-121233333D01*
X158146000Y-121133333D01*
X158212666Y-121066666D01*
X158279333Y-121033333D01*
X158412666Y-121000000D01*
X158512666Y-121000000D01*
X158646000Y-121033333D01*
X158712666Y-121066666D01*
X158779333Y-121133333D01*
X158812666Y-121233333D01*
X158812666Y-121400000D01*
X158112666Y-120800000D02*
X158812666Y-120566666D01*
X158112666Y-120333333D01*
X158812666Y-119766666D02*
X158812666Y-120100000D01*
X158112666Y-120100000D01*
X158112666Y-119233333D02*
X158112666Y-119366666D01*
X158146000Y-119433333D01*
X158179333Y-119466666D01*
X158279333Y-119533333D01*
X158412666Y-119566666D01*
X158679333Y-119566666D01*
X158746000Y-119533333D01*
X158779333Y-119500000D01*
X158812666Y-119433333D01*
X158812666Y-119300000D01*
X158779333Y-119233333D01*
X158746000Y-119200000D01*
X158679333Y-119166666D01*
X158512666Y-119166666D01*
X158446000Y-119200000D01*
X158412666Y-119233333D01*
X158379333Y-119300000D01*
X158379333Y-119433333D01*
X158412666Y-119500000D01*
X158446000Y-119533333D01*
X158512666Y-119566666D01*
X158612666Y-118900000D02*
X158612666Y-118566666D01*
X158812666Y-118966666D02*
X158112666Y-118733333D01*
X158812666Y-118500000D01*
G04 #@! TO.C,S1*
X189230095Y-56030761D02*
X189372952Y-56078380D01*
X189611047Y-56078380D01*
X189706285Y-56030761D01*
X189753904Y-55983142D01*
X189801523Y-55887904D01*
X189801523Y-55792666D01*
X189753904Y-55697428D01*
X189706285Y-55649809D01*
X189611047Y-55602190D01*
X189420571Y-55554571D01*
X189325333Y-55506952D01*
X189277714Y-55459333D01*
X189230095Y-55364095D01*
X189230095Y-55268857D01*
X189277714Y-55173619D01*
X189325333Y-55126000D01*
X189420571Y-55078380D01*
X189658666Y-55078380D01*
X189801523Y-55126000D01*
X190753904Y-56078380D02*
X190182476Y-56078380D01*
X190468190Y-56078380D02*
X190468190Y-55078380D01*
X190372952Y-55221238D01*
X190277714Y-55316476D01*
X190182476Y-55364095D01*
G04 #@! TO.C,D4*
X124483904Y-71826380D02*
X124483904Y-70826380D01*
X124722000Y-70826380D01*
X124864857Y-70874000D01*
X124960095Y-70969238D01*
X125007714Y-71064476D01*
X125055333Y-71254952D01*
X125055333Y-71397809D01*
X125007714Y-71588285D01*
X124960095Y-71683523D01*
X124864857Y-71778761D01*
X124722000Y-71826380D01*
X124483904Y-71826380D01*
X125912476Y-71159714D02*
X125912476Y-71826380D01*
X125674380Y-70778761D02*
X125436285Y-71493047D01*
X126055333Y-71493047D01*
G04 #@! TO.C,D6*
X124229904Y-66492380D02*
X124229904Y-65492380D01*
X124468000Y-65492380D01*
X124610857Y-65540000D01*
X124706095Y-65635238D01*
X124753714Y-65730476D01*
X124801333Y-65920952D01*
X124801333Y-66063809D01*
X124753714Y-66254285D01*
X124706095Y-66349523D01*
X124610857Y-66444761D01*
X124468000Y-66492380D01*
X124229904Y-66492380D01*
X125658476Y-65492380D02*
X125468000Y-65492380D01*
X125372761Y-65540000D01*
X125325142Y-65587619D01*
X125229904Y-65730476D01*
X125182285Y-65920952D01*
X125182285Y-66301904D01*
X125229904Y-66397142D01*
X125277523Y-66444761D01*
X125372761Y-66492380D01*
X125563238Y-66492380D01*
X125658476Y-66444761D01*
X125706095Y-66397142D01*
X125753714Y-66301904D01*
X125753714Y-66063809D01*
X125706095Y-65968571D01*
X125658476Y-65920952D01*
X125563238Y-65873333D01*
X125372761Y-65873333D01*
X125277523Y-65920952D01*
X125229904Y-65968571D01*
X125182285Y-66063809D01*
G04 #@! TO.C,D5*
X124229904Y-60142380D02*
X124229904Y-59142380D01*
X124468000Y-59142380D01*
X124610857Y-59190000D01*
X124706095Y-59285238D01*
X124753714Y-59380476D01*
X124801333Y-59570952D01*
X124801333Y-59713809D01*
X124753714Y-59904285D01*
X124706095Y-59999523D01*
X124610857Y-60094761D01*
X124468000Y-60142380D01*
X124229904Y-60142380D01*
X125706095Y-59142380D02*
X125229904Y-59142380D01*
X125182285Y-59618571D01*
X125229904Y-59570952D01*
X125325142Y-59523333D01*
X125563238Y-59523333D01*
X125658476Y-59570952D01*
X125706095Y-59618571D01*
X125753714Y-59713809D01*
X125753714Y-59951904D01*
X125706095Y-60047142D01*
X125658476Y-60094761D01*
X125563238Y-60142380D01*
X125325142Y-60142380D01*
X125229904Y-60094761D01*
X125182285Y-60047142D01*
G04 #@! TO.C,SK1*
X158758095Y-57164761D02*
X158900952Y-57212380D01*
X159139047Y-57212380D01*
X159234285Y-57164761D01*
X159281904Y-57117142D01*
X159329523Y-57021904D01*
X159329523Y-56926666D01*
X159281904Y-56831428D01*
X159234285Y-56783809D01*
X159139047Y-56736190D01*
X158948571Y-56688571D01*
X158853333Y-56640952D01*
X158805714Y-56593333D01*
X158758095Y-56498095D01*
X158758095Y-56402857D01*
X158805714Y-56307619D01*
X158853333Y-56260000D01*
X158948571Y-56212380D01*
X159186666Y-56212380D01*
X159329523Y-56260000D01*
X159758095Y-57212380D02*
X159758095Y-56212380D01*
X160329523Y-57212380D02*
X159900952Y-56640952D01*
X160329523Y-56212380D02*
X159758095Y-56783809D01*
X161281904Y-57212380D02*
X160710476Y-57212380D01*
X160996190Y-57212380D02*
X160996190Y-56212380D01*
X160900952Y-56355238D01*
X160805714Y-56450476D01*
X160710476Y-56498095D01*
G04 #@! TO.C,SK2*
X158758095Y-137174761D02*
X158900952Y-137222380D01*
X159139047Y-137222380D01*
X159234285Y-137174761D01*
X159281904Y-137127142D01*
X159329523Y-137031904D01*
X159329523Y-136936666D01*
X159281904Y-136841428D01*
X159234285Y-136793809D01*
X159139047Y-136746190D01*
X158948571Y-136698571D01*
X158853333Y-136650952D01*
X158805714Y-136603333D01*
X158758095Y-136508095D01*
X158758095Y-136412857D01*
X158805714Y-136317619D01*
X158853333Y-136270000D01*
X158948571Y-136222380D01*
X159186666Y-136222380D01*
X159329523Y-136270000D01*
X159758095Y-137222380D02*
X159758095Y-136222380D01*
X160329523Y-137222380D02*
X159900952Y-136650952D01*
X160329523Y-136222380D02*
X159758095Y-136793809D01*
X160710476Y-136317619D02*
X160758095Y-136270000D01*
X160853333Y-136222380D01*
X161091428Y-136222380D01*
X161186666Y-136270000D01*
X161234285Y-136317619D01*
X161281904Y-136412857D01*
X161281904Y-136508095D01*
X161234285Y-136650952D01*
X160662857Y-137222380D01*
X161281904Y-137222380D01*
G04 #@! TO.C,R21*
X149979142Y-60650380D02*
X149645809Y-60174190D01*
X149407714Y-60650380D02*
X149407714Y-59650380D01*
X149788666Y-59650380D01*
X149883904Y-59698000D01*
X149931523Y-59745619D01*
X149979142Y-59840857D01*
X149979142Y-59983714D01*
X149931523Y-60078952D01*
X149883904Y-60126571D01*
X149788666Y-60174190D01*
X149407714Y-60174190D01*
X150360095Y-59745619D02*
X150407714Y-59698000D01*
X150502952Y-59650380D01*
X150741047Y-59650380D01*
X150836285Y-59698000D01*
X150883904Y-59745619D01*
X150931523Y-59840857D01*
X150931523Y-59936095D01*
X150883904Y-60078952D01*
X150312476Y-60650380D01*
X150931523Y-60650380D01*
X151883904Y-60650380D02*
X151312476Y-60650380D01*
X151598190Y-60650380D02*
X151598190Y-59650380D01*
X151502952Y-59793238D01*
X151407714Y-59888476D01*
X151312476Y-59936095D01*
G04 #@! TO.C,R20*
X149979142Y-57348380D02*
X149645809Y-56872190D01*
X149407714Y-57348380D02*
X149407714Y-56348380D01*
X149788666Y-56348380D01*
X149883904Y-56396000D01*
X149931523Y-56443619D01*
X149979142Y-56538857D01*
X149979142Y-56681714D01*
X149931523Y-56776952D01*
X149883904Y-56824571D01*
X149788666Y-56872190D01*
X149407714Y-56872190D01*
X150360095Y-56443619D02*
X150407714Y-56396000D01*
X150502952Y-56348380D01*
X150741047Y-56348380D01*
X150836285Y-56396000D01*
X150883904Y-56443619D01*
X150931523Y-56538857D01*
X150931523Y-56634095D01*
X150883904Y-56776952D01*
X150312476Y-57348380D01*
X150931523Y-57348380D01*
X151550571Y-56348380D02*
X151645809Y-56348380D01*
X151741047Y-56396000D01*
X151788666Y-56443619D01*
X151836285Y-56538857D01*
X151883904Y-56729333D01*
X151883904Y-56967428D01*
X151836285Y-57157904D01*
X151788666Y-57253142D01*
X151741047Y-57300761D01*
X151645809Y-57348380D01*
X151550571Y-57348380D01*
X151455333Y-57300761D01*
X151407714Y-57253142D01*
X151360095Y-57157904D01*
X151312476Y-56967428D01*
X151312476Y-56729333D01*
X151360095Y-56538857D01*
X151407714Y-56443619D01*
X151455333Y-56396000D01*
X151550571Y-56348380D01*
G04 #@! TO.C,R19*
X149979142Y-63698380D02*
X149645809Y-63222190D01*
X149407714Y-63698380D02*
X149407714Y-62698380D01*
X149788666Y-62698380D01*
X149883904Y-62746000D01*
X149931523Y-62793619D01*
X149979142Y-62888857D01*
X149979142Y-63031714D01*
X149931523Y-63126952D01*
X149883904Y-63174571D01*
X149788666Y-63222190D01*
X149407714Y-63222190D01*
X150931523Y-63698380D02*
X150360095Y-63698380D01*
X150645809Y-63698380D02*
X150645809Y-62698380D01*
X150550571Y-62841238D01*
X150455333Y-62936476D01*
X150360095Y-62984095D01*
X151407714Y-63698380D02*
X151598190Y-63698380D01*
X151693428Y-63650761D01*
X151741047Y-63603142D01*
X151836285Y-63460285D01*
X151883904Y-63269809D01*
X151883904Y-62888857D01*
X151836285Y-62793619D01*
X151788666Y-62746000D01*
X151693428Y-62698380D01*
X151502952Y-62698380D01*
X151407714Y-62746000D01*
X151360095Y-62793619D01*
X151312476Y-62888857D01*
X151312476Y-63126952D01*
X151360095Y-63222190D01*
X151407714Y-63269809D01*
X151502952Y-63317428D01*
X151693428Y-63317428D01*
X151788666Y-63269809D01*
X151836285Y-63222190D01*
X151883904Y-63126952D01*
G04 #@! TO.C,R18*
X166357380Y-63507857D02*
X165881190Y-63841190D01*
X166357380Y-64079285D02*
X165357380Y-64079285D01*
X165357380Y-63698333D01*
X165405000Y-63603095D01*
X165452619Y-63555476D01*
X165547857Y-63507857D01*
X165690714Y-63507857D01*
X165785952Y-63555476D01*
X165833571Y-63603095D01*
X165881190Y-63698333D01*
X165881190Y-64079285D01*
X166357380Y-62555476D02*
X166357380Y-63126904D01*
X166357380Y-62841190D02*
X165357380Y-62841190D01*
X165500238Y-62936428D01*
X165595476Y-63031666D01*
X165643095Y-63126904D01*
X165785952Y-61984047D02*
X165738333Y-62079285D01*
X165690714Y-62126904D01*
X165595476Y-62174523D01*
X165547857Y-62174523D01*
X165452619Y-62126904D01*
X165405000Y-62079285D01*
X165357380Y-61984047D01*
X165357380Y-61793571D01*
X165405000Y-61698333D01*
X165452619Y-61650714D01*
X165547857Y-61603095D01*
X165595476Y-61603095D01*
X165690714Y-61650714D01*
X165738333Y-61698333D01*
X165785952Y-61793571D01*
X165785952Y-61984047D01*
X165833571Y-62079285D01*
X165881190Y-62126904D01*
X165976428Y-62174523D01*
X166166904Y-62174523D01*
X166262142Y-62126904D01*
X166309761Y-62079285D01*
X166357380Y-61984047D01*
X166357380Y-61793571D01*
X166309761Y-61698333D01*
X166262142Y-61650714D01*
X166166904Y-61603095D01*
X165976428Y-61603095D01*
X165881190Y-61650714D01*
X165833571Y-61698333D01*
X165785952Y-61793571D01*
G04 #@! TO.C,BZ1*
X169600571Y-73170952D02*
X169648190Y-73028095D01*
X169695809Y-72980476D01*
X169791047Y-72932857D01*
X169933904Y-72932857D01*
X170029142Y-72980476D01*
X170076761Y-73028095D01*
X170124380Y-73123333D01*
X170124380Y-73504285D01*
X169124380Y-73504285D01*
X169124380Y-73170952D01*
X169172000Y-73075714D01*
X169219619Y-73028095D01*
X169314857Y-72980476D01*
X169410095Y-72980476D01*
X169505333Y-73028095D01*
X169552952Y-73075714D01*
X169600571Y-73170952D01*
X169600571Y-73504285D01*
X169124380Y-72599523D02*
X169124380Y-71932857D01*
X170124380Y-72599523D01*
X170124380Y-71932857D01*
X170124380Y-71028095D02*
X170124380Y-71599523D01*
X170124380Y-71313809D02*
X169124380Y-71313809D01*
X169267238Y-71409047D01*
X169362476Y-71504285D01*
X169410095Y-71599523D01*
X165171428Y-77850952D02*
X165171428Y-77089047D01*
X165171428Y-67690952D02*
X165171428Y-66929047D01*
X165552380Y-67310000D02*
X164790476Y-67310000D01*
G04 #@! TO.C,C9*
X182179142Y-70203026D02*
X182226761Y-70250645D01*
X182274380Y-70393502D01*
X182274380Y-70488740D01*
X182226761Y-70631598D01*
X182131523Y-70726836D01*
X182036285Y-70774455D01*
X181845809Y-70822074D01*
X181702952Y-70822074D01*
X181512476Y-70774455D01*
X181417238Y-70726836D01*
X181322000Y-70631598D01*
X181274380Y-70488740D01*
X181274380Y-70393502D01*
X181322000Y-70250645D01*
X181369619Y-70203026D01*
X182274380Y-69726836D02*
X182274380Y-69536360D01*
X182226761Y-69441121D01*
X182179142Y-69393502D01*
X182036285Y-69298264D01*
X181845809Y-69250645D01*
X181464857Y-69250645D01*
X181369619Y-69298264D01*
X181322000Y-69345883D01*
X181274380Y-69441121D01*
X181274380Y-69631598D01*
X181322000Y-69726836D01*
X181369619Y-69774455D01*
X181464857Y-69822074D01*
X181702952Y-69822074D01*
X181798190Y-69774455D01*
X181845809Y-69726836D01*
X181893428Y-69631598D01*
X181893428Y-69441121D01*
X181845809Y-69345883D01*
X181798190Y-69298264D01*
X181702952Y-69250645D01*
G04 #@! TO.C,S2*
X129488095Y-56189761D02*
X129630952Y-56237380D01*
X129869047Y-56237380D01*
X129964285Y-56189761D01*
X130011904Y-56142142D01*
X130059523Y-56046904D01*
X130059523Y-55951666D01*
X130011904Y-55856428D01*
X129964285Y-55808809D01*
X129869047Y-55761190D01*
X129678571Y-55713571D01*
X129583333Y-55665952D01*
X129535714Y-55618333D01*
X129488095Y-55523095D01*
X129488095Y-55427857D01*
X129535714Y-55332619D01*
X129583333Y-55285000D01*
X129678571Y-55237380D01*
X129916666Y-55237380D01*
X130059523Y-55285000D01*
X130440476Y-55332619D02*
X130488095Y-55285000D01*
X130583333Y-55237380D01*
X130821428Y-55237380D01*
X130916666Y-55285000D01*
X130964285Y-55332619D01*
X131011904Y-55427857D01*
X131011904Y-55523095D01*
X130964285Y-55665952D01*
X130392857Y-56237380D01*
X131011904Y-56237380D01*
G04 #@! TO.C,U3*
X175399795Y-55332380D02*
X175399795Y-56141904D01*
X175447414Y-56237142D01*
X175495033Y-56284761D01*
X175590271Y-56332380D01*
X175780747Y-56332380D01*
X175875985Y-56284761D01*
X175923604Y-56237142D01*
X175971223Y-56141904D01*
X175971223Y-55332380D01*
X176352176Y-55332380D02*
X176971223Y-55332380D01*
X176637890Y-55713333D01*
X176780747Y-55713333D01*
X176875985Y-55760952D01*
X176923604Y-55808571D01*
X176971223Y-55903809D01*
X176971223Y-56141904D01*
X176923604Y-56237142D01*
X176875985Y-56284761D01*
X176780747Y-56332380D01*
X176495033Y-56332380D01*
X176399795Y-56284761D01*
X176352176Y-56237142D01*
G04 #@! TO.C,R11*
X128389142Y-118054380D02*
X128055809Y-117578190D01*
X127817714Y-118054380D02*
X127817714Y-117054380D01*
X128198666Y-117054380D01*
X128293904Y-117102000D01*
X128341523Y-117149619D01*
X128389142Y-117244857D01*
X128389142Y-117387714D01*
X128341523Y-117482952D01*
X128293904Y-117530571D01*
X128198666Y-117578190D01*
X127817714Y-117578190D01*
X129341523Y-118054380D02*
X128770095Y-118054380D01*
X129055809Y-118054380D02*
X129055809Y-117054380D01*
X128960571Y-117197238D01*
X128865333Y-117292476D01*
X128770095Y-117340095D01*
X130293904Y-118054380D02*
X129722476Y-118054380D01*
X130008190Y-118054380D02*
X130008190Y-117054380D01*
X129912952Y-117197238D01*
X129817714Y-117292476D01*
X129722476Y-117340095D01*
G04 #@! TO.C,R4*
X158948380Y-135294666D02*
X158472190Y-135628000D01*
X158948380Y-135866095D02*
X157948380Y-135866095D01*
X157948380Y-135485142D01*
X157996000Y-135389904D01*
X158043619Y-135342285D01*
X158138857Y-135294666D01*
X158281714Y-135294666D01*
X158376952Y-135342285D01*
X158424571Y-135389904D01*
X158472190Y-135485142D01*
X158472190Y-135866095D01*
X158281714Y-134437523D02*
X158948380Y-134437523D01*
X157900761Y-134675619D02*
X158615047Y-134913714D01*
X158615047Y-134294666D01*
G04 #@! TO.C,R1*
X184491333Y-117800380D02*
X184158000Y-117324190D01*
X183919904Y-117800380D02*
X183919904Y-116800380D01*
X184300857Y-116800380D01*
X184396095Y-116848000D01*
X184443714Y-116895619D01*
X184491333Y-116990857D01*
X184491333Y-117133714D01*
X184443714Y-117228952D01*
X184396095Y-117276571D01*
X184300857Y-117324190D01*
X183919904Y-117324190D01*
X185443714Y-117800380D02*
X184872285Y-117800380D01*
X185158000Y-117800380D02*
X185158000Y-116800380D01*
X185062761Y-116943238D01*
X184967523Y-117038476D01*
X184872285Y-117086095D01*
G04 #@! TO.C,R3*
X135215333Y-118054380D02*
X134882000Y-117578190D01*
X134643904Y-118054380D02*
X134643904Y-117054380D01*
X135024857Y-117054380D01*
X135120095Y-117102000D01*
X135167714Y-117149619D01*
X135215333Y-117244857D01*
X135215333Y-117387714D01*
X135167714Y-117482952D01*
X135120095Y-117530571D01*
X135024857Y-117578190D01*
X134643904Y-117578190D01*
X135548666Y-117054380D02*
X136167714Y-117054380D01*
X135834380Y-117435333D01*
X135977238Y-117435333D01*
X136072476Y-117482952D01*
X136120095Y-117530571D01*
X136167714Y-117625809D01*
X136167714Y-117863904D01*
X136120095Y-117959142D01*
X136072476Y-118006761D01*
X135977238Y-118054380D01*
X135691523Y-118054380D01*
X135596285Y-118006761D01*
X135548666Y-117959142D01*
G04 #@! TO.C,R17*
X131437142Y-66027380D02*
X131103809Y-65551190D01*
X130865714Y-66027380D02*
X130865714Y-65027380D01*
X131246666Y-65027380D01*
X131341904Y-65075000D01*
X131389523Y-65122619D01*
X131437142Y-65217857D01*
X131437142Y-65360714D01*
X131389523Y-65455952D01*
X131341904Y-65503571D01*
X131246666Y-65551190D01*
X130865714Y-65551190D01*
X132389523Y-66027380D02*
X131818095Y-66027380D01*
X132103809Y-66027380D02*
X132103809Y-65027380D01*
X132008571Y-65170238D01*
X131913333Y-65265476D01*
X131818095Y-65313095D01*
X132722857Y-65027380D02*
X133389523Y-65027380D01*
X132960952Y-66027380D01*
G04 #@! TO.C,R16*
X140327142Y-133632380D02*
X139993809Y-133156190D01*
X139755714Y-133632380D02*
X139755714Y-132632380D01*
X140136666Y-132632380D01*
X140231904Y-132680000D01*
X140279523Y-132727619D01*
X140327142Y-132822857D01*
X140327142Y-132965714D01*
X140279523Y-133060952D01*
X140231904Y-133108571D01*
X140136666Y-133156190D01*
X139755714Y-133156190D01*
X141279523Y-133632380D02*
X140708095Y-133632380D01*
X140993809Y-133632380D02*
X140993809Y-132632380D01*
X140898571Y-132775238D01*
X140803333Y-132870476D01*
X140708095Y-132918095D01*
X142136666Y-132632380D02*
X141946190Y-132632380D01*
X141850952Y-132680000D01*
X141803333Y-132727619D01*
X141708095Y-132870476D01*
X141660476Y-133060952D01*
X141660476Y-133441904D01*
X141708095Y-133537142D01*
X141755714Y-133584761D01*
X141850952Y-133632380D01*
X142041428Y-133632380D01*
X142136666Y-133584761D01*
X142184285Y-133537142D01*
X142231904Y-133441904D01*
X142231904Y-133203809D01*
X142184285Y-133108571D01*
X142136666Y-133060952D01*
X142041428Y-133013333D01*
X141850952Y-133013333D01*
X141755714Y-133060952D01*
X141708095Y-133108571D01*
X141660476Y-133203809D01*
G04 #@! TO.C,R2*
X161996380Y-135294666D02*
X161520190Y-135628000D01*
X161996380Y-135866095D02*
X160996380Y-135866095D01*
X160996380Y-135485142D01*
X161044000Y-135389904D01*
X161091619Y-135342285D01*
X161186857Y-135294666D01*
X161329714Y-135294666D01*
X161424952Y-135342285D01*
X161472571Y-135389904D01*
X161520190Y-135485142D01*
X161520190Y-135866095D01*
X161091619Y-134913714D02*
X161044000Y-134866095D01*
X160996380Y-134770857D01*
X160996380Y-134532761D01*
X161044000Y-134437523D01*
X161091619Y-134389904D01*
X161186857Y-134342285D01*
X161282095Y-134342285D01*
X161424952Y-134389904D01*
X161996380Y-134961333D01*
X161996380Y-134342285D01*
G04 #@! TO.C,R15*
X131437142Y-118054380D02*
X131103809Y-117578190D01*
X130865714Y-118054380D02*
X130865714Y-117054380D01*
X131246666Y-117054380D01*
X131341904Y-117102000D01*
X131389523Y-117149619D01*
X131437142Y-117244857D01*
X131437142Y-117387714D01*
X131389523Y-117482952D01*
X131341904Y-117530571D01*
X131246666Y-117578190D01*
X130865714Y-117578190D01*
X132389523Y-118054380D02*
X131818095Y-118054380D01*
X132103809Y-118054380D02*
X132103809Y-117054380D01*
X132008571Y-117197238D01*
X131913333Y-117292476D01*
X131818095Y-117340095D01*
X133294285Y-117054380D02*
X132818095Y-117054380D01*
X132770476Y-117530571D01*
X132818095Y-117482952D01*
X132913333Y-117435333D01*
X133151428Y-117435333D01*
X133246666Y-117482952D01*
X133294285Y-117530571D01*
X133341904Y-117625809D01*
X133341904Y-117863904D01*
X133294285Y-117959142D01*
X133246666Y-118006761D01*
X133151428Y-118054380D01*
X132913333Y-118054380D01*
X132818095Y-118006761D01*
X132770476Y-117959142D01*
G04 #@! TO.C,R14*
X182237142Y-128976380D02*
X181903809Y-128500190D01*
X181665714Y-128976380D02*
X181665714Y-127976380D01*
X182046666Y-127976380D01*
X182141904Y-128024000D01*
X182189523Y-128071619D01*
X182237142Y-128166857D01*
X182237142Y-128309714D01*
X182189523Y-128404952D01*
X182141904Y-128452571D01*
X182046666Y-128500190D01*
X181665714Y-128500190D01*
X183189523Y-128976380D02*
X182618095Y-128976380D01*
X182903809Y-128976380D02*
X182903809Y-127976380D01*
X182808571Y-128119238D01*
X182713333Y-128214476D01*
X182618095Y-128262095D01*
X184046666Y-128309714D02*
X184046666Y-128976380D01*
X183808571Y-127928761D02*
X183570476Y-128643047D01*
X184189523Y-128643047D01*
G04 #@! TO.C,R10*
X165981142Y-133632380D02*
X165647809Y-133156190D01*
X165409714Y-133632380D02*
X165409714Y-132632380D01*
X165790666Y-132632380D01*
X165885904Y-132680000D01*
X165933523Y-132727619D01*
X165981142Y-132822857D01*
X165981142Y-132965714D01*
X165933523Y-133060952D01*
X165885904Y-133108571D01*
X165790666Y-133156190D01*
X165409714Y-133156190D01*
X166933523Y-133632380D02*
X166362095Y-133632380D01*
X166647809Y-133632380D02*
X166647809Y-132632380D01*
X166552571Y-132775238D01*
X166457333Y-132870476D01*
X166362095Y-132918095D01*
X167552571Y-132632380D02*
X167647809Y-132632380D01*
X167743047Y-132680000D01*
X167790666Y-132727619D01*
X167838285Y-132822857D01*
X167885904Y-133013333D01*
X167885904Y-133251428D01*
X167838285Y-133441904D01*
X167790666Y-133537142D01*
X167743047Y-133584761D01*
X167647809Y-133632380D01*
X167552571Y-133632380D01*
X167457333Y-133584761D01*
X167409714Y-133537142D01*
X167362095Y-133441904D01*
X167314476Y-133251428D01*
X167314476Y-133013333D01*
X167362095Y-132822857D01*
X167409714Y-132727619D01*
X167457333Y-132680000D01*
X167552571Y-132632380D01*
G04 #@! TO.C,R9*
X191095333Y-117800380D02*
X190762000Y-117324190D01*
X190523904Y-117800380D02*
X190523904Y-116800380D01*
X190904857Y-116800380D01*
X191000095Y-116848000D01*
X191047714Y-116895619D01*
X191095333Y-116990857D01*
X191095333Y-117133714D01*
X191047714Y-117228952D01*
X191000095Y-117276571D01*
X190904857Y-117324190D01*
X190523904Y-117324190D01*
X191571523Y-117800380D02*
X191762000Y-117800380D01*
X191857238Y-117752761D01*
X191904857Y-117705142D01*
X192000095Y-117562285D01*
X192047714Y-117371809D01*
X192047714Y-116990857D01*
X192000095Y-116895619D01*
X191952476Y-116848000D01*
X191857238Y-116800380D01*
X191666761Y-116800380D01*
X191571523Y-116848000D01*
X191523904Y-116895619D01*
X191476285Y-116990857D01*
X191476285Y-117228952D01*
X191523904Y-117324190D01*
X191571523Y-117371809D01*
X191666761Y-117419428D01*
X191857238Y-117419428D01*
X191952476Y-117371809D01*
X192000095Y-117324190D01*
X192047714Y-117228952D01*
G04 #@! TO.C,R8*
X150482380Y-135294666D02*
X150006190Y-135628000D01*
X150482380Y-135866095D02*
X149482380Y-135866095D01*
X149482380Y-135485142D01*
X149530000Y-135389904D01*
X149577619Y-135342285D01*
X149672857Y-135294666D01*
X149815714Y-135294666D01*
X149910952Y-135342285D01*
X149958571Y-135389904D01*
X150006190Y-135485142D01*
X150006190Y-135866095D01*
X149910952Y-134723238D02*
X149863333Y-134818476D01*
X149815714Y-134866095D01*
X149720476Y-134913714D01*
X149672857Y-134913714D01*
X149577619Y-134866095D01*
X149530000Y-134818476D01*
X149482380Y-134723238D01*
X149482380Y-134532761D01*
X149530000Y-134437523D01*
X149577619Y-134389904D01*
X149672857Y-134342285D01*
X149720476Y-134342285D01*
X149815714Y-134389904D01*
X149863333Y-134437523D01*
X149910952Y-134532761D01*
X149910952Y-134723238D01*
X149958571Y-134818476D01*
X150006190Y-134866095D01*
X150101428Y-134913714D01*
X150291904Y-134913714D01*
X150387142Y-134866095D01*
X150434761Y-134818476D01*
X150482380Y-134723238D01*
X150482380Y-134532761D01*
X150434761Y-134437523D01*
X150387142Y-134389904D01*
X150291904Y-134342285D01*
X150101428Y-134342285D01*
X150006190Y-134389904D01*
X149958571Y-134437523D01*
X149910952Y-134532761D01*
G04 #@! TO.C,R7*
X125563333Y-118054380D02*
X125230000Y-117578190D01*
X124991904Y-118054380D02*
X124991904Y-117054380D01*
X125372857Y-117054380D01*
X125468095Y-117102000D01*
X125515714Y-117149619D01*
X125563333Y-117244857D01*
X125563333Y-117387714D01*
X125515714Y-117482952D01*
X125468095Y-117530571D01*
X125372857Y-117578190D01*
X124991904Y-117578190D01*
X125896666Y-117054380D02*
X126563333Y-117054380D01*
X126134761Y-118054380D01*
G04 #@! TO.C,R6*
X170378380Y-135040666D02*
X169902190Y-135374000D01*
X170378380Y-135612095D02*
X169378380Y-135612095D01*
X169378380Y-135231142D01*
X169426000Y-135135904D01*
X169473619Y-135088285D01*
X169568857Y-135040666D01*
X169711714Y-135040666D01*
X169806952Y-135088285D01*
X169854571Y-135135904D01*
X169902190Y-135231142D01*
X169902190Y-135612095D01*
X169378380Y-134183523D02*
X169378380Y-134374000D01*
X169426000Y-134469238D01*
X169473619Y-134516857D01*
X169616476Y-134612095D01*
X169806952Y-134659714D01*
X170187904Y-134659714D01*
X170283142Y-134612095D01*
X170330761Y-134564476D01*
X170378380Y-134469238D01*
X170378380Y-134278761D01*
X170330761Y-134183523D01*
X170283142Y-134135904D01*
X170187904Y-134088285D01*
X169949809Y-134088285D01*
X169854571Y-134135904D01*
X169806952Y-134183523D01*
X169759333Y-134278761D01*
X169759333Y-134469238D01*
X169806952Y-134564476D01*
X169854571Y-134612095D01*
X169949809Y-134659714D01*
G04 #@! TO.C,R5*
X194143333Y-117800380D02*
X193810000Y-117324190D01*
X193571904Y-117800380D02*
X193571904Y-116800380D01*
X193952857Y-116800380D01*
X194048095Y-116848000D01*
X194095714Y-116895619D01*
X194143333Y-116990857D01*
X194143333Y-117133714D01*
X194095714Y-117228952D01*
X194048095Y-117276571D01*
X193952857Y-117324190D01*
X193571904Y-117324190D01*
X195048095Y-116800380D02*
X194571904Y-116800380D01*
X194524285Y-117276571D01*
X194571904Y-117228952D01*
X194667142Y-117181333D01*
X194905238Y-117181333D01*
X195000476Y-117228952D01*
X195048095Y-117276571D01*
X195095714Y-117371809D01*
X195095714Y-117609904D01*
X195048095Y-117705142D01*
X195000476Y-117752761D01*
X194905238Y-117800380D01*
X194667142Y-117800380D01*
X194571904Y-117752761D01*
X194524285Y-117705142D01*
G04 #@! TO.C,R13*
X187317142Y-117800380D02*
X186983809Y-117324190D01*
X186745714Y-117800380D02*
X186745714Y-116800380D01*
X187126666Y-116800380D01*
X187221904Y-116848000D01*
X187269523Y-116895619D01*
X187317142Y-116990857D01*
X187317142Y-117133714D01*
X187269523Y-117228952D01*
X187221904Y-117276571D01*
X187126666Y-117324190D01*
X186745714Y-117324190D01*
X188269523Y-117800380D02*
X187698095Y-117800380D01*
X187983809Y-117800380D02*
X187983809Y-116800380D01*
X187888571Y-116943238D01*
X187793333Y-117038476D01*
X187698095Y-117086095D01*
X188602857Y-116800380D02*
X189221904Y-116800380D01*
X188888571Y-117181333D01*
X189031428Y-117181333D01*
X189126666Y-117228952D01*
X189174285Y-117276571D01*
X189221904Y-117371809D01*
X189221904Y-117609904D01*
X189174285Y-117705142D01*
X189126666Y-117752761D01*
X189031428Y-117800380D01*
X188745714Y-117800380D01*
X188650476Y-117752761D01*
X188602857Y-117705142D01*
G04 #@! TO.C,R12*
X153535142Y-133548380D02*
X153201809Y-133072190D01*
X152963714Y-133548380D02*
X152963714Y-132548380D01*
X153344666Y-132548380D01*
X153439904Y-132596000D01*
X153487523Y-132643619D01*
X153535142Y-132738857D01*
X153535142Y-132881714D01*
X153487523Y-132976952D01*
X153439904Y-133024571D01*
X153344666Y-133072190D01*
X152963714Y-133072190D01*
X154487523Y-133548380D02*
X153916095Y-133548380D01*
X154201809Y-133548380D02*
X154201809Y-132548380D01*
X154106571Y-132691238D01*
X154011333Y-132786476D01*
X153916095Y-132834095D01*
X154868476Y-132643619D02*
X154916095Y-132596000D01*
X155011333Y-132548380D01*
X155249428Y-132548380D01*
X155344666Y-132596000D01*
X155392285Y-132643619D01*
X155439904Y-132738857D01*
X155439904Y-132834095D01*
X155392285Y-132976952D01*
X154820857Y-133548380D01*
X155439904Y-133548380D01*
G04 #@! TO.C,Q2*
X126142761Y-126277619D02*
X126047523Y-126230000D01*
X125952285Y-126134761D01*
X125809428Y-125991904D01*
X125714190Y-125944285D01*
X125618952Y-125944285D01*
X125666571Y-126182380D02*
X125571333Y-126134761D01*
X125476095Y-126039523D01*
X125428476Y-125849047D01*
X125428476Y-125515714D01*
X125476095Y-125325238D01*
X125571333Y-125230000D01*
X125666571Y-125182380D01*
X125857047Y-125182380D01*
X125952285Y-125230000D01*
X126047523Y-125325238D01*
X126095142Y-125515714D01*
X126095142Y-125849047D01*
X126047523Y-126039523D01*
X125952285Y-126134761D01*
X125857047Y-126182380D01*
X125666571Y-126182380D01*
X126476095Y-125277619D02*
X126523714Y-125230000D01*
X126618952Y-125182380D01*
X126857047Y-125182380D01*
X126952285Y-125230000D01*
X126999904Y-125277619D01*
X127047523Y-125372857D01*
X127047523Y-125468095D01*
X126999904Y-125610952D01*
X126428476Y-126182380D01*
X127047523Y-126182380D01*
G04 #@! TO.C,D0*
X187729904Y-126436380D02*
X187729904Y-125436380D01*
X187968000Y-125436380D01*
X188110857Y-125484000D01*
X188206095Y-125579238D01*
X188253714Y-125674476D01*
X188301333Y-125864952D01*
X188301333Y-126007809D01*
X188253714Y-126198285D01*
X188206095Y-126293523D01*
X188110857Y-126388761D01*
X187968000Y-126436380D01*
X187729904Y-126436380D01*
X188920380Y-125436380D02*
X189015619Y-125436380D01*
X189110857Y-125484000D01*
X189158476Y-125531619D01*
X189206095Y-125626857D01*
X189253714Y-125817333D01*
X189253714Y-126055428D01*
X189206095Y-126245904D01*
X189158476Y-126341142D01*
X189110857Y-126388761D01*
X189015619Y-126436380D01*
X188920380Y-126436380D01*
X188825142Y-126388761D01*
X188777523Y-126341142D01*
X188729904Y-126245904D01*
X188682285Y-126055428D01*
X188682285Y-125817333D01*
X188729904Y-125626857D01*
X188777523Y-125531619D01*
X188825142Y-125484000D01*
X188920380Y-125436380D01*
G04 #@! TO.C,Q1*
X179586241Y-135562888D02*
X179522257Y-135477777D01*
X179479520Y-135350050D01*
X179415415Y-135158459D01*
X179351431Y-135073348D01*
X179266199Y-135030853D01*
X179202577Y-135265181D02*
X179138593Y-135180070D01*
X179095856Y-135052343D01*
X179138230Y-134860632D01*
X179286963Y-134562320D01*
X179414569Y-134413104D01*
X179542295Y-134370367D01*
X179648775Y-134370246D01*
X179819239Y-134455236D01*
X179883223Y-134540347D01*
X179925960Y-134668074D01*
X179883586Y-134859785D01*
X179734853Y-135158097D01*
X179607247Y-135307313D01*
X179479520Y-135350050D01*
X179373041Y-135350171D01*
X179202577Y-135265181D01*
X180438439Y-135881359D02*
X179927048Y-135626388D01*
X180182743Y-135753873D02*
X180628941Y-134858939D01*
X180479967Y-134944292D01*
X180352240Y-134987029D01*
X180245760Y-134987150D01*
G04 #@! TO.C,BT1*
X197293645Y-63055191D02*
X197436502Y-63102810D01*
X197484121Y-63150429D01*
X197531740Y-63245667D01*
X197531740Y-63388524D01*
X197484121Y-63483762D01*
X197436502Y-63531381D01*
X197341264Y-63579000D01*
X196960312Y-63579000D01*
X196960312Y-62579000D01*
X197293645Y-62579000D01*
X197388883Y-62626620D01*
X197436502Y-62674239D01*
X197484121Y-62769477D01*
X197484121Y-62864715D01*
X197436502Y-62959953D01*
X197388883Y-63007572D01*
X197293645Y-63055191D01*
X196960312Y-63055191D01*
X197817455Y-62579000D02*
X198388883Y-62579000D01*
X198103169Y-63579000D02*
X198103169Y-62579000D01*
X199246026Y-63579000D02*
X198674598Y-63579000D01*
X198960312Y-63579000D02*
X198960312Y-62579000D01*
X198865074Y-62721858D01*
X198769836Y-62817096D01*
X198674598Y-62864715D01*
G04 #@! TO.C,D1*
X170128514Y-140054398D02*
X169233580Y-139608200D01*
X169339817Y-139395120D01*
X169446176Y-139288520D01*
X169573903Y-139245783D01*
X169680382Y-139245662D01*
X169872093Y-139288036D01*
X169999941Y-139351779D01*
X170149157Y-139479385D01*
X170213142Y-139564496D01*
X170255878Y-139692223D01*
X170234752Y-139841318D01*
X170128514Y-140054398D01*
X170808435Y-138690688D02*
X170553465Y-139202079D01*
X170680950Y-138946384D02*
X169786015Y-138500186D01*
X169871368Y-138649160D01*
X169914105Y-138776887D01*
X169914226Y-138883367D01*
G04 #@! TO.C,D2*
X130579904Y-126436380D02*
X130579904Y-125436380D01*
X130818000Y-125436380D01*
X130960857Y-125484000D01*
X131056095Y-125579238D01*
X131103714Y-125674476D01*
X131151333Y-125864952D01*
X131151333Y-126007809D01*
X131103714Y-126198285D01*
X131056095Y-126293523D01*
X130960857Y-126388761D01*
X130818000Y-126436380D01*
X130579904Y-126436380D01*
X131532285Y-125531619D02*
X131579904Y-125484000D01*
X131675142Y-125436380D01*
X131913238Y-125436380D01*
X132008476Y-125484000D01*
X132056095Y-125531619D01*
X132103714Y-125626857D01*
X132103714Y-125722095D01*
X132056095Y-125864952D01*
X131484666Y-126436380D01*
X132103714Y-126436380D01*
G04 #@! TO.C,D3*
X149024212Y-139266704D02*
X149919146Y-138820506D01*
X150025384Y-139033586D01*
X150046510Y-139182681D01*
X150003774Y-139310408D01*
X149939789Y-139395519D01*
X149790573Y-139523125D01*
X149662725Y-139586868D01*
X149471014Y-139629242D01*
X149364535Y-139629121D01*
X149236808Y-139586384D01*
X149130449Y-139479784D01*
X149024212Y-139266704D01*
X150322849Y-139630209D02*
X150599067Y-140184216D01*
X150109407Y-140055884D01*
X150173149Y-140183732D01*
X150173028Y-140290212D01*
X150151660Y-140354075D01*
X150087676Y-140439186D01*
X149874596Y-140545424D01*
X149768117Y-140545303D01*
X149704253Y-140523934D01*
X149619142Y-140459950D01*
X149491657Y-140204254D01*
X149491778Y-140097775D01*
X149513146Y-140033912D01*
G04 #@! TO.C,Q0*
X192944761Y-126531619D02*
X192849523Y-126484000D01*
X192754285Y-126388761D01*
X192611428Y-126245904D01*
X192516190Y-126198285D01*
X192420952Y-126198285D01*
X192468571Y-126436380D02*
X192373333Y-126388761D01*
X192278095Y-126293523D01*
X192230476Y-126103047D01*
X192230476Y-125769714D01*
X192278095Y-125579238D01*
X192373333Y-125484000D01*
X192468571Y-125436380D01*
X192659047Y-125436380D01*
X192754285Y-125484000D01*
X192849523Y-125579238D01*
X192897142Y-125769714D01*
X192897142Y-126103047D01*
X192849523Y-126293523D01*
X192754285Y-126388761D01*
X192659047Y-126436380D01*
X192468571Y-126436380D01*
X193516190Y-125436380D02*
X193611428Y-125436380D01*
X193706666Y-125484000D01*
X193754285Y-125531619D01*
X193801904Y-125626857D01*
X193849523Y-125817333D01*
X193849523Y-126055428D01*
X193801904Y-126245904D01*
X193754285Y-126341142D01*
X193706666Y-126388761D01*
X193611428Y-126436380D01*
X193516190Y-126436380D01*
X193420952Y-126388761D01*
X193373333Y-126341142D01*
X193325714Y-126245904D01*
X193278095Y-126055428D01*
X193278095Y-125817333D01*
X193325714Y-125626857D01*
X193373333Y-125531619D01*
X193420952Y-125484000D01*
X193516190Y-125436380D01*
G04 #@! TO.C,Q3*
X140326474Y-135734237D02*
X140219995Y-135734116D01*
X140092268Y-135691379D01*
X139900678Y-135627274D01*
X139794198Y-135627153D01*
X139708966Y-135669648D01*
X139857820Y-135861480D02*
X139751340Y-135861359D01*
X139623614Y-135818622D01*
X139496008Y-135669406D01*
X139347275Y-135371095D01*
X139304901Y-135179383D01*
X139347638Y-135051657D01*
X139411622Y-134966546D01*
X139582086Y-134881556D01*
X139688565Y-134881676D01*
X139816292Y-134924413D01*
X139943898Y-135073629D01*
X140092631Y-135371941D01*
X140135005Y-135563652D01*
X140092268Y-135691379D01*
X140028284Y-135776490D01*
X139857820Y-135861480D01*
X140093477Y-134626585D02*
X140647484Y-134350368D01*
X140519152Y-134840028D01*
X140647000Y-134776285D01*
X140753480Y-134776406D01*
X140817343Y-134797774D01*
X140902454Y-134861759D01*
X141008692Y-135074838D01*
X141008571Y-135181318D01*
X140987202Y-135245181D01*
X140923218Y-135330292D01*
X140667522Y-135457777D01*
X140561043Y-135457656D01*
X140497180Y-135436288D01*
G04 #@! TO.C,U2*
X159436820Y-68833904D02*
X160246344Y-68833904D01*
X160341582Y-68786285D01*
X160389201Y-68738666D01*
X160436820Y-68643428D01*
X160436820Y-68452952D01*
X160389201Y-68357714D01*
X160341582Y-68310095D01*
X160246344Y-68262476D01*
X159436820Y-68262476D01*
X159532059Y-67833904D02*
X159484440Y-67786285D01*
X159436820Y-67691047D01*
X159436820Y-67452952D01*
X159484440Y-67357714D01*
X159532059Y-67310095D01*
X159627297Y-67262476D01*
X159722535Y-67262476D01*
X159865392Y-67310095D01*
X160436820Y-67881523D01*
X160436820Y-67262476D01*
G04 #@! TO.C,M1*
X136604476Y-96464380D02*
X136604476Y-95464380D01*
X136937809Y-96178666D01*
X137271142Y-95464380D01*
X137271142Y-96464380D01*
X138271142Y-96464380D02*
X137699714Y-96464380D01*
X137985428Y-96464380D02*
X137985428Y-95464380D01*
X137890190Y-95607238D01*
X137794952Y-95702476D01*
X137699714Y-95750095D01*
G04 #@! TO.C,M2*
X181562476Y-96210380D02*
X181562476Y-95210380D01*
X181895809Y-95924666D01*
X182229142Y-95210380D01*
X182229142Y-96210380D01*
X182657714Y-95305619D02*
X182705333Y-95258000D01*
X182800571Y-95210380D01*
X183038666Y-95210380D01*
X183133904Y-95258000D01*
X183181523Y-95305619D01*
X183229142Y-95400857D01*
X183229142Y-95496095D01*
X183181523Y-95638952D01*
X182610095Y-96210380D01*
X183229142Y-96210380D01*
G04 #@! TO.C,J4*
X194215426Y-70064380D02*
X194215426Y-70778666D01*
X194167807Y-70921523D01*
X194072569Y-71016761D01*
X193929712Y-71064380D01*
X193834474Y-71064380D01*
X195120188Y-70397714D02*
X195120188Y-71064380D01*
X194882093Y-70016761D02*
X194643998Y-70731047D01*
X195263045Y-70731047D01*
G04 #@! TO.C,U4*
X179607620Y-78800864D02*
X180417144Y-78800864D01*
X180512382Y-78753245D01*
X180560001Y-78705626D01*
X180607620Y-78610388D01*
X180607620Y-78419912D01*
X180560001Y-78324674D01*
X180512382Y-78277055D01*
X180417144Y-78229436D01*
X179607620Y-78229436D01*
X179940954Y-77324674D02*
X180607620Y-77324674D01*
X179560001Y-77562769D02*
X180274287Y-77800864D01*
X180274287Y-77181817D01*
G04 #@! TO.C,U5*
X139547980Y-78663704D02*
X140357504Y-78663704D01*
X140452742Y-78616085D01*
X140500361Y-78568466D01*
X140547980Y-78473228D01*
X140547980Y-78282752D01*
X140500361Y-78187514D01*
X140452742Y-78139895D01*
X140357504Y-78092276D01*
X139547980Y-78092276D01*
X139547980Y-77139895D02*
X139547980Y-77616085D01*
X140024171Y-77663704D01*
X139976552Y-77616085D01*
X139928933Y-77520847D01*
X139928933Y-77282752D01*
X139976552Y-77187514D01*
X140024171Y-77139895D01*
X140119409Y-77092276D01*
X140357504Y-77092276D01*
X140452742Y-77139895D01*
X140500361Y-77187514D01*
X140547980Y-77282752D01*
X140547980Y-77520847D01*
X140500361Y-77616085D01*
X140452742Y-77663704D01*
G04 #@! TO.C,MH1*
X180022666Y-102424380D02*
X180022666Y-101424380D01*
X180356000Y-102138666D01*
X180689333Y-101424380D01*
X180689333Y-102424380D01*
X181165523Y-102424380D02*
X181165523Y-101424380D01*
X181165523Y-101900571D02*
X181736952Y-101900571D01*
X181736952Y-102424380D02*
X181736952Y-101424380D01*
X182736952Y-102424380D02*
X182165523Y-102424380D01*
X182451238Y-102424380D02*
X182451238Y-101424380D01*
X182356000Y-101567238D01*
X182260761Y-101662476D01*
X182165523Y-101710095D01*
G04 #@! TO.C,MH2*
X139890666Y-102424380D02*
X139890666Y-101424380D01*
X140224000Y-102138666D01*
X140557333Y-101424380D01*
X140557333Y-102424380D01*
X141033523Y-102424380D02*
X141033523Y-101424380D01*
X141033523Y-101900571D02*
X141604952Y-101900571D01*
X141604952Y-102424380D02*
X141604952Y-101424380D01*
X142033523Y-101519619D02*
X142081142Y-101472000D01*
X142176380Y-101424380D01*
X142414476Y-101424380D01*
X142509714Y-101472000D01*
X142557333Y-101519619D01*
X142604952Y-101614857D01*
X142604952Y-101710095D01*
X142557333Y-101852952D01*
X141985904Y-102424380D01*
X142604952Y-102424380D01*
G04 #@! TD*
M02*
