G04 #@! TF.GenerationSoftware,KiCad,Pcbnew,(5.0.2)-1*
G04 #@! TF.CreationDate,2020-09-24T18:59:20-07:00*
G04 #@! TF.ProjectId,mouse_v2,6d6f7573-655f-4763-922e-6b696361645f,rev?*
G04 #@! TF.SameCoordinates,Original*
G04 #@! TF.FileFunction,Soldermask,Top*
G04 #@! TF.FilePolarity,Negative*
%FSLAX46Y46*%
G04 Gerber Fmt 4.6, Leading zero omitted, Abs format (unit mm)*
G04 Created by KiCad (PCBNEW (5.0.2)-1) date 9/24/2020 6:59:20 PM*
%MOMM*%
%LPD*%
G01*
G04 APERTURE LIST*
%ADD10C,0.100000*%
G04 APERTURE END LIST*
D10*
G36*
X167815770Y-143795372D02*
X167931689Y-143818429D01*
X168113678Y-143893811D01*
X168277463Y-144003249D01*
X168416751Y-144142537D01*
X168526189Y-144306322D01*
X168601571Y-144488311D01*
X168640000Y-144681509D01*
X168640000Y-144878491D01*
X168601571Y-145071689D01*
X168526189Y-145253678D01*
X168416751Y-145417463D01*
X168277463Y-145556751D01*
X168113678Y-145666189D01*
X167931689Y-145741571D01*
X167815770Y-145764628D01*
X167738493Y-145780000D01*
X167541507Y-145780000D01*
X167464230Y-145764628D01*
X167348311Y-145741571D01*
X167166322Y-145666189D01*
X167002537Y-145556751D01*
X166863249Y-145417463D01*
X166753811Y-145253678D01*
X166678429Y-145071689D01*
X166640000Y-144878491D01*
X166640000Y-144681509D01*
X166678429Y-144488311D01*
X166753811Y-144306322D01*
X166863249Y-144142537D01*
X167002537Y-144003249D01*
X167166322Y-143893811D01*
X167348311Y-143818429D01*
X167464230Y-143795372D01*
X167541507Y-143780000D01*
X167738493Y-143780000D01*
X167815770Y-143795372D01*
X167815770Y-143795372D01*
G37*
G36*
X152575770Y-143795372D02*
X152691689Y-143818429D01*
X152873678Y-143893811D01*
X153037463Y-144003249D01*
X153176751Y-144142537D01*
X153286189Y-144306322D01*
X153361571Y-144488311D01*
X153400000Y-144681509D01*
X153400000Y-144878491D01*
X153361571Y-145071689D01*
X153286189Y-145253678D01*
X153176751Y-145417463D01*
X153037463Y-145556751D01*
X152873678Y-145666189D01*
X152691689Y-145741571D01*
X152575770Y-145764628D01*
X152498493Y-145780000D01*
X152301507Y-145780000D01*
X152224230Y-145764628D01*
X152108311Y-145741571D01*
X151926322Y-145666189D01*
X151762537Y-145556751D01*
X151623249Y-145417463D01*
X151513811Y-145253678D01*
X151438429Y-145071689D01*
X151400000Y-144878491D01*
X151400000Y-144681509D01*
X151438429Y-144488311D01*
X151513811Y-144306322D01*
X151623249Y-144142537D01*
X151762537Y-144003249D01*
X151926322Y-143893811D01*
X152108311Y-143818429D01*
X152224230Y-143795372D01*
X152301507Y-143780000D01*
X152498493Y-143780000D01*
X152575770Y-143795372D01*
X152575770Y-143795372D01*
G37*
G36*
X156406030Y-143794469D02*
X156406033Y-143794470D01*
X156406034Y-143794470D01*
X156594535Y-143851651D01*
X156594537Y-143851652D01*
X156768260Y-143944509D01*
X156920528Y-144069472D01*
X157045491Y-144221740D01*
X157138348Y-144395463D01*
X157195531Y-144583970D01*
X157214838Y-144780000D01*
X157195531Y-144976030D01*
X157138348Y-145164537D01*
X157045491Y-145338260D01*
X156920528Y-145490528D01*
X156768260Y-145615491D01*
X156768258Y-145615492D01*
X156594535Y-145708349D01*
X156406034Y-145765530D01*
X156406033Y-145765530D01*
X156406030Y-145765531D01*
X156259124Y-145780000D01*
X156160876Y-145780000D01*
X156013970Y-145765531D01*
X156013967Y-145765530D01*
X156013966Y-145765530D01*
X155825465Y-145708349D01*
X155651742Y-145615492D01*
X155651740Y-145615491D01*
X155499472Y-145490528D01*
X155374509Y-145338260D01*
X155281652Y-145164537D01*
X155224469Y-144976030D01*
X155205162Y-144780000D01*
X155224469Y-144583970D01*
X155281652Y-144395463D01*
X155374509Y-144221740D01*
X155499472Y-144069472D01*
X155651740Y-143944509D01*
X155825463Y-143851652D01*
X155825465Y-143851651D01*
X156013966Y-143794470D01*
X156013967Y-143794470D01*
X156013970Y-143794469D01*
X156160876Y-143780000D01*
X156259124Y-143780000D01*
X156406030Y-143794469D01*
X156406030Y-143794469D01*
G37*
G36*
X164026030Y-143794469D02*
X164026033Y-143794470D01*
X164026034Y-143794470D01*
X164214535Y-143851651D01*
X164214537Y-143851652D01*
X164388260Y-143944509D01*
X164540528Y-144069472D01*
X164665491Y-144221740D01*
X164758348Y-144395463D01*
X164815531Y-144583970D01*
X164834838Y-144780000D01*
X164815531Y-144976030D01*
X164758348Y-145164537D01*
X164665491Y-145338260D01*
X164540528Y-145490528D01*
X164388260Y-145615491D01*
X164388258Y-145615492D01*
X164214535Y-145708349D01*
X164026034Y-145765530D01*
X164026033Y-145765530D01*
X164026030Y-145765531D01*
X163879124Y-145780000D01*
X163780876Y-145780000D01*
X163633970Y-145765531D01*
X163633967Y-145765530D01*
X163633966Y-145765530D01*
X163445465Y-145708349D01*
X163271742Y-145615492D01*
X163271740Y-145615491D01*
X163119472Y-145490528D01*
X162994509Y-145338260D01*
X162901652Y-145164537D01*
X162844469Y-144976030D01*
X162825162Y-144780000D01*
X162844469Y-144583970D01*
X162901652Y-144395463D01*
X162994509Y-144221740D01*
X163119472Y-144069472D01*
X163271740Y-143944509D01*
X163445463Y-143851652D01*
X163445465Y-143851651D01*
X163633966Y-143794470D01*
X163633967Y-143794470D01*
X163633970Y-143794469D01*
X163780876Y-143780000D01*
X163879124Y-143780000D01*
X164026030Y-143794469D01*
X164026030Y-143794469D01*
G37*
G36*
X172976045Y-141073290D02*
X171994410Y-143042145D01*
X170025555Y-142060510D01*
X171007190Y-140091655D01*
X172976045Y-141073290D01*
X172976045Y-141073290D01*
G37*
G36*
X160429122Y-139216115D02*
X160545041Y-139239173D01*
X160872620Y-139374861D01*
X160913398Y-139402108D01*
X161167436Y-139571851D01*
X161418149Y-139822564D01*
X161418151Y-139822567D01*
X161615139Y-140117380D01*
X161729623Y-140393767D01*
X161750827Y-140444960D01*
X161814112Y-140763111D01*
X161820000Y-140792716D01*
X161820000Y-141147284D01*
X161750827Y-141495041D01*
X161744965Y-141509192D01*
X161615140Y-141822618D01*
X161418149Y-142117436D01*
X161167436Y-142368149D01*
X161167433Y-142368151D01*
X160872620Y-142565139D01*
X160545041Y-142700827D01*
X160461054Y-142717533D01*
X160197286Y-142770000D01*
X159842714Y-142770000D01*
X159578946Y-142717533D01*
X159494959Y-142700827D01*
X159167380Y-142565139D01*
X158872567Y-142368151D01*
X158872564Y-142368149D01*
X158621851Y-142117436D01*
X158424860Y-141822618D01*
X158295035Y-141509192D01*
X158289173Y-141495041D01*
X158220000Y-141147284D01*
X158220000Y-140792716D01*
X158225889Y-140763111D01*
X158289173Y-140444960D01*
X158310378Y-140393767D01*
X158424861Y-140117380D01*
X158621849Y-139822567D01*
X158621851Y-139822564D01*
X158872564Y-139571851D01*
X159126602Y-139402108D01*
X159167380Y-139374861D01*
X159494959Y-139239173D01*
X159610878Y-139216115D01*
X159842714Y-139170000D01*
X160197286Y-139170000D01*
X160429122Y-139216115D01*
X160429122Y-139216115D01*
G37*
G36*
X148901199Y-140559805D02*
X149101384Y-140642724D01*
X149281555Y-140763111D01*
X149434764Y-140916320D01*
X149555151Y-141096491D01*
X149638070Y-141296676D01*
X149680342Y-141509191D01*
X149680342Y-141725875D01*
X149638070Y-141938390D01*
X149555151Y-142138575D01*
X149434764Y-142318746D01*
X149281555Y-142471955D01*
X149281552Y-142471957D01*
X149281551Y-142471958D01*
X149101387Y-142592340D01*
X149101384Y-142592342D01*
X148901199Y-142675261D01*
X148688684Y-142717533D01*
X148472000Y-142717533D01*
X148259485Y-142675261D01*
X148059300Y-142592342D01*
X148059297Y-142592340D01*
X147879133Y-142471958D01*
X147879132Y-142471957D01*
X147879129Y-142471955D01*
X147725920Y-142318746D01*
X147605533Y-142138575D01*
X147522614Y-141938390D01*
X147480342Y-141725875D01*
X147480342Y-141509191D01*
X147522614Y-141296676D01*
X147605533Y-141096491D01*
X147725920Y-140916320D01*
X147879129Y-140763111D01*
X148059300Y-140642724D01*
X148259485Y-140559805D01*
X148472000Y-140517533D01*
X148688684Y-140517533D01*
X148901199Y-140559805D01*
X148901199Y-140559805D01*
G37*
G36*
X148922245Y-139838010D02*
X146953390Y-140819645D01*
X145971755Y-138850790D01*
X147940610Y-137869155D01*
X148922245Y-139838010D01*
X148922245Y-139838010D01*
G37*
G36*
X172954999Y-138236039D02*
X173155184Y-138318958D01*
X173335355Y-138439345D01*
X173488564Y-138592554D01*
X173608951Y-138772725D01*
X173691870Y-138972910D01*
X173734142Y-139185425D01*
X173734142Y-139402109D01*
X173691870Y-139614624D01*
X173608951Y-139814809D01*
X173488564Y-139994980D01*
X173335355Y-140148189D01*
X173155184Y-140268576D01*
X172954999Y-140351495D01*
X172742484Y-140393767D01*
X172525800Y-140393767D01*
X172313285Y-140351495D01*
X172113100Y-140268576D01*
X171932929Y-140148189D01*
X171779720Y-139994980D01*
X171659333Y-139814809D01*
X171576414Y-139614624D01*
X171534142Y-139402109D01*
X171534142Y-139185425D01*
X171576414Y-138972910D01*
X171659333Y-138772725D01*
X171779720Y-138592554D01*
X171932929Y-138439345D01*
X172113100Y-138318958D01*
X172313285Y-138236039D01*
X172525800Y-138193767D01*
X172742484Y-138193767D01*
X172954999Y-138236039D01*
X172954999Y-138236039D01*
G37*
G36*
X175198545Y-136564790D02*
X174216910Y-138533645D01*
X172248055Y-137552010D01*
X173229690Y-135583155D01*
X175198545Y-136564790D01*
X175198545Y-136564790D01*
G37*
G36*
X146624857Y-136064172D02*
X146825042Y-136147091D01*
X147005213Y-136267478D01*
X147158422Y-136420687D01*
X147278809Y-136600858D01*
X147361728Y-136801043D01*
X147404000Y-137013558D01*
X147404000Y-137230242D01*
X147361728Y-137442757D01*
X147278809Y-137642942D01*
X147158422Y-137823113D01*
X147005213Y-137976322D01*
X146825042Y-138096709D01*
X146624857Y-138179628D01*
X146412342Y-138221900D01*
X146195658Y-138221900D01*
X145983143Y-138179628D01*
X145782958Y-138096709D01*
X145602787Y-137976322D01*
X145449578Y-137823113D01*
X145329191Y-137642942D01*
X145246272Y-137442757D01*
X145204000Y-137230242D01*
X145204000Y-137013558D01*
X145246272Y-136801043D01*
X145329191Y-136600858D01*
X145449578Y-136420687D01*
X145602787Y-136267478D01*
X145782958Y-136147091D01*
X145983143Y-136064172D01*
X146195658Y-136021900D01*
X146412342Y-136021900D01*
X146624857Y-136064172D01*
X146624857Y-136064172D01*
G37*
G36*
X146645903Y-135342377D02*
X144677048Y-136324012D01*
X143695413Y-134355157D01*
X145664268Y-133373522D01*
X146645903Y-135342377D01*
X146645903Y-135342377D01*
G37*
G36*
X175177499Y-133727539D02*
X175377684Y-133810458D01*
X175377687Y-133810460D01*
X175525869Y-133909472D01*
X175557855Y-133930845D01*
X175711064Y-134084054D01*
X175711066Y-134084057D01*
X175711067Y-134084058D01*
X175812233Y-134235463D01*
X175831451Y-134264225D01*
X175914370Y-134464410D01*
X175956642Y-134676925D01*
X175956642Y-134893609D01*
X175914370Y-135106124D01*
X175831451Y-135306309D01*
X175831449Y-135306312D01*
X175731771Y-135455491D01*
X175711064Y-135486480D01*
X175557855Y-135639689D01*
X175377684Y-135760076D01*
X175177499Y-135842995D01*
X174964984Y-135885267D01*
X174748300Y-135885267D01*
X174535785Y-135842995D01*
X174335600Y-135760076D01*
X174155429Y-135639689D01*
X174002220Y-135486480D01*
X173981514Y-135455491D01*
X173881835Y-135306312D01*
X173881833Y-135306309D01*
X173798914Y-135106124D01*
X173756642Y-134893609D01*
X173756642Y-134676925D01*
X173798914Y-134464410D01*
X173881833Y-134264225D01*
X173901051Y-134235463D01*
X174002217Y-134084058D01*
X174002218Y-134084057D01*
X174002220Y-134084054D01*
X174155429Y-133930845D01*
X174187416Y-133909472D01*
X174335597Y-133810460D01*
X174335600Y-133810458D01*
X174535785Y-133727539D01*
X174748300Y-133685267D01*
X174964984Y-133685267D01*
X175177499Y-133727539D01*
X175177499Y-133727539D01*
G37*
G36*
X152596030Y-133634469D02*
X152596033Y-133634470D01*
X152596034Y-133634470D01*
X152784535Y-133691651D01*
X152784537Y-133691652D01*
X152958260Y-133784509D01*
X153110528Y-133909472D01*
X153235491Y-134061740D01*
X153328348Y-134235463D01*
X153385531Y-134423970D01*
X153404838Y-134620000D01*
X153385531Y-134816030D01*
X153328348Y-135004537D01*
X153235491Y-135178260D01*
X153110528Y-135330528D01*
X152958260Y-135455491D01*
X152958258Y-135455492D01*
X152784535Y-135548349D01*
X152596034Y-135605530D01*
X152596033Y-135605530D01*
X152596030Y-135605531D01*
X152449124Y-135620000D01*
X152350876Y-135620000D01*
X152203970Y-135605531D01*
X152203967Y-135605530D01*
X152203966Y-135605530D01*
X152015465Y-135548349D01*
X151841742Y-135455492D01*
X151841740Y-135455491D01*
X151689472Y-135330528D01*
X151564509Y-135178260D01*
X151471652Y-135004537D01*
X151414469Y-134816030D01*
X151395162Y-134620000D01*
X151414469Y-134423970D01*
X151471652Y-134235463D01*
X151564509Y-134061740D01*
X151689472Y-133909472D01*
X151841740Y-133784509D01*
X152015463Y-133691652D01*
X152015465Y-133691651D01*
X152203966Y-133634470D01*
X152203967Y-133634470D01*
X152203970Y-133634469D01*
X152350876Y-133620000D01*
X152449124Y-133620000D01*
X152596030Y-133634469D01*
X152596030Y-133634469D01*
G37*
G36*
X167836030Y-133634469D02*
X167836033Y-133634470D01*
X167836034Y-133634470D01*
X168024535Y-133691651D01*
X168024537Y-133691652D01*
X168198260Y-133784509D01*
X168350528Y-133909472D01*
X168475491Y-134061740D01*
X168568348Y-134235463D01*
X168625531Y-134423970D01*
X168644838Y-134620000D01*
X168625531Y-134816030D01*
X168568348Y-135004537D01*
X168475491Y-135178260D01*
X168350528Y-135330528D01*
X168198260Y-135455491D01*
X168198258Y-135455492D01*
X168024535Y-135548349D01*
X167836034Y-135605530D01*
X167836033Y-135605530D01*
X167836030Y-135605531D01*
X167689124Y-135620000D01*
X167590876Y-135620000D01*
X167443970Y-135605531D01*
X167443967Y-135605530D01*
X167443966Y-135605530D01*
X167255465Y-135548349D01*
X167081742Y-135455492D01*
X167081740Y-135455491D01*
X166929472Y-135330528D01*
X166804509Y-135178260D01*
X166711652Y-135004537D01*
X166654469Y-134816030D01*
X166635162Y-134620000D01*
X166654469Y-134423970D01*
X166711652Y-134235463D01*
X166804509Y-134061740D01*
X166929472Y-133909472D01*
X167081740Y-133784509D01*
X167255463Y-133691652D01*
X167255465Y-133691651D01*
X167443966Y-133634470D01*
X167443967Y-133634470D01*
X167443970Y-133634469D01*
X167590876Y-133620000D01*
X167689124Y-133620000D01*
X167836030Y-133634469D01*
X167836030Y-133634469D01*
G37*
G36*
X156385770Y-133635372D02*
X156501689Y-133658429D01*
X156683678Y-133733811D01*
X156847463Y-133843249D01*
X156986751Y-133982537D01*
X157096189Y-134146322D01*
X157171571Y-134328311D01*
X157194628Y-134444230D01*
X157198643Y-134464410D01*
X157210000Y-134521509D01*
X157210000Y-134718491D01*
X157171571Y-134911689D01*
X157096189Y-135093678D01*
X156986751Y-135257463D01*
X156847463Y-135396751D01*
X156683678Y-135506189D01*
X156501689Y-135581571D01*
X156385770Y-135604628D01*
X156308493Y-135620000D01*
X156111507Y-135620000D01*
X156034230Y-135604628D01*
X155918311Y-135581571D01*
X155736322Y-135506189D01*
X155572537Y-135396751D01*
X155433249Y-135257463D01*
X155323811Y-135093678D01*
X155248429Y-134911689D01*
X155210000Y-134718491D01*
X155210000Y-134521509D01*
X155221358Y-134464410D01*
X155225372Y-134444230D01*
X155248429Y-134328311D01*
X155323811Y-134146322D01*
X155433249Y-133982537D01*
X155572537Y-133843249D01*
X155736322Y-133733811D01*
X155918311Y-133658429D01*
X156034230Y-133635372D01*
X156111507Y-133620000D01*
X156308493Y-133620000D01*
X156385770Y-133635372D01*
X156385770Y-133635372D01*
G37*
G36*
X164005770Y-133635372D02*
X164121689Y-133658429D01*
X164303678Y-133733811D01*
X164467463Y-133843249D01*
X164606751Y-133982537D01*
X164716189Y-134146322D01*
X164791571Y-134328311D01*
X164814628Y-134444230D01*
X164818643Y-134464410D01*
X164830000Y-134521509D01*
X164830000Y-134718491D01*
X164791571Y-134911689D01*
X164716189Y-135093678D01*
X164606751Y-135257463D01*
X164467463Y-135396751D01*
X164303678Y-135506189D01*
X164121689Y-135581571D01*
X164005770Y-135604628D01*
X163928493Y-135620000D01*
X163731507Y-135620000D01*
X163654230Y-135604628D01*
X163538311Y-135581571D01*
X163356322Y-135506189D01*
X163192537Y-135396751D01*
X163053249Y-135257463D01*
X162943811Y-135093678D01*
X162868429Y-134911689D01*
X162830000Y-134718491D01*
X162830000Y-134521509D01*
X162841358Y-134464410D01*
X162845372Y-134444230D01*
X162868429Y-134328311D01*
X162943811Y-134146322D01*
X163053249Y-133982537D01*
X163192537Y-133843249D01*
X163356322Y-133733811D01*
X163538311Y-133658429D01*
X163654230Y-133635372D01*
X163731507Y-133620000D01*
X163928493Y-133620000D01*
X164005770Y-133635372D01*
X164005770Y-133635372D01*
G37*
G36*
X184600030Y-129824469D02*
X184600033Y-129824470D01*
X184600034Y-129824470D01*
X184788535Y-129881651D01*
X184788537Y-129881652D01*
X184962260Y-129974509D01*
X185114528Y-130099472D01*
X185239491Y-130251740D01*
X185332348Y-130425463D01*
X185389531Y-130613970D01*
X185408838Y-130810000D01*
X185389531Y-131006030D01*
X185332348Y-131194537D01*
X185239491Y-131368260D01*
X185114528Y-131520528D01*
X184962260Y-131645491D01*
X184962258Y-131645492D01*
X184788535Y-131738349D01*
X184600034Y-131795530D01*
X184600033Y-131795530D01*
X184600030Y-131795531D01*
X184453124Y-131810000D01*
X184354876Y-131810000D01*
X184207970Y-131795531D01*
X184207967Y-131795530D01*
X184207966Y-131795530D01*
X184019465Y-131738349D01*
X183845742Y-131645492D01*
X183845740Y-131645491D01*
X183693472Y-131520528D01*
X183568509Y-131368260D01*
X183475652Y-131194537D01*
X183418469Y-131006030D01*
X183399162Y-130810000D01*
X183418469Y-130613970D01*
X183475652Y-130425463D01*
X183568509Y-130251740D01*
X183693472Y-130099472D01*
X183845740Y-129974509D01*
X184019463Y-129881652D01*
X184019465Y-129881651D01*
X184207966Y-129824470D01*
X184207967Y-129824470D01*
X184207970Y-129824469D01*
X184354876Y-129810000D01*
X184453124Y-129810000D01*
X184600030Y-129824469D01*
X184600030Y-129824469D01*
G37*
G36*
X148765770Y-129825372D02*
X148881689Y-129848429D01*
X149063678Y-129923811D01*
X149227463Y-130033249D01*
X149366751Y-130172537D01*
X149476189Y-130336322D01*
X149551571Y-130518311D01*
X149590000Y-130711509D01*
X149590000Y-130908491D01*
X149551571Y-131101689D01*
X149476189Y-131283678D01*
X149366751Y-131447463D01*
X149227463Y-131586751D01*
X149063678Y-131696189D01*
X148881689Y-131771571D01*
X148765770Y-131794628D01*
X148688493Y-131810000D01*
X148491507Y-131810000D01*
X148414230Y-131794628D01*
X148298311Y-131771571D01*
X148116322Y-131696189D01*
X147952537Y-131586751D01*
X147813249Y-131447463D01*
X147703811Y-131283678D01*
X147628429Y-131101689D01*
X147590000Y-130908491D01*
X147590000Y-130711509D01*
X147628429Y-130518311D01*
X147703811Y-130336322D01*
X147813249Y-130172537D01*
X147952537Y-130033249D01*
X148116322Y-129923811D01*
X148298311Y-129848429D01*
X148414230Y-129825372D01*
X148491507Y-129810000D01*
X148688493Y-129810000D01*
X148765770Y-129825372D01*
X148765770Y-129825372D01*
G37*
G36*
X158946030Y-129824469D02*
X158946033Y-129824470D01*
X158946034Y-129824470D01*
X159134535Y-129881651D01*
X159134537Y-129881652D01*
X159308260Y-129974509D01*
X159460528Y-130099472D01*
X159585491Y-130251740D01*
X159678348Y-130425463D01*
X159735531Y-130613970D01*
X159754838Y-130810000D01*
X159735531Y-131006030D01*
X159678348Y-131194537D01*
X159585491Y-131368260D01*
X159460528Y-131520528D01*
X159308260Y-131645491D01*
X159308258Y-131645492D01*
X159134535Y-131738349D01*
X158946034Y-131795530D01*
X158946033Y-131795530D01*
X158946030Y-131795531D01*
X158799124Y-131810000D01*
X158700876Y-131810000D01*
X158553970Y-131795531D01*
X158553967Y-131795530D01*
X158553966Y-131795530D01*
X158365465Y-131738349D01*
X158191742Y-131645492D01*
X158191740Y-131645491D01*
X158039472Y-131520528D01*
X157914509Y-131368260D01*
X157821652Y-131194537D01*
X157764469Y-131006030D01*
X157745162Y-130810000D01*
X157764469Y-130613970D01*
X157821652Y-130425463D01*
X157914509Y-130251740D01*
X158039472Y-130099472D01*
X158191740Y-129974509D01*
X158365463Y-129881652D01*
X158365465Y-129881651D01*
X158553966Y-129824470D01*
X158553967Y-129824470D01*
X158553970Y-129824469D01*
X158700876Y-129810000D01*
X158799124Y-129810000D01*
X158946030Y-129824469D01*
X158946030Y-129824469D01*
G37*
G36*
X171879770Y-129825372D02*
X171995689Y-129848429D01*
X172177678Y-129923811D01*
X172341463Y-130033249D01*
X172480751Y-130172537D01*
X172590189Y-130336322D01*
X172665571Y-130518311D01*
X172704000Y-130711509D01*
X172704000Y-130908491D01*
X172665571Y-131101689D01*
X172590189Y-131283678D01*
X172480751Y-131447463D01*
X172341463Y-131586751D01*
X172177678Y-131696189D01*
X171995689Y-131771571D01*
X171879770Y-131794628D01*
X171802493Y-131810000D01*
X171605507Y-131810000D01*
X171528230Y-131794628D01*
X171412311Y-131771571D01*
X171230322Y-131696189D01*
X171066537Y-131586751D01*
X170927249Y-131447463D01*
X170817811Y-131283678D01*
X170742429Y-131101689D01*
X170704000Y-130908491D01*
X170704000Y-130711509D01*
X170742429Y-130518311D01*
X170817811Y-130336322D01*
X170927249Y-130172537D01*
X171066537Y-130033249D01*
X171230322Y-129923811D01*
X171412311Y-129848429D01*
X171528230Y-129825372D01*
X171605507Y-129810000D01*
X171802493Y-129810000D01*
X171879770Y-129825372D01*
X171879770Y-129825372D01*
G37*
G36*
X161740030Y-129824469D02*
X161740033Y-129824470D01*
X161740034Y-129824470D01*
X161928535Y-129881651D01*
X161928537Y-129881652D01*
X162102260Y-129974509D01*
X162254528Y-130099472D01*
X162379491Y-130251740D01*
X162472348Y-130425463D01*
X162529531Y-130613970D01*
X162548838Y-130810000D01*
X162529531Y-131006030D01*
X162472348Y-131194537D01*
X162379491Y-131368260D01*
X162254528Y-131520528D01*
X162102260Y-131645491D01*
X162102258Y-131645492D01*
X161928535Y-131738349D01*
X161740034Y-131795530D01*
X161740033Y-131795530D01*
X161740030Y-131795531D01*
X161593124Y-131810000D01*
X161494876Y-131810000D01*
X161347970Y-131795531D01*
X161347967Y-131795530D01*
X161347966Y-131795530D01*
X161159465Y-131738349D01*
X160985742Y-131645492D01*
X160985740Y-131645491D01*
X160833472Y-131520528D01*
X160708509Y-131368260D01*
X160615652Y-131194537D01*
X160558469Y-131006030D01*
X160539162Y-130810000D01*
X160558469Y-130613970D01*
X160615652Y-130425463D01*
X160708509Y-130251740D01*
X160833472Y-130099472D01*
X160985740Y-129974509D01*
X161159463Y-129881652D01*
X161159465Y-129881651D01*
X161347966Y-129824470D01*
X161347967Y-129824470D01*
X161347970Y-129824469D01*
X161494876Y-129810000D01*
X161593124Y-129810000D01*
X161740030Y-129824469D01*
X161740030Y-129824469D01*
G37*
G36*
X174419770Y-129825372D02*
X174535689Y-129848429D01*
X174717678Y-129923811D01*
X174881463Y-130033249D01*
X175020751Y-130172537D01*
X175130189Y-130336322D01*
X175205571Y-130518311D01*
X175244000Y-130711509D01*
X175244000Y-130908491D01*
X175205571Y-131101689D01*
X175130189Y-131283678D01*
X175020751Y-131447463D01*
X174881463Y-131586751D01*
X174717678Y-131696189D01*
X174535689Y-131771571D01*
X174419770Y-131794628D01*
X174342493Y-131810000D01*
X174145507Y-131810000D01*
X174068230Y-131794628D01*
X173952311Y-131771571D01*
X173770322Y-131696189D01*
X173606537Y-131586751D01*
X173467249Y-131447463D01*
X173357811Y-131283678D01*
X173282429Y-131101689D01*
X173244000Y-130908491D01*
X173244000Y-130711509D01*
X173282429Y-130518311D01*
X173357811Y-130336322D01*
X173467249Y-130172537D01*
X173606537Y-130033249D01*
X173770322Y-129923811D01*
X173952311Y-129848429D01*
X174068230Y-129825372D01*
X174145507Y-129810000D01*
X174342493Y-129810000D01*
X174419770Y-129825372D01*
X174419770Y-129825372D01*
G37*
G36*
X146225770Y-129825372D02*
X146341689Y-129848429D01*
X146523678Y-129923811D01*
X146687463Y-130033249D01*
X146826751Y-130172537D01*
X146936189Y-130336322D01*
X147011571Y-130518311D01*
X147050000Y-130711509D01*
X147050000Y-130908491D01*
X147011571Y-131101689D01*
X146936189Y-131283678D01*
X146826751Y-131447463D01*
X146687463Y-131586751D01*
X146523678Y-131696189D01*
X146341689Y-131771571D01*
X146225770Y-131794628D01*
X146148493Y-131810000D01*
X145951507Y-131810000D01*
X145874230Y-131794628D01*
X145758311Y-131771571D01*
X145576322Y-131696189D01*
X145412537Y-131586751D01*
X145273249Y-131447463D01*
X145163811Y-131283678D01*
X145088429Y-131101689D01*
X145050000Y-130908491D01*
X145050000Y-130711509D01*
X145088429Y-130518311D01*
X145163811Y-130336322D01*
X145273249Y-130172537D01*
X145412537Y-130033249D01*
X145576322Y-129923811D01*
X145758311Y-129848429D01*
X145874230Y-129825372D01*
X145951507Y-129810000D01*
X146148493Y-129810000D01*
X146225770Y-129825372D01*
X146225770Y-129825372D01*
G37*
G36*
X136086030Y-129824469D02*
X136086033Y-129824470D01*
X136086034Y-129824470D01*
X136274535Y-129881651D01*
X136274537Y-129881652D01*
X136448260Y-129974509D01*
X136600528Y-130099472D01*
X136725491Y-130251740D01*
X136818348Y-130425463D01*
X136875531Y-130613970D01*
X136894838Y-130810000D01*
X136875531Y-131006030D01*
X136818348Y-131194537D01*
X136725491Y-131368260D01*
X136600528Y-131520528D01*
X136448260Y-131645491D01*
X136448258Y-131645492D01*
X136274535Y-131738349D01*
X136086034Y-131795530D01*
X136086033Y-131795530D01*
X136086030Y-131795531D01*
X135939124Y-131810000D01*
X135840876Y-131810000D01*
X135693970Y-131795531D01*
X135693967Y-131795530D01*
X135693966Y-131795530D01*
X135505465Y-131738349D01*
X135331742Y-131645492D01*
X135331740Y-131645491D01*
X135179472Y-131520528D01*
X135054509Y-131368260D01*
X134961652Y-131194537D01*
X134904469Y-131006030D01*
X134885162Y-130810000D01*
X134904469Y-130613970D01*
X134961652Y-130425463D01*
X135054509Y-130251740D01*
X135179472Y-130099472D01*
X135331740Y-129974509D01*
X135505463Y-129881652D01*
X135505465Y-129881651D01*
X135693966Y-129824470D01*
X135693967Y-129824470D01*
X135693970Y-129824469D01*
X135840876Y-129810000D01*
X135939124Y-129810000D01*
X136086030Y-129824469D01*
X136086030Y-129824469D01*
G37*
G36*
X193509297Y-129385645D02*
X191309297Y-129385645D01*
X191309297Y-127185645D01*
X193509297Y-127185645D01*
X193509297Y-129385645D01*
X193509297Y-129385645D01*
G37*
G36*
X195270154Y-127227917D02*
X195470339Y-127310836D01*
X195470342Y-127310838D01*
X195627092Y-127415575D01*
X195650510Y-127431223D01*
X195803719Y-127584432D01*
X195803721Y-127584435D01*
X195803722Y-127584436D01*
X195893295Y-127718491D01*
X195924106Y-127764603D01*
X196007025Y-127964788D01*
X196049297Y-128177303D01*
X196049297Y-128393987D01*
X196007025Y-128606502D01*
X195924106Y-128806687D01*
X195924104Y-128806690D01*
X195808282Y-128980030D01*
X195803719Y-128986858D01*
X195650510Y-129140067D01*
X195650507Y-129140069D01*
X195650506Y-129140070D01*
X195522494Y-129225605D01*
X195470339Y-129260454D01*
X195270154Y-129343373D01*
X195057639Y-129385645D01*
X194840955Y-129385645D01*
X194628440Y-129343373D01*
X194428255Y-129260454D01*
X194376100Y-129225605D01*
X194248088Y-129140070D01*
X194248087Y-129140069D01*
X194248084Y-129140067D01*
X194094875Y-128986858D01*
X194090313Y-128980030D01*
X193974490Y-128806690D01*
X193974488Y-128806687D01*
X193891569Y-128606502D01*
X193849297Y-128393987D01*
X193849297Y-128177303D01*
X193891569Y-127964788D01*
X193974488Y-127764603D01*
X194005299Y-127718491D01*
X194094872Y-127584436D01*
X194094873Y-127584435D01*
X194094875Y-127584432D01*
X194248084Y-127431223D01*
X194271503Y-127415575D01*
X194428252Y-127310838D01*
X194428255Y-127310836D01*
X194628440Y-127227917D01*
X194840955Y-127185645D01*
X195057639Y-127185645D01*
X195270154Y-127227917D01*
X195270154Y-127227917D01*
G37*
G36*
X190256977Y-127212272D02*
X190457162Y-127295191D01*
X190637333Y-127415578D01*
X190790542Y-127568787D01*
X190790544Y-127568790D01*
X190790545Y-127568791D01*
X190814445Y-127604560D01*
X190910929Y-127748958D01*
X190993848Y-127949143D01*
X191036120Y-128161658D01*
X191036120Y-128378342D01*
X190993848Y-128590857D01*
X190910929Y-128791042D01*
X190790542Y-128971213D01*
X190637333Y-129124422D01*
X190637330Y-129124424D01*
X190637329Y-129124425D01*
X190538339Y-129190568D01*
X190457162Y-129244809D01*
X190256977Y-129327728D01*
X190044462Y-129370000D01*
X189827778Y-129370000D01*
X189615263Y-129327728D01*
X189415078Y-129244809D01*
X189333901Y-129190568D01*
X189234911Y-129124425D01*
X189234910Y-129124424D01*
X189234907Y-129124422D01*
X189081698Y-128971213D01*
X188961311Y-128791042D01*
X188878392Y-128590857D01*
X188836120Y-128378342D01*
X188836120Y-128161658D01*
X188878392Y-127949143D01*
X188961311Y-127748958D01*
X189057795Y-127604560D01*
X189081695Y-127568791D01*
X189081696Y-127568790D01*
X189081698Y-127568787D01*
X189234907Y-127415578D01*
X189415078Y-127295191D01*
X189615263Y-127212272D01*
X189827778Y-127170000D01*
X190044462Y-127170000D01*
X190256977Y-127212272D01*
X190256977Y-127212272D01*
G37*
G36*
X188496120Y-129370000D02*
X186296120Y-129370000D01*
X186296120Y-127170000D01*
X188496120Y-127170000D01*
X188496120Y-129370000D01*
X188496120Y-129370000D01*
G37*
G36*
X133129837Y-127075112D02*
X133330022Y-127158031D01*
X133330025Y-127158033D01*
X133499366Y-127271183D01*
X133510193Y-127278418D01*
X133663402Y-127431627D01*
X133783789Y-127611798D01*
X133866708Y-127811983D01*
X133908980Y-128024498D01*
X133908980Y-128241182D01*
X133866708Y-128453697D01*
X133783789Y-128653882D01*
X133783787Y-128653885D01*
X133668237Y-128826818D01*
X133663402Y-128834053D01*
X133510193Y-128987262D01*
X133330022Y-129107649D01*
X133129837Y-129190568D01*
X132917322Y-129232840D01*
X132700638Y-129232840D01*
X132488123Y-129190568D01*
X132287938Y-129107649D01*
X132107767Y-128987262D01*
X131954558Y-128834053D01*
X131949724Y-128826818D01*
X131834173Y-128653885D01*
X131834171Y-128653882D01*
X131751252Y-128453697D01*
X131708980Y-128241182D01*
X131708980Y-128024498D01*
X131751252Y-127811983D01*
X131834171Y-127611798D01*
X131954558Y-127431627D01*
X132107767Y-127278418D01*
X132118595Y-127271183D01*
X132287935Y-127158033D01*
X132287938Y-127158031D01*
X132488123Y-127075112D01*
X132700638Y-127032840D01*
X132917322Y-127032840D01*
X133129837Y-127075112D01*
X133129837Y-127075112D01*
G37*
G36*
X131368980Y-129232840D02*
X129168980Y-129232840D01*
X129168980Y-127032840D01*
X131368980Y-127032840D01*
X131368980Y-129232840D01*
X131368980Y-129232840D01*
G37*
G36*
X126260529Y-129225605D02*
X124060529Y-129225605D01*
X124060529Y-127025605D01*
X126260529Y-127025605D01*
X126260529Y-129225605D01*
X126260529Y-129225605D01*
G37*
G36*
X128021386Y-127067877D02*
X128221571Y-127150796D01*
X128221574Y-127150798D01*
X128313578Y-127212273D01*
X128401742Y-127271183D01*
X128554951Y-127424392D01*
X128554953Y-127424395D01*
X128554954Y-127424396D01*
X128619843Y-127521509D01*
X128675338Y-127604563D01*
X128758257Y-127804748D01*
X128800529Y-128017263D01*
X128800529Y-128233947D01*
X128758257Y-128446462D01*
X128675338Y-128646647D01*
X128554951Y-128826818D01*
X128401742Y-128980027D01*
X128401739Y-128980029D01*
X128401738Y-128980030D01*
X128390910Y-128987265D01*
X128221571Y-129100414D01*
X128021386Y-129183333D01*
X127808871Y-129225605D01*
X127592187Y-129225605D01*
X127379672Y-129183333D01*
X127179487Y-129100414D01*
X127010148Y-128987265D01*
X126999320Y-128980030D01*
X126999319Y-128980029D01*
X126999316Y-128980027D01*
X126846107Y-128826818D01*
X126725720Y-128646647D01*
X126642801Y-128446462D01*
X126600529Y-128233947D01*
X126600529Y-128017263D01*
X126642801Y-127804748D01*
X126725720Y-127604563D01*
X126781215Y-127521509D01*
X126846104Y-127424396D01*
X126846105Y-127424395D01*
X126846107Y-127424392D01*
X126999316Y-127271183D01*
X127087481Y-127212273D01*
X127179484Y-127150798D01*
X127179487Y-127150796D01*
X127379672Y-127067877D01*
X127592187Y-127025605D01*
X127808871Y-127025605D01*
X128021386Y-127067877D01*
X128021386Y-127067877D01*
G37*
G36*
X151559770Y-126635372D02*
X151675689Y-126658429D01*
X151857678Y-126733811D01*
X152021463Y-126843249D01*
X152160751Y-126982537D01*
X152270189Y-127146322D01*
X152345571Y-127328311D01*
X152362929Y-127415575D01*
X152384000Y-127521507D01*
X152384000Y-127718493D01*
X152374828Y-127764603D01*
X152345571Y-127911689D01*
X152270189Y-128093678D01*
X152160751Y-128257463D01*
X152021463Y-128396751D01*
X151857678Y-128506189D01*
X151675689Y-128581571D01*
X151559770Y-128604628D01*
X151482493Y-128620000D01*
X151285507Y-128620000D01*
X151208230Y-128604628D01*
X151092311Y-128581571D01*
X150910322Y-128506189D01*
X150746537Y-128396751D01*
X150607249Y-128257463D01*
X150497811Y-128093678D01*
X150422429Y-127911689D01*
X150393172Y-127764603D01*
X150384000Y-127718493D01*
X150384000Y-127521507D01*
X150405071Y-127415575D01*
X150422429Y-127328311D01*
X150497811Y-127146322D01*
X150607249Y-126982537D01*
X150746537Y-126843249D01*
X150910322Y-126733811D01*
X151092311Y-126658429D01*
X151208230Y-126635372D01*
X151285507Y-126620000D01*
X151482493Y-126620000D01*
X151559770Y-126635372D01*
X151559770Y-126635372D01*
G37*
G36*
X146479770Y-126635372D02*
X146595689Y-126658429D01*
X146777678Y-126733811D01*
X146941463Y-126843249D01*
X147080751Y-126982537D01*
X147190189Y-127146322D01*
X147265571Y-127328311D01*
X147282929Y-127415575D01*
X147304000Y-127521507D01*
X147304000Y-127718493D01*
X147294828Y-127764603D01*
X147265571Y-127911689D01*
X147190189Y-128093678D01*
X147080751Y-128257463D01*
X146941463Y-128396751D01*
X146777678Y-128506189D01*
X146595689Y-128581571D01*
X146479770Y-128604628D01*
X146402493Y-128620000D01*
X146205507Y-128620000D01*
X146128230Y-128604628D01*
X146012311Y-128581571D01*
X145830322Y-128506189D01*
X145666537Y-128396751D01*
X145527249Y-128257463D01*
X145417811Y-128093678D01*
X145342429Y-127911689D01*
X145313172Y-127764603D01*
X145304000Y-127718493D01*
X145304000Y-127521507D01*
X145325071Y-127415575D01*
X145342429Y-127328311D01*
X145417811Y-127146322D01*
X145527249Y-126982537D01*
X145666537Y-126843249D01*
X145830322Y-126733811D01*
X146012311Y-126658429D01*
X146128230Y-126635372D01*
X146205507Y-126620000D01*
X146402493Y-126620000D01*
X146479770Y-126635372D01*
X146479770Y-126635372D01*
G37*
G36*
X154099770Y-126635372D02*
X154215689Y-126658429D01*
X154397678Y-126733811D01*
X154561463Y-126843249D01*
X154700751Y-126982537D01*
X154810189Y-127146322D01*
X154885571Y-127328311D01*
X154902929Y-127415575D01*
X154924000Y-127521507D01*
X154924000Y-127718493D01*
X154914828Y-127764603D01*
X154885571Y-127911689D01*
X154810189Y-128093678D01*
X154700751Y-128257463D01*
X154561463Y-128396751D01*
X154397678Y-128506189D01*
X154215689Y-128581571D01*
X154099770Y-128604628D01*
X154022493Y-128620000D01*
X153825507Y-128620000D01*
X153748230Y-128604628D01*
X153632311Y-128581571D01*
X153450322Y-128506189D01*
X153286537Y-128396751D01*
X153147249Y-128257463D01*
X153037811Y-128093678D01*
X152962429Y-127911689D01*
X152933172Y-127764603D01*
X152924000Y-127718493D01*
X152924000Y-127521507D01*
X152945071Y-127415575D01*
X152962429Y-127328311D01*
X153037811Y-127146322D01*
X153147249Y-126982537D01*
X153286537Y-126843249D01*
X153450322Y-126733811D01*
X153632311Y-126658429D01*
X153748230Y-126635372D01*
X153825507Y-126620000D01*
X154022493Y-126620000D01*
X154099770Y-126635372D01*
X154099770Y-126635372D01*
G37*
G36*
X156639770Y-126635372D02*
X156755689Y-126658429D01*
X156937678Y-126733811D01*
X157101463Y-126843249D01*
X157240751Y-126982537D01*
X157350189Y-127146322D01*
X157425571Y-127328311D01*
X157442929Y-127415575D01*
X157464000Y-127521507D01*
X157464000Y-127718493D01*
X157454828Y-127764603D01*
X157425571Y-127911689D01*
X157350189Y-128093678D01*
X157240751Y-128257463D01*
X157101463Y-128396751D01*
X156937678Y-128506189D01*
X156755689Y-128581571D01*
X156639770Y-128604628D01*
X156562493Y-128620000D01*
X156365507Y-128620000D01*
X156288230Y-128604628D01*
X156172311Y-128581571D01*
X155990322Y-128506189D01*
X155826537Y-128396751D01*
X155687249Y-128257463D01*
X155577811Y-128093678D01*
X155502429Y-127911689D01*
X155473172Y-127764603D01*
X155464000Y-127718493D01*
X155464000Y-127521507D01*
X155485071Y-127415575D01*
X155502429Y-127328311D01*
X155577811Y-127146322D01*
X155687249Y-126982537D01*
X155826537Y-126843249D01*
X155990322Y-126733811D01*
X156172311Y-126658429D01*
X156288230Y-126635372D01*
X156365507Y-126620000D01*
X156562493Y-126620000D01*
X156639770Y-126635372D01*
X156639770Y-126635372D01*
G37*
G36*
X159179770Y-126635372D02*
X159295689Y-126658429D01*
X159477678Y-126733811D01*
X159641463Y-126843249D01*
X159780751Y-126982537D01*
X159890189Y-127146322D01*
X159965571Y-127328311D01*
X159982929Y-127415575D01*
X160004000Y-127521507D01*
X160004000Y-127718493D01*
X159994828Y-127764603D01*
X159965571Y-127911689D01*
X159890189Y-128093678D01*
X159780751Y-128257463D01*
X159641463Y-128396751D01*
X159477678Y-128506189D01*
X159295689Y-128581571D01*
X159179770Y-128604628D01*
X159102493Y-128620000D01*
X158905507Y-128620000D01*
X158828230Y-128604628D01*
X158712311Y-128581571D01*
X158530322Y-128506189D01*
X158366537Y-128396751D01*
X158227249Y-128257463D01*
X158117811Y-128093678D01*
X158042429Y-127911689D01*
X158013172Y-127764603D01*
X158004000Y-127718493D01*
X158004000Y-127521507D01*
X158025071Y-127415575D01*
X158042429Y-127328311D01*
X158117811Y-127146322D01*
X158227249Y-126982537D01*
X158366537Y-126843249D01*
X158530322Y-126733811D01*
X158712311Y-126658429D01*
X158828230Y-126635372D01*
X158905507Y-126620000D01*
X159102493Y-126620000D01*
X159179770Y-126635372D01*
X159179770Y-126635372D01*
G37*
G36*
X164259770Y-126635372D02*
X164375689Y-126658429D01*
X164557678Y-126733811D01*
X164721463Y-126843249D01*
X164860751Y-126982537D01*
X164970189Y-127146322D01*
X165045571Y-127328311D01*
X165062929Y-127415575D01*
X165084000Y-127521507D01*
X165084000Y-127718493D01*
X165074828Y-127764603D01*
X165045571Y-127911689D01*
X164970189Y-128093678D01*
X164860751Y-128257463D01*
X164721463Y-128396751D01*
X164557678Y-128506189D01*
X164375689Y-128581571D01*
X164259770Y-128604628D01*
X164182493Y-128620000D01*
X163985507Y-128620000D01*
X163908230Y-128604628D01*
X163792311Y-128581571D01*
X163610322Y-128506189D01*
X163446537Y-128396751D01*
X163307249Y-128257463D01*
X163197811Y-128093678D01*
X163122429Y-127911689D01*
X163093172Y-127764603D01*
X163084000Y-127718493D01*
X163084000Y-127521507D01*
X163105071Y-127415575D01*
X163122429Y-127328311D01*
X163197811Y-127146322D01*
X163307249Y-126982537D01*
X163446537Y-126843249D01*
X163610322Y-126733811D01*
X163792311Y-126658429D01*
X163908230Y-126635372D01*
X163985507Y-126620000D01*
X164182493Y-126620000D01*
X164259770Y-126635372D01*
X164259770Y-126635372D01*
G37*
G36*
X143939770Y-126635372D02*
X144055689Y-126658429D01*
X144237678Y-126733811D01*
X144401463Y-126843249D01*
X144540751Y-126982537D01*
X144650189Y-127146322D01*
X144725571Y-127328311D01*
X144742929Y-127415575D01*
X144764000Y-127521507D01*
X144764000Y-127718493D01*
X144754828Y-127764603D01*
X144725571Y-127911689D01*
X144650189Y-128093678D01*
X144540751Y-128257463D01*
X144401463Y-128396751D01*
X144237678Y-128506189D01*
X144055689Y-128581571D01*
X143939770Y-128604628D01*
X143862493Y-128620000D01*
X143665507Y-128620000D01*
X143588230Y-128604628D01*
X143472311Y-128581571D01*
X143290322Y-128506189D01*
X143126537Y-128396751D01*
X142987249Y-128257463D01*
X142877811Y-128093678D01*
X142802429Y-127911689D01*
X142773172Y-127764603D01*
X142764000Y-127718493D01*
X142764000Y-127521507D01*
X142785071Y-127415575D01*
X142802429Y-127328311D01*
X142877811Y-127146322D01*
X142987249Y-126982537D01*
X143126537Y-126843249D01*
X143290322Y-126733811D01*
X143472311Y-126658429D01*
X143588230Y-126635372D01*
X143665507Y-126620000D01*
X143862493Y-126620000D01*
X143939770Y-126635372D01*
X143939770Y-126635372D01*
G37*
G36*
X166799770Y-126635372D02*
X166915689Y-126658429D01*
X167097678Y-126733811D01*
X167261463Y-126843249D01*
X167400751Y-126982537D01*
X167510189Y-127146322D01*
X167585571Y-127328311D01*
X167602929Y-127415575D01*
X167624000Y-127521507D01*
X167624000Y-127718493D01*
X167614828Y-127764603D01*
X167585571Y-127911689D01*
X167510189Y-128093678D01*
X167400751Y-128257463D01*
X167261463Y-128396751D01*
X167097678Y-128506189D01*
X166915689Y-128581571D01*
X166799770Y-128604628D01*
X166722493Y-128620000D01*
X166525507Y-128620000D01*
X166448230Y-128604628D01*
X166332311Y-128581571D01*
X166150322Y-128506189D01*
X165986537Y-128396751D01*
X165847249Y-128257463D01*
X165737811Y-128093678D01*
X165662429Y-127911689D01*
X165633172Y-127764603D01*
X165624000Y-127718493D01*
X165624000Y-127521507D01*
X165645071Y-127415575D01*
X165662429Y-127328311D01*
X165737811Y-127146322D01*
X165847249Y-126982537D01*
X165986537Y-126843249D01*
X166150322Y-126733811D01*
X166332311Y-126658429D01*
X166448230Y-126635372D01*
X166525507Y-126620000D01*
X166722493Y-126620000D01*
X166799770Y-126635372D01*
X166799770Y-126635372D01*
G37*
G36*
X149019770Y-126635372D02*
X149135689Y-126658429D01*
X149317678Y-126733811D01*
X149481463Y-126843249D01*
X149620751Y-126982537D01*
X149730189Y-127146322D01*
X149805571Y-127328311D01*
X149822929Y-127415575D01*
X149844000Y-127521507D01*
X149844000Y-127718493D01*
X149834828Y-127764603D01*
X149805571Y-127911689D01*
X149730189Y-128093678D01*
X149620751Y-128257463D01*
X149481463Y-128396751D01*
X149317678Y-128506189D01*
X149135689Y-128581571D01*
X149019770Y-128604628D01*
X148942493Y-128620000D01*
X148745507Y-128620000D01*
X148668230Y-128604628D01*
X148552311Y-128581571D01*
X148370322Y-128506189D01*
X148206537Y-128396751D01*
X148067249Y-128257463D01*
X147957811Y-128093678D01*
X147882429Y-127911689D01*
X147853172Y-127764603D01*
X147844000Y-127718493D01*
X147844000Y-127521507D01*
X147865071Y-127415575D01*
X147882429Y-127328311D01*
X147957811Y-127146322D01*
X148067249Y-126982537D01*
X148206537Y-126843249D01*
X148370322Y-126733811D01*
X148552311Y-126658429D01*
X148668230Y-126635372D01*
X148745507Y-126620000D01*
X148942493Y-126620000D01*
X149019770Y-126635372D01*
X149019770Y-126635372D01*
G37*
G36*
X169339770Y-126635372D02*
X169455689Y-126658429D01*
X169637678Y-126733811D01*
X169801463Y-126843249D01*
X169940751Y-126982537D01*
X170050189Y-127146322D01*
X170125571Y-127328311D01*
X170142929Y-127415575D01*
X170164000Y-127521507D01*
X170164000Y-127718493D01*
X170154828Y-127764603D01*
X170125571Y-127911689D01*
X170050189Y-128093678D01*
X169940751Y-128257463D01*
X169801463Y-128396751D01*
X169637678Y-128506189D01*
X169455689Y-128581571D01*
X169339770Y-128604628D01*
X169262493Y-128620000D01*
X169065507Y-128620000D01*
X168988230Y-128604628D01*
X168872311Y-128581571D01*
X168690322Y-128506189D01*
X168526537Y-128396751D01*
X168387249Y-128257463D01*
X168277811Y-128093678D01*
X168202429Y-127911689D01*
X168173172Y-127764603D01*
X168164000Y-127718493D01*
X168164000Y-127521507D01*
X168185071Y-127415575D01*
X168202429Y-127328311D01*
X168277811Y-127146322D01*
X168387249Y-126982537D01*
X168526537Y-126843249D01*
X168690322Y-126733811D01*
X168872311Y-126658429D01*
X168988230Y-126635372D01*
X169065507Y-126620000D01*
X169262493Y-126620000D01*
X169339770Y-126635372D01*
X169339770Y-126635372D01*
G37*
G36*
X171879770Y-126635372D02*
X171995689Y-126658429D01*
X172177678Y-126733811D01*
X172341463Y-126843249D01*
X172480751Y-126982537D01*
X172590189Y-127146322D01*
X172665571Y-127328311D01*
X172682929Y-127415575D01*
X172704000Y-127521507D01*
X172704000Y-127718493D01*
X172694828Y-127764603D01*
X172665571Y-127911689D01*
X172590189Y-128093678D01*
X172480751Y-128257463D01*
X172341463Y-128396751D01*
X172177678Y-128506189D01*
X171995689Y-128581571D01*
X171879770Y-128604628D01*
X171802493Y-128620000D01*
X171605507Y-128620000D01*
X171528230Y-128604628D01*
X171412311Y-128581571D01*
X171230322Y-128506189D01*
X171066537Y-128396751D01*
X170927249Y-128257463D01*
X170817811Y-128093678D01*
X170742429Y-127911689D01*
X170713172Y-127764603D01*
X170704000Y-127718493D01*
X170704000Y-127521507D01*
X170725071Y-127415575D01*
X170742429Y-127328311D01*
X170817811Y-127146322D01*
X170927249Y-126982537D01*
X171066537Y-126843249D01*
X171230322Y-126733811D01*
X171412311Y-126658429D01*
X171528230Y-126635372D01*
X171605507Y-126620000D01*
X171802493Y-126620000D01*
X171879770Y-126635372D01*
X171879770Y-126635372D01*
G37*
G36*
X174419770Y-126635372D02*
X174535689Y-126658429D01*
X174717678Y-126733811D01*
X174881463Y-126843249D01*
X175020751Y-126982537D01*
X175130189Y-127146322D01*
X175205571Y-127328311D01*
X175222929Y-127415575D01*
X175244000Y-127521507D01*
X175244000Y-127718493D01*
X175234828Y-127764603D01*
X175205571Y-127911689D01*
X175130189Y-128093678D01*
X175020751Y-128257463D01*
X174881463Y-128396751D01*
X174717678Y-128506189D01*
X174535689Y-128581571D01*
X174419770Y-128604628D01*
X174342493Y-128620000D01*
X174145507Y-128620000D01*
X174068230Y-128604628D01*
X173952311Y-128581571D01*
X173770322Y-128506189D01*
X173606537Y-128396751D01*
X173467249Y-128257463D01*
X173357811Y-128093678D01*
X173282429Y-127911689D01*
X173253172Y-127764603D01*
X173244000Y-127718493D01*
X173244000Y-127521507D01*
X173265071Y-127415575D01*
X173282429Y-127328311D01*
X173357811Y-127146322D01*
X173467249Y-126982537D01*
X173606537Y-126843249D01*
X173770322Y-126733811D01*
X173952311Y-126658429D01*
X174068230Y-126635372D01*
X174145507Y-126620000D01*
X174342493Y-126620000D01*
X174419770Y-126635372D01*
X174419770Y-126635372D01*
G37*
G36*
X176959770Y-126635372D02*
X177075689Y-126658429D01*
X177257678Y-126733811D01*
X177421463Y-126843249D01*
X177560751Y-126982537D01*
X177670189Y-127146322D01*
X177745571Y-127328311D01*
X177762929Y-127415575D01*
X177784000Y-127521507D01*
X177784000Y-127718493D01*
X177774828Y-127764603D01*
X177745571Y-127911689D01*
X177670189Y-128093678D01*
X177560751Y-128257463D01*
X177421463Y-128396751D01*
X177257678Y-128506189D01*
X177075689Y-128581571D01*
X176959770Y-128604628D01*
X176882493Y-128620000D01*
X176685507Y-128620000D01*
X176608230Y-128604628D01*
X176492311Y-128581571D01*
X176310322Y-128506189D01*
X176146537Y-128396751D01*
X176007249Y-128257463D01*
X175897811Y-128093678D01*
X175822429Y-127911689D01*
X175793172Y-127764603D01*
X175784000Y-127718493D01*
X175784000Y-127521507D01*
X175805071Y-127415575D01*
X175822429Y-127328311D01*
X175897811Y-127146322D01*
X176007249Y-126982537D01*
X176146537Y-126843249D01*
X176310322Y-126733811D01*
X176492311Y-126658429D01*
X176608230Y-126635372D01*
X176685507Y-126620000D01*
X176882493Y-126620000D01*
X176959770Y-126635372D01*
X176959770Y-126635372D01*
G37*
G36*
X161719770Y-126635372D02*
X161835689Y-126658429D01*
X162017678Y-126733811D01*
X162181463Y-126843249D01*
X162320751Y-126982537D01*
X162430189Y-127146322D01*
X162505571Y-127328311D01*
X162522929Y-127415575D01*
X162544000Y-127521507D01*
X162544000Y-127718493D01*
X162534828Y-127764603D01*
X162505571Y-127911689D01*
X162430189Y-128093678D01*
X162320751Y-128257463D01*
X162181463Y-128396751D01*
X162017678Y-128506189D01*
X161835689Y-128581571D01*
X161719770Y-128604628D01*
X161642493Y-128620000D01*
X161445507Y-128620000D01*
X161368230Y-128604628D01*
X161252311Y-128581571D01*
X161070322Y-128506189D01*
X160906537Y-128396751D01*
X160767249Y-128257463D01*
X160657811Y-128093678D01*
X160582429Y-127911689D01*
X160553172Y-127764603D01*
X160544000Y-127718493D01*
X160544000Y-127521507D01*
X160565071Y-127415575D01*
X160582429Y-127328311D01*
X160657811Y-127146322D01*
X160767249Y-126982537D01*
X160906537Y-126843249D01*
X161070322Y-126733811D01*
X161252311Y-126658429D01*
X161368230Y-126635372D01*
X161445507Y-126620000D01*
X161642493Y-126620000D01*
X161719770Y-126635372D01*
X161719770Y-126635372D01*
G37*
G36*
X143939770Y-124095372D02*
X144055689Y-124118429D01*
X144237678Y-124193811D01*
X144401463Y-124303249D01*
X144540751Y-124442537D01*
X144650189Y-124606322D01*
X144725571Y-124788311D01*
X144764000Y-124981509D01*
X144764000Y-125178491D01*
X144725571Y-125371689D01*
X144650189Y-125553678D01*
X144540751Y-125717463D01*
X144401463Y-125856751D01*
X144237678Y-125966189D01*
X144055689Y-126041571D01*
X143939770Y-126064628D01*
X143862493Y-126080000D01*
X143665507Y-126080000D01*
X143588230Y-126064628D01*
X143472311Y-126041571D01*
X143290322Y-125966189D01*
X143126537Y-125856751D01*
X142987249Y-125717463D01*
X142877811Y-125553678D01*
X142802429Y-125371689D01*
X142764000Y-125178491D01*
X142764000Y-124981509D01*
X142802429Y-124788311D01*
X142877811Y-124606322D01*
X142987249Y-124442537D01*
X143126537Y-124303249D01*
X143290322Y-124193811D01*
X143472311Y-124118429D01*
X143588230Y-124095372D01*
X143665507Y-124080000D01*
X143862493Y-124080000D01*
X143939770Y-124095372D01*
X143939770Y-124095372D01*
G37*
G36*
X174419770Y-124095372D02*
X174535689Y-124118429D01*
X174717678Y-124193811D01*
X174881463Y-124303249D01*
X175020751Y-124442537D01*
X175130189Y-124606322D01*
X175205571Y-124788311D01*
X175244000Y-124981509D01*
X175244000Y-125178491D01*
X175205571Y-125371689D01*
X175130189Y-125553678D01*
X175020751Y-125717463D01*
X174881463Y-125856751D01*
X174717678Y-125966189D01*
X174535689Y-126041571D01*
X174419770Y-126064628D01*
X174342493Y-126080000D01*
X174145507Y-126080000D01*
X174068230Y-126064628D01*
X173952311Y-126041571D01*
X173770322Y-125966189D01*
X173606537Y-125856751D01*
X173467249Y-125717463D01*
X173357811Y-125553678D01*
X173282429Y-125371689D01*
X173244000Y-125178491D01*
X173244000Y-124981509D01*
X173282429Y-124788311D01*
X173357811Y-124606322D01*
X173467249Y-124442537D01*
X173606537Y-124303249D01*
X173770322Y-124193811D01*
X173952311Y-124118429D01*
X174068230Y-124095372D01*
X174145507Y-124080000D01*
X174342493Y-124080000D01*
X174419770Y-124095372D01*
X174419770Y-124095372D01*
G37*
G36*
X127850000Y-122002860D02*
X127852402Y-122027246D01*
X127859515Y-122050695D01*
X127871066Y-122072306D01*
X127886612Y-122091248D01*
X127905554Y-122106794D01*
X127927165Y-122118345D01*
X127950614Y-122125458D01*
X127975000Y-122127860D01*
X127999386Y-122125458D01*
X128021250Y-122118826D01*
X128186281Y-122086000D01*
X128353719Y-122086000D01*
X128517933Y-122118664D01*
X128517935Y-122118665D01*
X128517936Y-122118665D01*
X128557372Y-122135000D01*
X128588624Y-122147945D01*
X128612073Y-122155058D01*
X128636459Y-122157460D01*
X128660846Y-122155058D01*
X128684295Y-122147945D01*
X128705906Y-122136394D01*
X128724848Y-122120849D01*
X128740393Y-122101907D01*
X128751945Y-122080296D01*
X128759058Y-122056847D01*
X128761460Y-122032461D01*
X128759058Y-122008074D01*
X128751945Y-121984624D01*
X128722664Y-121913933D01*
X128690000Y-121749719D01*
X128690000Y-121582281D01*
X128722664Y-121418066D01*
X128786740Y-121263373D01*
X128879764Y-121124153D01*
X128998153Y-121005764D01*
X129137373Y-120912740D01*
X129292066Y-120848664D01*
X129456281Y-120816000D01*
X129623719Y-120816000D01*
X129787934Y-120848664D01*
X129942627Y-120912740D01*
X130081847Y-121005764D01*
X130200236Y-121124153D01*
X130293260Y-121263373D01*
X130357336Y-121418066D01*
X130390000Y-121582281D01*
X130390000Y-121749719D01*
X130357336Y-121913934D01*
X130293260Y-122068627D01*
X130200236Y-122207847D01*
X130081847Y-122326236D01*
X129942627Y-122419260D01*
X129787934Y-122483336D01*
X129623719Y-122516000D01*
X129456281Y-122516000D01*
X129292067Y-122483336D01*
X129292065Y-122483335D01*
X129292064Y-122483335D01*
X129221377Y-122454055D01*
X129197927Y-122446942D01*
X129173541Y-122444540D01*
X129149154Y-122446942D01*
X129125705Y-122454055D01*
X129104094Y-122465606D01*
X129085152Y-122481151D01*
X129069607Y-122500093D01*
X129058055Y-122521704D01*
X129050942Y-122545153D01*
X129048540Y-122569539D01*
X129050942Y-122593926D01*
X129058055Y-122617376D01*
X129087336Y-122688067D01*
X129120000Y-122852281D01*
X129120000Y-123019719D01*
X129087336Y-123183934D01*
X129023260Y-123338627D01*
X128930236Y-123477847D01*
X128811847Y-123596236D01*
X128672627Y-123689260D01*
X128517934Y-123753336D01*
X128353719Y-123786000D01*
X128186281Y-123786000D01*
X128022066Y-123753336D01*
X127867373Y-123689260D01*
X127728153Y-123596236D01*
X127609764Y-123477847D01*
X127516740Y-123338627D01*
X127452664Y-123183934D01*
X127420000Y-123019719D01*
X127420000Y-122852281D01*
X127452826Y-122687250D01*
X127459458Y-122665387D01*
X127461860Y-122641001D01*
X127459458Y-122616615D01*
X127452345Y-122593165D01*
X127440794Y-122571555D01*
X127425249Y-122552612D01*
X127406307Y-122537067D01*
X127384696Y-122525515D01*
X127361247Y-122518402D01*
X127336860Y-122516000D01*
X126150000Y-122516000D01*
X126150000Y-120816000D01*
X127850000Y-120816000D01*
X127850000Y-122002860D01*
X127850000Y-122002860D01*
G37*
G36*
X135960134Y-119375464D02*
X136114827Y-119439540D01*
X136254047Y-119532564D01*
X136372436Y-119650953D01*
X136465460Y-119790173D01*
X136529536Y-119944866D01*
X136562200Y-120109081D01*
X136562200Y-120276519D01*
X136529536Y-120440733D01*
X136529535Y-120440735D01*
X136529535Y-120440736D01*
X136517476Y-120469849D01*
X136500255Y-120511424D01*
X136493142Y-120534873D01*
X136490740Y-120559259D01*
X136493142Y-120583646D01*
X136500255Y-120607095D01*
X136511806Y-120628706D01*
X136527351Y-120647648D01*
X136546293Y-120663193D01*
X136567904Y-120674745D01*
X136591353Y-120681858D01*
X136615739Y-120684260D01*
X136640126Y-120681858D01*
X136663576Y-120674745D01*
X136729291Y-120647525D01*
X136734264Y-120645465D01*
X136734265Y-120645465D01*
X136734267Y-120645464D01*
X136898481Y-120612800D01*
X137065919Y-120612800D01*
X137230134Y-120645464D01*
X137384827Y-120709540D01*
X137524047Y-120802564D01*
X137642436Y-120920953D01*
X137735460Y-121060173D01*
X137799536Y-121214866D01*
X137832200Y-121379081D01*
X137832200Y-121546519D01*
X137799536Y-121710734D01*
X137735460Y-121865427D01*
X137642436Y-122004647D01*
X137524047Y-122123036D01*
X137384827Y-122216060D01*
X137230134Y-122280136D01*
X137065919Y-122312800D01*
X136898481Y-122312800D01*
X136733450Y-122279974D01*
X136711587Y-122273342D01*
X136687201Y-122270940D01*
X136662815Y-122273342D01*
X136639365Y-122280455D01*
X136617755Y-122292006D01*
X136598812Y-122307551D01*
X136583267Y-122326493D01*
X136571715Y-122348104D01*
X136564602Y-122371553D01*
X136562200Y-122395940D01*
X136562200Y-123582800D01*
X134862200Y-123582800D01*
X134862200Y-121882800D01*
X136049060Y-121882800D01*
X136073446Y-121880398D01*
X136096895Y-121873285D01*
X136118506Y-121861734D01*
X136137448Y-121846188D01*
X136152994Y-121827246D01*
X136164545Y-121805635D01*
X136171658Y-121782186D01*
X136174060Y-121757800D01*
X136171658Y-121733414D01*
X136165026Y-121711550D01*
X136132200Y-121546519D01*
X136132200Y-121379081D01*
X136164864Y-121214867D01*
X136194145Y-121144176D01*
X136201258Y-121120727D01*
X136203660Y-121096341D01*
X136201258Y-121071954D01*
X136194145Y-121048505D01*
X136182594Y-121026894D01*
X136167049Y-121007952D01*
X136148107Y-120992407D01*
X136126496Y-120980855D01*
X136103047Y-120973742D01*
X136078661Y-120971340D01*
X136054274Y-120973742D01*
X136030823Y-120980855D01*
X135960136Y-121010135D01*
X135960135Y-121010135D01*
X135960133Y-121010136D01*
X135795919Y-121042800D01*
X135628481Y-121042800D01*
X135464266Y-121010136D01*
X135309573Y-120946060D01*
X135170353Y-120853036D01*
X135051964Y-120734647D01*
X134958940Y-120595427D01*
X134894864Y-120440734D01*
X134862200Y-120276519D01*
X134862200Y-120109081D01*
X134894864Y-119944866D01*
X134958940Y-119790173D01*
X135051964Y-119650953D01*
X135170353Y-119532564D01*
X135309573Y-119439540D01*
X135464266Y-119375464D01*
X135628481Y-119342800D01*
X135795919Y-119342800D01*
X135960134Y-119375464D01*
X135960134Y-119375464D01*
G37*
G36*
X143939770Y-121555372D02*
X144055689Y-121578429D01*
X144237678Y-121653811D01*
X144401463Y-121763249D01*
X144540751Y-121902537D01*
X144650189Y-122066322D01*
X144725571Y-122248311D01*
X144741071Y-122326236D01*
X144764000Y-122441507D01*
X144764000Y-122638493D01*
X144754139Y-122688067D01*
X144725571Y-122831689D01*
X144650189Y-123013678D01*
X144540751Y-123177463D01*
X144401463Y-123316751D01*
X144237678Y-123426189D01*
X144055689Y-123501571D01*
X143939770Y-123524628D01*
X143862493Y-123540000D01*
X143665507Y-123540000D01*
X143588230Y-123524628D01*
X143472311Y-123501571D01*
X143290322Y-123426189D01*
X143126537Y-123316751D01*
X142987249Y-123177463D01*
X142877811Y-123013678D01*
X142802429Y-122831689D01*
X142773861Y-122688067D01*
X142764000Y-122638493D01*
X142764000Y-122441507D01*
X142786929Y-122326236D01*
X142802429Y-122248311D01*
X142877811Y-122066322D01*
X142987249Y-121902537D01*
X143126537Y-121763249D01*
X143290322Y-121653811D01*
X143472311Y-121578429D01*
X143588230Y-121555372D01*
X143665507Y-121540000D01*
X143862493Y-121540000D01*
X143939770Y-121555372D01*
X143939770Y-121555372D01*
G37*
G36*
X185535940Y-120570360D02*
X184349080Y-120570360D01*
X184324694Y-120572762D01*
X184301245Y-120579875D01*
X184279634Y-120591426D01*
X184260692Y-120606972D01*
X184245146Y-120625914D01*
X184233595Y-120647525D01*
X184226482Y-120670974D01*
X184224080Y-120695360D01*
X184226482Y-120719746D01*
X184233114Y-120741610D01*
X184265940Y-120906641D01*
X184265940Y-121074079D01*
X184233276Y-121238293D01*
X184203995Y-121308984D01*
X184196882Y-121332433D01*
X184194480Y-121356819D01*
X184196882Y-121381206D01*
X184203995Y-121404655D01*
X184215546Y-121426266D01*
X184231091Y-121445208D01*
X184250033Y-121460753D01*
X184271644Y-121472305D01*
X184295093Y-121479418D01*
X184319479Y-121481820D01*
X184343866Y-121479418D01*
X184367316Y-121472305D01*
X184432734Y-121445208D01*
X184438004Y-121443025D01*
X184438005Y-121443025D01*
X184438007Y-121443024D01*
X184602221Y-121410360D01*
X184769659Y-121410360D01*
X184933874Y-121443024D01*
X185088567Y-121507100D01*
X185227787Y-121600124D01*
X185346176Y-121718513D01*
X185439200Y-121857733D01*
X185503276Y-122012426D01*
X185535940Y-122176641D01*
X185535940Y-122344079D01*
X185503276Y-122508294D01*
X185439200Y-122662987D01*
X185346176Y-122802207D01*
X185227787Y-122920596D01*
X185088567Y-123013620D01*
X184933874Y-123077696D01*
X184769659Y-123110360D01*
X184602221Y-123110360D01*
X184438006Y-123077696D01*
X184283313Y-123013620D01*
X184144093Y-122920596D01*
X184025704Y-122802207D01*
X183932680Y-122662987D01*
X183868604Y-122508294D01*
X183835940Y-122344079D01*
X183835940Y-122176641D01*
X183868604Y-122012427D01*
X183871827Y-122004647D01*
X183897885Y-121941736D01*
X183904998Y-121918287D01*
X183907400Y-121893901D01*
X183904998Y-121869514D01*
X183897885Y-121846065D01*
X183886334Y-121824454D01*
X183870789Y-121805512D01*
X183851847Y-121789967D01*
X183830236Y-121778415D01*
X183806787Y-121771302D01*
X183782401Y-121768900D01*
X183758014Y-121771302D01*
X183734563Y-121778415D01*
X183663876Y-121807695D01*
X183663875Y-121807695D01*
X183663873Y-121807696D01*
X183499659Y-121840360D01*
X183332221Y-121840360D01*
X183168006Y-121807696D01*
X183013313Y-121743620D01*
X182874093Y-121650596D01*
X182755704Y-121532207D01*
X182662680Y-121392987D01*
X182598604Y-121238294D01*
X182565940Y-121074079D01*
X182565940Y-120906641D01*
X182598604Y-120742426D01*
X182662680Y-120587733D01*
X182755704Y-120448513D01*
X182874093Y-120330124D01*
X183013313Y-120237100D01*
X183168006Y-120173024D01*
X183332221Y-120140360D01*
X183499659Y-120140360D01*
X183664690Y-120173186D01*
X183686553Y-120179818D01*
X183710939Y-120182220D01*
X183735325Y-120179818D01*
X183758775Y-120172705D01*
X183780385Y-120161154D01*
X183799328Y-120145609D01*
X183814873Y-120126667D01*
X183826425Y-120105056D01*
X183833538Y-120081607D01*
X183835940Y-120057220D01*
X183835940Y-118870360D01*
X185535940Y-118870360D01*
X185535940Y-120570360D01*
X185535940Y-120570360D01*
G37*
G36*
X192017934Y-119197664D02*
X192172627Y-119261740D01*
X192311847Y-119354764D01*
X192430236Y-119473153D01*
X192523260Y-119612373D01*
X192587336Y-119767066D01*
X192620000Y-119931281D01*
X192620000Y-120098719D01*
X192587174Y-120263750D01*
X192580542Y-120285613D01*
X192578140Y-120309999D01*
X192580542Y-120334385D01*
X192587655Y-120357835D01*
X192599206Y-120379445D01*
X192614751Y-120398388D01*
X192633693Y-120413933D01*
X192655304Y-120425485D01*
X192678753Y-120432598D01*
X192703140Y-120435000D01*
X193890000Y-120435000D01*
X193890000Y-122135000D01*
X192190000Y-122135000D01*
X192190000Y-120948140D01*
X192187598Y-120923754D01*
X192180485Y-120900305D01*
X192168934Y-120878694D01*
X192153388Y-120859752D01*
X192134446Y-120844206D01*
X192112835Y-120832655D01*
X192089386Y-120825542D01*
X192065000Y-120823140D01*
X192040614Y-120825542D01*
X192018750Y-120832174D01*
X191853719Y-120865000D01*
X191686281Y-120865000D01*
X191522067Y-120832336D01*
X191522065Y-120832335D01*
X191522064Y-120832335D01*
X191451377Y-120803055D01*
X191427927Y-120795942D01*
X191403541Y-120793540D01*
X191379154Y-120795942D01*
X191355705Y-120803055D01*
X191334094Y-120814606D01*
X191315152Y-120830151D01*
X191299607Y-120849093D01*
X191288055Y-120870704D01*
X191280942Y-120894153D01*
X191278540Y-120918539D01*
X191280942Y-120942926D01*
X191288055Y-120966376D01*
X191306181Y-121010135D01*
X191317336Y-121037067D01*
X191350000Y-121201281D01*
X191350000Y-121368719D01*
X191317336Y-121532934D01*
X191253260Y-121687627D01*
X191160236Y-121826847D01*
X191041847Y-121945236D01*
X190902627Y-122038260D01*
X190747934Y-122102336D01*
X190583719Y-122135000D01*
X190416281Y-122135000D01*
X190252066Y-122102336D01*
X190097373Y-122038260D01*
X189958153Y-121945236D01*
X189839764Y-121826847D01*
X189746740Y-121687627D01*
X189682664Y-121532934D01*
X189650000Y-121368719D01*
X189650000Y-121201281D01*
X189682664Y-121037066D01*
X189746740Y-120882373D01*
X189839764Y-120743153D01*
X189958153Y-120624764D01*
X190097373Y-120531740D01*
X190252066Y-120467664D01*
X190416281Y-120435000D01*
X190583719Y-120435000D01*
X190747933Y-120467664D01*
X190747935Y-120467665D01*
X190747936Y-120467665D01*
X190790737Y-120485394D01*
X190818624Y-120496945D01*
X190842073Y-120504058D01*
X190866459Y-120506460D01*
X190890846Y-120504058D01*
X190914295Y-120496945D01*
X190935906Y-120485394D01*
X190954848Y-120469849D01*
X190970393Y-120450907D01*
X190981945Y-120429296D01*
X190989058Y-120405847D01*
X190991460Y-120381461D01*
X190989058Y-120357074D01*
X190981945Y-120333624D01*
X190952664Y-120262933D01*
X190920000Y-120098719D01*
X190920000Y-119931281D01*
X190952664Y-119767066D01*
X191016740Y-119612373D01*
X191109764Y-119473153D01*
X191228153Y-119354764D01*
X191367373Y-119261740D01*
X191522066Y-119197664D01*
X191686281Y-119165000D01*
X191853719Y-119165000D01*
X192017934Y-119197664D01*
X192017934Y-119197664D01*
G37*
G36*
X143939770Y-119015372D02*
X144055689Y-119038429D01*
X144237678Y-119113811D01*
X144401463Y-119223249D01*
X144540751Y-119362537D01*
X144650189Y-119526322D01*
X144725571Y-119708311D01*
X144737258Y-119767066D01*
X144764000Y-119901507D01*
X144764000Y-120098493D01*
X144758396Y-120126667D01*
X144725571Y-120291689D01*
X144650189Y-120473678D01*
X144540751Y-120637463D01*
X144401463Y-120776751D01*
X144237678Y-120886189D01*
X144055689Y-120961571D01*
X143939770Y-120984628D01*
X143862493Y-121000000D01*
X143665507Y-121000000D01*
X143588230Y-120984628D01*
X143472311Y-120961571D01*
X143290322Y-120886189D01*
X143126537Y-120776751D01*
X142987249Y-120637463D01*
X142877811Y-120473678D01*
X142802429Y-120291689D01*
X142769604Y-120126667D01*
X142764000Y-120098493D01*
X142764000Y-119901507D01*
X142790742Y-119767066D01*
X142802429Y-119708311D01*
X142877811Y-119526322D01*
X142987249Y-119362537D01*
X143126537Y-119223249D01*
X143290322Y-119113811D01*
X143472311Y-119038429D01*
X143588230Y-119015372D01*
X143665507Y-119000000D01*
X143862493Y-119000000D01*
X143939770Y-119015372D01*
X143939770Y-119015372D01*
G37*
G36*
X143939770Y-116475372D02*
X144055689Y-116498429D01*
X144237678Y-116573811D01*
X144401463Y-116683249D01*
X144540751Y-116822537D01*
X144650189Y-116986322D01*
X144725571Y-117168311D01*
X144764000Y-117361509D01*
X144764000Y-117558491D01*
X144725571Y-117751689D01*
X144650189Y-117933678D01*
X144540751Y-118097463D01*
X144401463Y-118236751D01*
X144237678Y-118346189D01*
X144055689Y-118421571D01*
X143939770Y-118444628D01*
X143862493Y-118460000D01*
X143665507Y-118460000D01*
X143588230Y-118444628D01*
X143472311Y-118421571D01*
X143290322Y-118346189D01*
X143126537Y-118236751D01*
X142987249Y-118097463D01*
X142877811Y-117933678D01*
X142802429Y-117751689D01*
X142764000Y-117558491D01*
X142764000Y-117361509D01*
X142802429Y-117168311D01*
X142877811Y-116986322D01*
X142987249Y-116822537D01*
X143126537Y-116683249D01*
X143290322Y-116573811D01*
X143472311Y-116498429D01*
X143588230Y-116475372D01*
X143665507Y-116460000D01*
X143862493Y-116460000D01*
X143939770Y-116475372D01*
X143939770Y-116475372D01*
G37*
G36*
X125926030Y-114584469D02*
X125926033Y-114584470D01*
X125926034Y-114584470D01*
X126114535Y-114641651D01*
X126114537Y-114641652D01*
X126288260Y-114734509D01*
X126440528Y-114859472D01*
X126565491Y-115011740D01*
X126658348Y-115185463D01*
X126715531Y-115373970D01*
X126734838Y-115570000D01*
X126715531Y-115766030D01*
X126658348Y-115954537D01*
X126565491Y-116128260D01*
X126440528Y-116280528D01*
X126288260Y-116405491D01*
X126288258Y-116405492D01*
X126114535Y-116498349D01*
X125926034Y-116555530D01*
X125926033Y-116555530D01*
X125926030Y-116555531D01*
X125779124Y-116570000D01*
X125680876Y-116570000D01*
X125533970Y-116555531D01*
X125533967Y-116555530D01*
X125533966Y-116555530D01*
X125345465Y-116498349D01*
X125171742Y-116405492D01*
X125171740Y-116405491D01*
X125019472Y-116280528D01*
X124894509Y-116128260D01*
X124801652Y-115954537D01*
X124744469Y-115766030D01*
X124725162Y-115570000D01*
X124744469Y-115373970D01*
X124801652Y-115185463D01*
X124894509Y-115011740D01*
X125019472Y-114859472D01*
X125171740Y-114734509D01*
X125345463Y-114641652D01*
X125345465Y-114641651D01*
X125533966Y-114584470D01*
X125533967Y-114584470D01*
X125533970Y-114584469D01*
X125680876Y-114570000D01*
X125779124Y-114570000D01*
X125926030Y-114584469D01*
X125926030Y-114584469D01*
G37*
G36*
X129080770Y-114585372D02*
X129196689Y-114608429D01*
X129378678Y-114683811D01*
X129542463Y-114793249D01*
X129681751Y-114932537D01*
X129791189Y-115096322D01*
X129866571Y-115278311D01*
X129905000Y-115471509D01*
X129905000Y-115668491D01*
X129866571Y-115861689D01*
X129791189Y-116043678D01*
X129681751Y-116207463D01*
X129542463Y-116346751D01*
X129378678Y-116456189D01*
X129196689Y-116531571D01*
X129080770Y-116554628D01*
X129003493Y-116570000D01*
X128806507Y-116570000D01*
X128729230Y-116554628D01*
X128613311Y-116531571D01*
X128431322Y-116456189D01*
X128267537Y-116346751D01*
X128128249Y-116207463D01*
X128018811Y-116043678D01*
X127943429Y-115861689D01*
X127905000Y-115668491D01*
X127905000Y-115471509D01*
X127943429Y-115278311D01*
X128018811Y-115096322D01*
X128128249Y-114932537D01*
X128267537Y-114793249D01*
X128431322Y-114683811D01*
X128613311Y-114608429D01*
X128729230Y-114585372D01*
X128806507Y-114570000D01*
X129003493Y-114570000D01*
X129080770Y-114585372D01*
X129080770Y-114585372D01*
G37*
G36*
X132276030Y-114584469D02*
X132276033Y-114584470D01*
X132276034Y-114584470D01*
X132464535Y-114641651D01*
X132464537Y-114641652D01*
X132638260Y-114734509D01*
X132790528Y-114859472D01*
X132915491Y-115011740D01*
X133008348Y-115185463D01*
X133065531Y-115373970D01*
X133084838Y-115570000D01*
X133065531Y-115766030D01*
X133008348Y-115954537D01*
X132915491Y-116128260D01*
X132790528Y-116280528D01*
X132638260Y-116405491D01*
X132638258Y-116405492D01*
X132464535Y-116498349D01*
X132276034Y-116555530D01*
X132276033Y-116555530D01*
X132276030Y-116555531D01*
X132129124Y-116570000D01*
X132030876Y-116570000D01*
X131883970Y-116555531D01*
X131883967Y-116555530D01*
X131883966Y-116555530D01*
X131695465Y-116498349D01*
X131521742Y-116405492D01*
X131521740Y-116405491D01*
X131369472Y-116280528D01*
X131244509Y-116128260D01*
X131151652Y-115954537D01*
X131094469Y-115766030D01*
X131075162Y-115570000D01*
X131094469Y-115373970D01*
X131151652Y-115185463D01*
X131244509Y-115011740D01*
X131369472Y-114859472D01*
X131521740Y-114734509D01*
X131695463Y-114641652D01*
X131695465Y-114641651D01*
X131883966Y-114584470D01*
X131883967Y-114584470D01*
X131883970Y-114584469D01*
X132030876Y-114570000D01*
X132129124Y-114570000D01*
X132276030Y-114584469D01*
X132276030Y-114584469D01*
G37*
G36*
X194506030Y-114584469D02*
X194506033Y-114584470D01*
X194506034Y-114584470D01*
X194694535Y-114641651D01*
X194694537Y-114641652D01*
X194868260Y-114734509D01*
X195020528Y-114859472D01*
X195145491Y-115011740D01*
X195238348Y-115185463D01*
X195295531Y-115373970D01*
X195314838Y-115570000D01*
X195295531Y-115766030D01*
X195238348Y-115954537D01*
X195145491Y-116128260D01*
X195020528Y-116280528D01*
X194868260Y-116405491D01*
X194868258Y-116405492D01*
X194694535Y-116498349D01*
X194506034Y-116555530D01*
X194506033Y-116555530D01*
X194506030Y-116555531D01*
X194359124Y-116570000D01*
X194260876Y-116570000D01*
X194113970Y-116555531D01*
X194113967Y-116555530D01*
X194113966Y-116555530D01*
X193925465Y-116498349D01*
X193751742Y-116405492D01*
X193751740Y-116405491D01*
X193599472Y-116280528D01*
X193474509Y-116128260D01*
X193381652Y-115954537D01*
X193324469Y-115766030D01*
X193305162Y-115570000D01*
X193324469Y-115373970D01*
X193381652Y-115185463D01*
X193474509Y-115011740D01*
X193599472Y-114859472D01*
X193751740Y-114734509D01*
X193925463Y-114641652D01*
X193925465Y-114641651D01*
X194113966Y-114584470D01*
X194113967Y-114584470D01*
X194113970Y-114584469D01*
X194260876Y-114570000D01*
X194359124Y-114570000D01*
X194506030Y-114584469D01*
X194506030Y-114584469D01*
G37*
G36*
X135451030Y-114584469D02*
X135451033Y-114584470D01*
X135451034Y-114584470D01*
X135639535Y-114641651D01*
X135639537Y-114641652D01*
X135813260Y-114734509D01*
X135965528Y-114859472D01*
X136090491Y-115011740D01*
X136183348Y-115185463D01*
X136240531Y-115373970D01*
X136259838Y-115570000D01*
X136240531Y-115766030D01*
X136183348Y-115954537D01*
X136090491Y-116128260D01*
X135965528Y-116280528D01*
X135813260Y-116405491D01*
X135813258Y-116405492D01*
X135639535Y-116498349D01*
X135451034Y-116555530D01*
X135451033Y-116555530D01*
X135451030Y-116555531D01*
X135304124Y-116570000D01*
X135205876Y-116570000D01*
X135058970Y-116555531D01*
X135058967Y-116555530D01*
X135058966Y-116555530D01*
X134870465Y-116498349D01*
X134696742Y-116405492D01*
X134696740Y-116405491D01*
X134544472Y-116280528D01*
X134419509Y-116128260D01*
X134326652Y-115954537D01*
X134269469Y-115766030D01*
X134250162Y-115570000D01*
X134269469Y-115373970D01*
X134326652Y-115185463D01*
X134419509Y-115011740D01*
X134544472Y-114859472D01*
X134696740Y-114734509D01*
X134870463Y-114641652D01*
X134870465Y-114641651D01*
X135058966Y-114584470D01*
X135058967Y-114584470D01*
X135058970Y-114584469D01*
X135205876Y-114570000D01*
X135304124Y-114570000D01*
X135451030Y-114584469D01*
X135451030Y-114584469D01*
G37*
G36*
X191310770Y-114585372D02*
X191426689Y-114608429D01*
X191608678Y-114683811D01*
X191772463Y-114793249D01*
X191911751Y-114932537D01*
X192021189Y-115096322D01*
X192096571Y-115278311D01*
X192135000Y-115471509D01*
X192135000Y-115668491D01*
X192096571Y-115861689D01*
X192021189Y-116043678D01*
X191911751Y-116207463D01*
X191772463Y-116346751D01*
X191608678Y-116456189D01*
X191426689Y-116531571D01*
X191310770Y-116554628D01*
X191233493Y-116570000D01*
X191036507Y-116570000D01*
X190959230Y-116554628D01*
X190843311Y-116531571D01*
X190661322Y-116456189D01*
X190497537Y-116346751D01*
X190358249Y-116207463D01*
X190248811Y-116043678D01*
X190173429Y-115861689D01*
X190135000Y-115668491D01*
X190135000Y-115471509D01*
X190173429Y-115278311D01*
X190248811Y-115096322D01*
X190358249Y-114932537D01*
X190497537Y-114793249D01*
X190661322Y-114683811D01*
X190843311Y-114608429D01*
X190959230Y-114585372D01*
X191036507Y-114570000D01*
X191233493Y-114570000D01*
X191310770Y-114585372D01*
X191310770Y-114585372D01*
G37*
G36*
X184981030Y-114584469D02*
X184981033Y-114584470D01*
X184981034Y-114584470D01*
X185169535Y-114641651D01*
X185169537Y-114641652D01*
X185343260Y-114734509D01*
X185495528Y-114859472D01*
X185620491Y-115011740D01*
X185713348Y-115185463D01*
X185770531Y-115373970D01*
X185789838Y-115570000D01*
X185770531Y-115766030D01*
X185713348Y-115954537D01*
X185620491Y-116128260D01*
X185495528Y-116280528D01*
X185343260Y-116405491D01*
X185343258Y-116405492D01*
X185169535Y-116498349D01*
X184981034Y-116555530D01*
X184981033Y-116555530D01*
X184981030Y-116555531D01*
X184834124Y-116570000D01*
X184735876Y-116570000D01*
X184588970Y-116555531D01*
X184588967Y-116555530D01*
X184588966Y-116555530D01*
X184400465Y-116498349D01*
X184226742Y-116405492D01*
X184226740Y-116405491D01*
X184074472Y-116280528D01*
X183949509Y-116128260D01*
X183856652Y-115954537D01*
X183799469Y-115766030D01*
X183780162Y-115570000D01*
X183799469Y-115373970D01*
X183856652Y-115185463D01*
X183949509Y-115011740D01*
X184074472Y-114859472D01*
X184226740Y-114734509D01*
X184400463Y-114641652D01*
X184400465Y-114641651D01*
X184588966Y-114584470D01*
X184588967Y-114584470D01*
X184588970Y-114584469D01*
X184735876Y-114570000D01*
X184834124Y-114570000D01*
X184981030Y-114584469D01*
X184981030Y-114584469D01*
G37*
G36*
X188156030Y-114584469D02*
X188156033Y-114584470D01*
X188156034Y-114584470D01*
X188344535Y-114641651D01*
X188344537Y-114641652D01*
X188518260Y-114734509D01*
X188670528Y-114859472D01*
X188795491Y-115011740D01*
X188888348Y-115185463D01*
X188945531Y-115373970D01*
X188964838Y-115570000D01*
X188945531Y-115766030D01*
X188888348Y-115954537D01*
X188795491Y-116128260D01*
X188670528Y-116280528D01*
X188518260Y-116405491D01*
X188518258Y-116405492D01*
X188344535Y-116498349D01*
X188156034Y-116555530D01*
X188156033Y-116555530D01*
X188156030Y-116555531D01*
X188009124Y-116570000D01*
X187910876Y-116570000D01*
X187763970Y-116555531D01*
X187763967Y-116555530D01*
X187763966Y-116555530D01*
X187575465Y-116498349D01*
X187401742Y-116405492D01*
X187401740Y-116405491D01*
X187249472Y-116280528D01*
X187124509Y-116128260D01*
X187031652Y-115954537D01*
X186974469Y-115766030D01*
X186955162Y-115570000D01*
X186974469Y-115373970D01*
X187031652Y-115185463D01*
X187124509Y-115011740D01*
X187249472Y-114859472D01*
X187401740Y-114734509D01*
X187575463Y-114641652D01*
X187575465Y-114641651D01*
X187763966Y-114584470D01*
X187763967Y-114584470D01*
X187763970Y-114584469D01*
X187910876Y-114570000D01*
X188009124Y-114570000D01*
X188156030Y-114584469D01*
X188156030Y-114584469D01*
G37*
G36*
X143939770Y-113935372D02*
X144055689Y-113958429D01*
X144237678Y-114033811D01*
X144401463Y-114143249D01*
X144540751Y-114282537D01*
X144650189Y-114446322D01*
X144725571Y-114628311D01*
X144764000Y-114821509D01*
X144764000Y-115018491D01*
X144725571Y-115211689D01*
X144650189Y-115393678D01*
X144540751Y-115557463D01*
X144401463Y-115696751D01*
X144237678Y-115806189D01*
X144055689Y-115881571D01*
X143939770Y-115904628D01*
X143862493Y-115920000D01*
X143665507Y-115920000D01*
X143588230Y-115904628D01*
X143472311Y-115881571D01*
X143290322Y-115806189D01*
X143126537Y-115696751D01*
X142987249Y-115557463D01*
X142877811Y-115393678D01*
X142802429Y-115211689D01*
X142764000Y-115018491D01*
X142764000Y-114821509D01*
X142802429Y-114628311D01*
X142877811Y-114446322D01*
X142987249Y-114282537D01*
X143126537Y-114143249D01*
X143290322Y-114033811D01*
X143472311Y-113958429D01*
X143588230Y-113935372D01*
X143665507Y-113920000D01*
X143862493Y-113920000D01*
X143939770Y-113935372D01*
X143939770Y-113935372D01*
G37*
G36*
X176959770Y-111395372D02*
X177075689Y-111418429D01*
X177257678Y-111493811D01*
X177421463Y-111603249D01*
X177560751Y-111742537D01*
X177670189Y-111906322D01*
X177745571Y-112088311D01*
X177784000Y-112281509D01*
X177784000Y-112478491D01*
X177745571Y-112671689D01*
X177670189Y-112853678D01*
X177560751Y-113017463D01*
X177421463Y-113156751D01*
X177257678Y-113266189D01*
X177075689Y-113341571D01*
X176959770Y-113364628D01*
X176882493Y-113380000D01*
X176685507Y-113380000D01*
X176608230Y-113364628D01*
X176492311Y-113341571D01*
X176310322Y-113266189D01*
X176146537Y-113156751D01*
X176007249Y-113017463D01*
X175897811Y-112853678D01*
X175822429Y-112671689D01*
X175784000Y-112478491D01*
X175784000Y-112281509D01*
X175822429Y-112088311D01*
X175897811Y-111906322D01*
X176007249Y-111742537D01*
X176146537Y-111603249D01*
X176310322Y-111493811D01*
X176492311Y-111418429D01*
X176608230Y-111395372D01*
X176685507Y-111380000D01*
X176882493Y-111380000D01*
X176959770Y-111395372D01*
X176959770Y-111395372D01*
G37*
G36*
X169339770Y-111395372D02*
X169455689Y-111418429D01*
X169637678Y-111493811D01*
X169801463Y-111603249D01*
X169940751Y-111742537D01*
X170050189Y-111906322D01*
X170125571Y-112088311D01*
X170164000Y-112281509D01*
X170164000Y-112478491D01*
X170125571Y-112671689D01*
X170050189Y-112853678D01*
X169940751Y-113017463D01*
X169801463Y-113156751D01*
X169637678Y-113266189D01*
X169455689Y-113341571D01*
X169339770Y-113364628D01*
X169262493Y-113380000D01*
X169065507Y-113380000D01*
X168988230Y-113364628D01*
X168872311Y-113341571D01*
X168690322Y-113266189D01*
X168526537Y-113156751D01*
X168387249Y-113017463D01*
X168277811Y-112853678D01*
X168202429Y-112671689D01*
X168164000Y-112478491D01*
X168164000Y-112281509D01*
X168202429Y-112088311D01*
X168277811Y-111906322D01*
X168387249Y-111742537D01*
X168526537Y-111603249D01*
X168690322Y-111493811D01*
X168872311Y-111418429D01*
X168988230Y-111395372D01*
X169065507Y-111380000D01*
X169262493Y-111380000D01*
X169339770Y-111395372D01*
X169339770Y-111395372D01*
G37*
G36*
X166799770Y-111395372D02*
X166915689Y-111418429D01*
X167097678Y-111493811D01*
X167261463Y-111603249D01*
X167400751Y-111742537D01*
X167510189Y-111906322D01*
X167585571Y-112088311D01*
X167624000Y-112281509D01*
X167624000Y-112478491D01*
X167585571Y-112671689D01*
X167510189Y-112853678D01*
X167400751Y-113017463D01*
X167261463Y-113156751D01*
X167097678Y-113266189D01*
X166915689Y-113341571D01*
X166799770Y-113364628D01*
X166722493Y-113380000D01*
X166525507Y-113380000D01*
X166448230Y-113364628D01*
X166332311Y-113341571D01*
X166150322Y-113266189D01*
X165986537Y-113156751D01*
X165847249Y-113017463D01*
X165737811Y-112853678D01*
X165662429Y-112671689D01*
X165624000Y-112478491D01*
X165624000Y-112281509D01*
X165662429Y-112088311D01*
X165737811Y-111906322D01*
X165847249Y-111742537D01*
X165986537Y-111603249D01*
X166150322Y-111493811D01*
X166332311Y-111418429D01*
X166448230Y-111395372D01*
X166525507Y-111380000D01*
X166722493Y-111380000D01*
X166799770Y-111395372D01*
X166799770Y-111395372D01*
G37*
G36*
X164259770Y-111395372D02*
X164375689Y-111418429D01*
X164557678Y-111493811D01*
X164721463Y-111603249D01*
X164860751Y-111742537D01*
X164970189Y-111906322D01*
X165045571Y-112088311D01*
X165084000Y-112281509D01*
X165084000Y-112478491D01*
X165045571Y-112671689D01*
X164970189Y-112853678D01*
X164860751Y-113017463D01*
X164721463Y-113156751D01*
X164557678Y-113266189D01*
X164375689Y-113341571D01*
X164259770Y-113364628D01*
X164182493Y-113380000D01*
X163985507Y-113380000D01*
X163908230Y-113364628D01*
X163792311Y-113341571D01*
X163610322Y-113266189D01*
X163446537Y-113156751D01*
X163307249Y-113017463D01*
X163197811Y-112853678D01*
X163122429Y-112671689D01*
X163084000Y-112478491D01*
X163084000Y-112281509D01*
X163122429Y-112088311D01*
X163197811Y-111906322D01*
X163307249Y-111742537D01*
X163446537Y-111603249D01*
X163610322Y-111493811D01*
X163792311Y-111418429D01*
X163908230Y-111395372D01*
X163985507Y-111380000D01*
X164182493Y-111380000D01*
X164259770Y-111395372D01*
X164259770Y-111395372D01*
G37*
G36*
X161719770Y-111395372D02*
X161835689Y-111418429D01*
X162017678Y-111493811D01*
X162181463Y-111603249D01*
X162320751Y-111742537D01*
X162430189Y-111906322D01*
X162505571Y-112088311D01*
X162544000Y-112281509D01*
X162544000Y-112478491D01*
X162505571Y-112671689D01*
X162430189Y-112853678D01*
X162320751Y-113017463D01*
X162181463Y-113156751D01*
X162017678Y-113266189D01*
X161835689Y-113341571D01*
X161719770Y-113364628D01*
X161642493Y-113380000D01*
X161445507Y-113380000D01*
X161368230Y-113364628D01*
X161252311Y-113341571D01*
X161070322Y-113266189D01*
X160906537Y-113156751D01*
X160767249Y-113017463D01*
X160657811Y-112853678D01*
X160582429Y-112671689D01*
X160544000Y-112478491D01*
X160544000Y-112281509D01*
X160582429Y-112088311D01*
X160657811Y-111906322D01*
X160767249Y-111742537D01*
X160906537Y-111603249D01*
X161070322Y-111493811D01*
X161252311Y-111418429D01*
X161368230Y-111395372D01*
X161445507Y-111380000D01*
X161642493Y-111380000D01*
X161719770Y-111395372D01*
X161719770Y-111395372D01*
G37*
G36*
X159179770Y-111395372D02*
X159295689Y-111418429D01*
X159477678Y-111493811D01*
X159641463Y-111603249D01*
X159780751Y-111742537D01*
X159890189Y-111906322D01*
X159965571Y-112088311D01*
X160004000Y-112281509D01*
X160004000Y-112478491D01*
X159965571Y-112671689D01*
X159890189Y-112853678D01*
X159780751Y-113017463D01*
X159641463Y-113156751D01*
X159477678Y-113266189D01*
X159295689Y-113341571D01*
X159179770Y-113364628D01*
X159102493Y-113380000D01*
X158905507Y-113380000D01*
X158828230Y-113364628D01*
X158712311Y-113341571D01*
X158530322Y-113266189D01*
X158366537Y-113156751D01*
X158227249Y-113017463D01*
X158117811Y-112853678D01*
X158042429Y-112671689D01*
X158004000Y-112478491D01*
X158004000Y-112281509D01*
X158042429Y-112088311D01*
X158117811Y-111906322D01*
X158227249Y-111742537D01*
X158366537Y-111603249D01*
X158530322Y-111493811D01*
X158712311Y-111418429D01*
X158828230Y-111395372D01*
X158905507Y-111380000D01*
X159102493Y-111380000D01*
X159179770Y-111395372D01*
X159179770Y-111395372D01*
G37*
G36*
X156639770Y-111395372D02*
X156755689Y-111418429D01*
X156937678Y-111493811D01*
X157101463Y-111603249D01*
X157240751Y-111742537D01*
X157350189Y-111906322D01*
X157425571Y-112088311D01*
X157464000Y-112281509D01*
X157464000Y-112478491D01*
X157425571Y-112671689D01*
X157350189Y-112853678D01*
X157240751Y-113017463D01*
X157101463Y-113156751D01*
X156937678Y-113266189D01*
X156755689Y-113341571D01*
X156639770Y-113364628D01*
X156562493Y-113380000D01*
X156365507Y-113380000D01*
X156288230Y-113364628D01*
X156172311Y-113341571D01*
X155990322Y-113266189D01*
X155826537Y-113156751D01*
X155687249Y-113017463D01*
X155577811Y-112853678D01*
X155502429Y-112671689D01*
X155464000Y-112478491D01*
X155464000Y-112281509D01*
X155502429Y-112088311D01*
X155577811Y-111906322D01*
X155687249Y-111742537D01*
X155826537Y-111603249D01*
X155990322Y-111493811D01*
X156172311Y-111418429D01*
X156288230Y-111395372D01*
X156365507Y-111380000D01*
X156562493Y-111380000D01*
X156639770Y-111395372D01*
X156639770Y-111395372D01*
G37*
G36*
X151559770Y-111395372D02*
X151675689Y-111418429D01*
X151857678Y-111493811D01*
X152021463Y-111603249D01*
X152160751Y-111742537D01*
X152270189Y-111906322D01*
X152345571Y-112088311D01*
X152384000Y-112281509D01*
X152384000Y-112478491D01*
X152345571Y-112671689D01*
X152270189Y-112853678D01*
X152160751Y-113017463D01*
X152021463Y-113156751D01*
X151857678Y-113266189D01*
X151675689Y-113341571D01*
X151559770Y-113364628D01*
X151482493Y-113380000D01*
X151285507Y-113380000D01*
X151208230Y-113364628D01*
X151092311Y-113341571D01*
X150910322Y-113266189D01*
X150746537Y-113156751D01*
X150607249Y-113017463D01*
X150497811Y-112853678D01*
X150422429Y-112671689D01*
X150384000Y-112478491D01*
X150384000Y-112281509D01*
X150422429Y-112088311D01*
X150497811Y-111906322D01*
X150607249Y-111742537D01*
X150746537Y-111603249D01*
X150910322Y-111493811D01*
X151092311Y-111418429D01*
X151208230Y-111395372D01*
X151285507Y-111380000D01*
X151482493Y-111380000D01*
X151559770Y-111395372D01*
X151559770Y-111395372D01*
G37*
G36*
X154099770Y-111395372D02*
X154215689Y-111418429D01*
X154397678Y-111493811D01*
X154561463Y-111603249D01*
X154700751Y-111742537D01*
X154810189Y-111906322D01*
X154885571Y-112088311D01*
X154924000Y-112281509D01*
X154924000Y-112478491D01*
X154885571Y-112671689D01*
X154810189Y-112853678D01*
X154700751Y-113017463D01*
X154561463Y-113156751D01*
X154397678Y-113266189D01*
X154215689Y-113341571D01*
X154099770Y-113364628D01*
X154022493Y-113380000D01*
X153825507Y-113380000D01*
X153748230Y-113364628D01*
X153632311Y-113341571D01*
X153450322Y-113266189D01*
X153286537Y-113156751D01*
X153147249Y-113017463D01*
X153037811Y-112853678D01*
X152962429Y-112671689D01*
X152924000Y-112478491D01*
X152924000Y-112281509D01*
X152962429Y-112088311D01*
X153037811Y-111906322D01*
X153147249Y-111742537D01*
X153286537Y-111603249D01*
X153450322Y-111493811D01*
X153632311Y-111418429D01*
X153748230Y-111395372D01*
X153825507Y-111380000D01*
X154022493Y-111380000D01*
X154099770Y-111395372D01*
X154099770Y-111395372D01*
G37*
G36*
X143939770Y-111395372D02*
X144055689Y-111418429D01*
X144237678Y-111493811D01*
X144401463Y-111603249D01*
X144540751Y-111742537D01*
X144650189Y-111906322D01*
X144725571Y-112088311D01*
X144764000Y-112281509D01*
X144764000Y-112478491D01*
X144725571Y-112671689D01*
X144650189Y-112853678D01*
X144540751Y-113017463D01*
X144401463Y-113156751D01*
X144237678Y-113266189D01*
X144055689Y-113341571D01*
X143939770Y-113364628D01*
X143862493Y-113380000D01*
X143665507Y-113380000D01*
X143588230Y-113364628D01*
X143472311Y-113341571D01*
X143290322Y-113266189D01*
X143126537Y-113156751D01*
X142987249Y-113017463D01*
X142877811Y-112853678D01*
X142802429Y-112671689D01*
X142764000Y-112478491D01*
X142764000Y-112281509D01*
X142802429Y-112088311D01*
X142877811Y-111906322D01*
X142987249Y-111742537D01*
X143126537Y-111603249D01*
X143290322Y-111493811D01*
X143472311Y-111418429D01*
X143588230Y-111395372D01*
X143665507Y-111380000D01*
X143862493Y-111380000D01*
X143939770Y-111395372D01*
X143939770Y-111395372D01*
G37*
G36*
X171879770Y-111395372D02*
X171995689Y-111418429D01*
X172177678Y-111493811D01*
X172341463Y-111603249D01*
X172480751Y-111742537D01*
X172590189Y-111906322D01*
X172665571Y-112088311D01*
X172704000Y-112281509D01*
X172704000Y-112478491D01*
X172665571Y-112671689D01*
X172590189Y-112853678D01*
X172480751Y-113017463D01*
X172341463Y-113156751D01*
X172177678Y-113266189D01*
X171995689Y-113341571D01*
X171879770Y-113364628D01*
X171802493Y-113380000D01*
X171605507Y-113380000D01*
X171528230Y-113364628D01*
X171412311Y-113341571D01*
X171230322Y-113266189D01*
X171066537Y-113156751D01*
X170927249Y-113017463D01*
X170817811Y-112853678D01*
X170742429Y-112671689D01*
X170704000Y-112478491D01*
X170704000Y-112281509D01*
X170742429Y-112088311D01*
X170817811Y-111906322D01*
X170927249Y-111742537D01*
X171066537Y-111603249D01*
X171230322Y-111493811D01*
X171412311Y-111418429D01*
X171528230Y-111395372D01*
X171605507Y-111380000D01*
X171802493Y-111380000D01*
X171879770Y-111395372D01*
X171879770Y-111395372D01*
G37*
G36*
X146479770Y-111395372D02*
X146595689Y-111418429D01*
X146777678Y-111493811D01*
X146941463Y-111603249D01*
X147080751Y-111742537D01*
X147190189Y-111906322D01*
X147265571Y-112088311D01*
X147304000Y-112281509D01*
X147304000Y-112478491D01*
X147265571Y-112671689D01*
X147190189Y-112853678D01*
X147080751Y-113017463D01*
X146941463Y-113156751D01*
X146777678Y-113266189D01*
X146595689Y-113341571D01*
X146479770Y-113364628D01*
X146402493Y-113380000D01*
X146205507Y-113380000D01*
X146128230Y-113364628D01*
X146012311Y-113341571D01*
X145830322Y-113266189D01*
X145666537Y-113156751D01*
X145527249Y-113017463D01*
X145417811Y-112853678D01*
X145342429Y-112671689D01*
X145304000Y-112478491D01*
X145304000Y-112281509D01*
X145342429Y-112088311D01*
X145417811Y-111906322D01*
X145527249Y-111742537D01*
X145666537Y-111603249D01*
X145830322Y-111493811D01*
X146012311Y-111418429D01*
X146128230Y-111395372D01*
X146205507Y-111380000D01*
X146402493Y-111380000D01*
X146479770Y-111395372D01*
X146479770Y-111395372D01*
G37*
G36*
X174419770Y-111395372D02*
X174535689Y-111418429D01*
X174717678Y-111493811D01*
X174881463Y-111603249D01*
X175020751Y-111742537D01*
X175130189Y-111906322D01*
X175205571Y-112088311D01*
X175244000Y-112281509D01*
X175244000Y-112478491D01*
X175205571Y-112671689D01*
X175130189Y-112853678D01*
X175020751Y-113017463D01*
X174881463Y-113156751D01*
X174717678Y-113266189D01*
X174535689Y-113341571D01*
X174419770Y-113364628D01*
X174342493Y-113380000D01*
X174145507Y-113380000D01*
X174068230Y-113364628D01*
X173952311Y-113341571D01*
X173770322Y-113266189D01*
X173606537Y-113156751D01*
X173467249Y-113017463D01*
X173357811Y-112853678D01*
X173282429Y-112671689D01*
X173244000Y-112478491D01*
X173244000Y-112281509D01*
X173282429Y-112088311D01*
X173357811Y-111906322D01*
X173467249Y-111742537D01*
X173606537Y-111603249D01*
X173770322Y-111493811D01*
X173952311Y-111418429D01*
X174068230Y-111395372D01*
X174145507Y-111380000D01*
X174342493Y-111380000D01*
X174419770Y-111395372D01*
X174419770Y-111395372D01*
G37*
G36*
X149019770Y-111395372D02*
X149135689Y-111418429D01*
X149317678Y-111493811D01*
X149481463Y-111603249D01*
X149620751Y-111742537D01*
X149730189Y-111906322D01*
X149805571Y-112088311D01*
X149844000Y-112281509D01*
X149844000Y-112478491D01*
X149805571Y-112671689D01*
X149730189Y-112853678D01*
X149620751Y-113017463D01*
X149481463Y-113156751D01*
X149317678Y-113266189D01*
X149135689Y-113341571D01*
X149019770Y-113364628D01*
X148942493Y-113380000D01*
X148745507Y-113380000D01*
X148668230Y-113364628D01*
X148552311Y-113341571D01*
X148370322Y-113266189D01*
X148206537Y-113156751D01*
X148067249Y-113017463D01*
X147957811Y-112853678D01*
X147882429Y-112671689D01*
X147844000Y-112478491D01*
X147844000Y-112281509D01*
X147882429Y-112088311D01*
X147957811Y-111906322D01*
X148067249Y-111742537D01*
X148206537Y-111603249D01*
X148370322Y-111493811D01*
X148552311Y-111418429D01*
X148668230Y-111395372D01*
X148745507Y-111380000D01*
X148942493Y-111380000D01*
X149019770Y-111395372D01*
X149019770Y-111395372D01*
G37*
G36*
X181765122Y-104418115D02*
X181881041Y-104441173D01*
X182080546Y-104523811D01*
X182202940Y-104574508D01*
X182208620Y-104576861D01*
X182293010Y-104633249D01*
X182503436Y-104773851D01*
X182754149Y-105024564D01*
X182754151Y-105024567D01*
X182951139Y-105319380D01*
X183069874Y-105606030D01*
X183086827Y-105646960D01*
X183156000Y-105994714D01*
X183156000Y-106349286D01*
X183086827Y-106697040D01*
X182951140Y-107024618D01*
X182754149Y-107319436D01*
X182503436Y-107570149D01*
X182503433Y-107570151D01*
X182208620Y-107767139D01*
X181881041Y-107902827D01*
X181765122Y-107925885D01*
X181533286Y-107972000D01*
X181178714Y-107972000D01*
X180946878Y-107925885D01*
X180830959Y-107902827D01*
X180503380Y-107767139D01*
X180208567Y-107570151D01*
X180208564Y-107570149D01*
X179957851Y-107319436D01*
X179760860Y-107024618D01*
X179625173Y-106697040D01*
X179556000Y-106349286D01*
X179556000Y-105994714D01*
X179625173Y-105646960D01*
X179642127Y-105606030D01*
X179760861Y-105319380D01*
X179957849Y-105024567D01*
X179957851Y-105024564D01*
X180208564Y-104773851D01*
X180418990Y-104633249D01*
X180503380Y-104576861D01*
X180509061Y-104574508D01*
X180631454Y-104523811D01*
X180830959Y-104441173D01*
X180946878Y-104418115D01*
X181178714Y-104372000D01*
X181533286Y-104372000D01*
X181765122Y-104418115D01*
X181765122Y-104418115D01*
G37*
G36*
X141633122Y-104418115D02*
X141749041Y-104441173D01*
X141948546Y-104523811D01*
X142070940Y-104574508D01*
X142076620Y-104576861D01*
X142161010Y-104633249D01*
X142371436Y-104773851D01*
X142622149Y-105024564D01*
X142622151Y-105024567D01*
X142819139Y-105319380D01*
X142937874Y-105606030D01*
X142954827Y-105646960D01*
X143024000Y-105994714D01*
X143024000Y-106349286D01*
X142954827Y-106697040D01*
X142819140Y-107024618D01*
X142622149Y-107319436D01*
X142371436Y-107570149D01*
X142371433Y-107570151D01*
X142076620Y-107767139D01*
X141749041Y-107902827D01*
X141633122Y-107925885D01*
X141401286Y-107972000D01*
X141046714Y-107972000D01*
X140814878Y-107925885D01*
X140698959Y-107902827D01*
X140371380Y-107767139D01*
X140076567Y-107570151D01*
X140076564Y-107570149D01*
X139825851Y-107319436D01*
X139628860Y-107024618D01*
X139493173Y-106697040D01*
X139424000Y-106349286D01*
X139424000Y-105994714D01*
X139493173Y-105646960D01*
X139510127Y-105606030D01*
X139628861Y-105319380D01*
X139825849Y-105024567D01*
X139825851Y-105024564D01*
X140076564Y-104773851D01*
X140286990Y-104633249D01*
X140371380Y-104576861D01*
X140377061Y-104574508D01*
X140499454Y-104523811D01*
X140698959Y-104441173D01*
X140814878Y-104418115D01*
X141046714Y-104372000D01*
X141401286Y-104372000D01*
X141633122Y-104418115D01*
X141633122Y-104418115D01*
G37*
G36*
X129101030Y-104424469D02*
X129101033Y-104424470D01*
X129101034Y-104424470D01*
X129289535Y-104481651D01*
X129289537Y-104481652D01*
X129463260Y-104574509D01*
X129615528Y-104699472D01*
X129740491Y-104851740D01*
X129833348Y-105025463D01*
X129890531Y-105213970D01*
X129909838Y-105410000D01*
X129890531Y-105606030D01*
X129890530Y-105606033D01*
X129890530Y-105606034D01*
X129878116Y-105646959D01*
X129833348Y-105794537D01*
X129740491Y-105968260D01*
X129615528Y-106120528D01*
X129463260Y-106245491D01*
X129463258Y-106245492D01*
X129289535Y-106338349D01*
X129101034Y-106395530D01*
X129101033Y-106395530D01*
X129101030Y-106395531D01*
X128954124Y-106410000D01*
X128855876Y-106410000D01*
X128708970Y-106395531D01*
X128708967Y-106395530D01*
X128708966Y-106395530D01*
X128520465Y-106338349D01*
X128346742Y-106245492D01*
X128346740Y-106245491D01*
X128194472Y-106120528D01*
X128069509Y-105968260D01*
X127976652Y-105794537D01*
X127931885Y-105646959D01*
X127919470Y-105606034D01*
X127919470Y-105606033D01*
X127919469Y-105606030D01*
X127900162Y-105410000D01*
X127919469Y-105213970D01*
X127976652Y-105025463D01*
X128069509Y-104851740D01*
X128194472Y-104699472D01*
X128346740Y-104574509D01*
X128520463Y-104481652D01*
X128520465Y-104481651D01*
X128708966Y-104424470D01*
X128708967Y-104424470D01*
X128708970Y-104424469D01*
X128855876Y-104410000D01*
X128954124Y-104410000D01*
X129101030Y-104424469D01*
X129101030Y-104424469D01*
G37*
G36*
X125905770Y-104425372D02*
X126021689Y-104448429D01*
X126203678Y-104523811D01*
X126367463Y-104633249D01*
X126506751Y-104772537D01*
X126616189Y-104936322D01*
X126691571Y-105118311D01*
X126730000Y-105311509D01*
X126730000Y-105508491D01*
X126691571Y-105701689D01*
X126616189Y-105883678D01*
X126506751Y-106047463D01*
X126367463Y-106186751D01*
X126203678Y-106296189D01*
X126021689Y-106371571D01*
X125905770Y-106394628D01*
X125828493Y-106410000D01*
X125631507Y-106410000D01*
X125554230Y-106394628D01*
X125438311Y-106371571D01*
X125256322Y-106296189D01*
X125092537Y-106186751D01*
X124953249Y-106047463D01*
X124843811Y-105883678D01*
X124768429Y-105701689D01*
X124730000Y-105508491D01*
X124730000Y-105311509D01*
X124768429Y-105118311D01*
X124843811Y-104936322D01*
X124953249Y-104772537D01*
X125092537Y-104633249D01*
X125256322Y-104523811D01*
X125438311Y-104448429D01*
X125554230Y-104425372D01*
X125631507Y-104410000D01*
X125828493Y-104410000D01*
X125905770Y-104425372D01*
X125905770Y-104425372D01*
G37*
G36*
X132255770Y-104425372D02*
X132371689Y-104448429D01*
X132553678Y-104523811D01*
X132717463Y-104633249D01*
X132856751Y-104772537D01*
X132966189Y-104936322D01*
X133041571Y-105118311D01*
X133080000Y-105311509D01*
X133080000Y-105508491D01*
X133041571Y-105701689D01*
X132966189Y-105883678D01*
X132856751Y-106047463D01*
X132717463Y-106186751D01*
X132553678Y-106296189D01*
X132371689Y-106371571D01*
X132255770Y-106394628D01*
X132178493Y-106410000D01*
X131981507Y-106410000D01*
X131904230Y-106394628D01*
X131788311Y-106371571D01*
X131606322Y-106296189D01*
X131442537Y-106186751D01*
X131303249Y-106047463D01*
X131193811Y-105883678D01*
X131118429Y-105701689D01*
X131080000Y-105508491D01*
X131080000Y-105311509D01*
X131118429Y-105118311D01*
X131193811Y-104936322D01*
X131303249Y-104772537D01*
X131442537Y-104633249D01*
X131606322Y-104523811D01*
X131788311Y-104448429D01*
X131904230Y-104425372D01*
X131981507Y-104410000D01*
X132178493Y-104410000D01*
X132255770Y-104425372D01*
X132255770Y-104425372D01*
G37*
G36*
X135430770Y-104425372D02*
X135546689Y-104448429D01*
X135728678Y-104523811D01*
X135892463Y-104633249D01*
X136031751Y-104772537D01*
X136141189Y-104936322D01*
X136216571Y-105118311D01*
X136255000Y-105311509D01*
X136255000Y-105508491D01*
X136216571Y-105701689D01*
X136141189Y-105883678D01*
X136031751Y-106047463D01*
X135892463Y-106186751D01*
X135728678Y-106296189D01*
X135546689Y-106371571D01*
X135430770Y-106394628D01*
X135353493Y-106410000D01*
X135156507Y-106410000D01*
X135079230Y-106394628D01*
X134963311Y-106371571D01*
X134781322Y-106296189D01*
X134617537Y-106186751D01*
X134478249Y-106047463D01*
X134368811Y-105883678D01*
X134293429Y-105701689D01*
X134255000Y-105508491D01*
X134255000Y-105311509D01*
X134293429Y-105118311D01*
X134368811Y-104936322D01*
X134478249Y-104772537D01*
X134617537Y-104633249D01*
X134781322Y-104523811D01*
X134963311Y-104448429D01*
X135079230Y-104425372D01*
X135156507Y-104410000D01*
X135353493Y-104410000D01*
X135430770Y-104425372D01*
X135430770Y-104425372D01*
G37*
G36*
X184960770Y-104425372D02*
X185076689Y-104448429D01*
X185258678Y-104523811D01*
X185422463Y-104633249D01*
X185561751Y-104772537D01*
X185671189Y-104936322D01*
X185746571Y-105118311D01*
X185785000Y-105311509D01*
X185785000Y-105508491D01*
X185746571Y-105701689D01*
X185671189Y-105883678D01*
X185561751Y-106047463D01*
X185422463Y-106186751D01*
X185258678Y-106296189D01*
X185076689Y-106371571D01*
X184960770Y-106394628D01*
X184883493Y-106410000D01*
X184686507Y-106410000D01*
X184609230Y-106394628D01*
X184493311Y-106371571D01*
X184311322Y-106296189D01*
X184147537Y-106186751D01*
X184008249Y-106047463D01*
X183898811Y-105883678D01*
X183823429Y-105701689D01*
X183785000Y-105508491D01*
X183785000Y-105311509D01*
X183823429Y-105118311D01*
X183898811Y-104936322D01*
X184008249Y-104772537D01*
X184147537Y-104633249D01*
X184311322Y-104523811D01*
X184493311Y-104448429D01*
X184609230Y-104425372D01*
X184686507Y-104410000D01*
X184883493Y-104410000D01*
X184960770Y-104425372D01*
X184960770Y-104425372D01*
G37*
G36*
X188135770Y-104425372D02*
X188251689Y-104448429D01*
X188433678Y-104523811D01*
X188597463Y-104633249D01*
X188736751Y-104772537D01*
X188846189Y-104936322D01*
X188921571Y-105118311D01*
X188960000Y-105311509D01*
X188960000Y-105508491D01*
X188921571Y-105701689D01*
X188846189Y-105883678D01*
X188736751Y-106047463D01*
X188597463Y-106186751D01*
X188433678Y-106296189D01*
X188251689Y-106371571D01*
X188135770Y-106394628D01*
X188058493Y-106410000D01*
X187861507Y-106410000D01*
X187784230Y-106394628D01*
X187668311Y-106371571D01*
X187486322Y-106296189D01*
X187322537Y-106186751D01*
X187183249Y-106047463D01*
X187073811Y-105883678D01*
X186998429Y-105701689D01*
X186960000Y-105508491D01*
X186960000Y-105311509D01*
X186998429Y-105118311D01*
X187073811Y-104936322D01*
X187183249Y-104772537D01*
X187322537Y-104633249D01*
X187486322Y-104523811D01*
X187668311Y-104448429D01*
X187784230Y-104425372D01*
X187861507Y-104410000D01*
X188058493Y-104410000D01*
X188135770Y-104425372D01*
X188135770Y-104425372D01*
G37*
G36*
X191331030Y-104424469D02*
X191331033Y-104424470D01*
X191331034Y-104424470D01*
X191519535Y-104481651D01*
X191519537Y-104481652D01*
X191693260Y-104574509D01*
X191845528Y-104699472D01*
X191970491Y-104851740D01*
X192063348Y-105025463D01*
X192120531Y-105213970D01*
X192139838Y-105410000D01*
X192120531Y-105606030D01*
X192120530Y-105606033D01*
X192120530Y-105606034D01*
X192108116Y-105646959D01*
X192063348Y-105794537D01*
X191970491Y-105968260D01*
X191845528Y-106120528D01*
X191693260Y-106245491D01*
X191693258Y-106245492D01*
X191519535Y-106338349D01*
X191331034Y-106395530D01*
X191331033Y-106395530D01*
X191331030Y-106395531D01*
X191184124Y-106410000D01*
X191085876Y-106410000D01*
X190938970Y-106395531D01*
X190938967Y-106395530D01*
X190938966Y-106395530D01*
X190750465Y-106338349D01*
X190576742Y-106245492D01*
X190576740Y-106245491D01*
X190424472Y-106120528D01*
X190299509Y-105968260D01*
X190206652Y-105794537D01*
X190161885Y-105646959D01*
X190149470Y-105606034D01*
X190149470Y-105606033D01*
X190149469Y-105606030D01*
X190130162Y-105410000D01*
X190149469Y-105213970D01*
X190206652Y-105025463D01*
X190299509Y-104851740D01*
X190424472Y-104699472D01*
X190576740Y-104574509D01*
X190750463Y-104481652D01*
X190750465Y-104481651D01*
X190938966Y-104424470D01*
X190938967Y-104424470D01*
X190938970Y-104424469D01*
X191085876Y-104410000D01*
X191184124Y-104410000D01*
X191331030Y-104424469D01*
X191331030Y-104424469D01*
G37*
G36*
X194485770Y-104425372D02*
X194601689Y-104448429D01*
X194783678Y-104523811D01*
X194947463Y-104633249D01*
X195086751Y-104772537D01*
X195196189Y-104936322D01*
X195271571Y-105118311D01*
X195310000Y-105311509D01*
X195310000Y-105508491D01*
X195271571Y-105701689D01*
X195196189Y-105883678D01*
X195086751Y-106047463D01*
X194947463Y-106186751D01*
X194783678Y-106296189D01*
X194601689Y-106371571D01*
X194485770Y-106394628D01*
X194408493Y-106410000D01*
X194211507Y-106410000D01*
X194134230Y-106394628D01*
X194018311Y-106371571D01*
X193836322Y-106296189D01*
X193672537Y-106186751D01*
X193533249Y-106047463D01*
X193423811Y-105883678D01*
X193348429Y-105701689D01*
X193310000Y-105508491D01*
X193310000Y-105311509D01*
X193348429Y-105118311D01*
X193423811Y-104936322D01*
X193533249Y-104772537D01*
X193672537Y-104633249D01*
X193836322Y-104523811D01*
X194018311Y-104448429D01*
X194134230Y-104425372D01*
X194211507Y-104410000D01*
X194408493Y-104410000D01*
X194485770Y-104425372D01*
X194485770Y-104425372D01*
G37*
G36*
X132249918Y-95031858D02*
X132249920Y-95031859D01*
X132249921Y-95031859D01*
X132336790Y-95067842D01*
X132485087Y-95129268D01*
X132696732Y-95270685D01*
X132876715Y-95450668D01*
X133018132Y-95662313D01*
X133115542Y-95897482D01*
X133165200Y-96147128D01*
X133165200Y-96401672D01*
X133115542Y-96651318D01*
X133018132Y-96886487D01*
X132876715Y-97098132D01*
X132696732Y-97278115D01*
X132485087Y-97419532D01*
X132336790Y-97480958D01*
X132249921Y-97516941D01*
X132249920Y-97516941D01*
X132249918Y-97516942D01*
X132000272Y-97566600D01*
X131745728Y-97566600D01*
X131496082Y-97516942D01*
X131496080Y-97516941D01*
X131496079Y-97516941D01*
X131409210Y-97480958D01*
X131260913Y-97419532D01*
X131049268Y-97278115D01*
X130869285Y-97098132D01*
X130727868Y-96886487D01*
X130630458Y-96651318D01*
X130580800Y-96401672D01*
X130580800Y-96147128D01*
X130630458Y-95897482D01*
X130727868Y-95662313D01*
X130869285Y-95450668D01*
X131049268Y-95270685D01*
X131260913Y-95129268D01*
X131409210Y-95067842D01*
X131496079Y-95031859D01*
X131496080Y-95031859D01*
X131496082Y-95031858D01*
X131745728Y-94982200D01*
X132000272Y-94982200D01*
X132249918Y-95031858D01*
X132249918Y-95031858D01*
G37*
G36*
X188416918Y-95031858D02*
X188416920Y-95031859D01*
X188416921Y-95031859D01*
X188503790Y-95067842D01*
X188652087Y-95129268D01*
X188863732Y-95270685D01*
X189043715Y-95450668D01*
X189185132Y-95662313D01*
X189282542Y-95897482D01*
X189332200Y-96147128D01*
X189332200Y-96401672D01*
X189282542Y-96651318D01*
X189185132Y-96886487D01*
X189043715Y-97098132D01*
X188863732Y-97278115D01*
X188652087Y-97419532D01*
X188503790Y-97480958D01*
X188416921Y-97516941D01*
X188416920Y-97516941D01*
X188416918Y-97516942D01*
X188167272Y-97566600D01*
X187912728Y-97566600D01*
X187663082Y-97516942D01*
X187663080Y-97516941D01*
X187663079Y-97516941D01*
X187576210Y-97480958D01*
X187427913Y-97419532D01*
X187216268Y-97278115D01*
X187036285Y-97098132D01*
X186894868Y-96886487D01*
X186797458Y-96651318D01*
X186747800Y-96401672D01*
X186747800Y-96147128D01*
X186797458Y-95897482D01*
X186894868Y-95662313D01*
X187036285Y-95450668D01*
X187216268Y-95270685D01*
X187427913Y-95129268D01*
X187576210Y-95067842D01*
X187663079Y-95031859D01*
X187663080Y-95031859D01*
X187663082Y-95031858D01*
X187912728Y-94982200D01*
X188167272Y-94982200D01*
X188416918Y-95031858D01*
X188416918Y-95031858D01*
G37*
G36*
X158812482Y-78558186D02*
X158857204Y-78571753D01*
X158898433Y-78593790D01*
X158934561Y-78623439D01*
X158964210Y-78659567D01*
X158986247Y-78700796D01*
X158999814Y-78745518D01*
X159005000Y-78798175D01*
X159005000Y-80132825D01*
X158999814Y-80185482D01*
X158986247Y-80230204D01*
X158964210Y-80271433D01*
X158934561Y-80307561D01*
X158898433Y-80337210D01*
X158857204Y-80359247D01*
X158812482Y-80372814D01*
X158759825Y-80378000D01*
X156200175Y-80378000D01*
X156147518Y-80372814D01*
X156102796Y-80359247D01*
X156061567Y-80337210D01*
X156025439Y-80307561D01*
X155995790Y-80271433D01*
X155973753Y-80230204D01*
X155960186Y-80185482D01*
X155955000Y-80132825D01*
X155955000Y-78798175D01*
X155960186Y-78745518D01*
X155973753Y-78700796D01*
X155995790Y-78659567D01*
X156025439Y-78623439D01*
X156061567Y-78593790D01*
X156102796Y-78571753D01*
X156147518Y-78558186D01*
X156200175Y-78553000D01*
X158759825Y-78553000D01*
X158812482Y-78558186D01*
X158812482Y-78558186D01*
G37*
G36*
X132249918Y-77031858D02*
X132249920Y-77031859D01*
X132249921Y-77031859D01*
X132336790Y-77067842D01*
X132485087Y-77129268D01*
X132696732Y-77270685D01*
X132876715Y-77450668D01*
X133018132Y-77662313D01*
X133046281Y-77730272D01*
X133107086Y-77877066D01*
X133115542Y-77897482D01*
X133165200Y-78147128D01*
X133165200Y-78401672D01*
X133121088Y-78623439D01*
X133115541Y-78651321D01*
X133097326Y-78695296D01*
X133018132Y-78886487D01*
X132876715Y-79098132D01*
X132696732Y-79278115D01*
X132485087Y-79419532D01*
X132336790Y-79480958D01*
X132249921Y-79516941D01*
X132249920Y-79516941D01*
X132249918Y-79516942D01*
X132000272Y-79566600D01*
X131745728Y-79566600D01*
X131496082Y-79516942D01*
X131496080Y-79516941D01*
X131496079Y-79516941D01*
X131409210Y-79480958D01*
X131260913Y-79419532D01*
X131049268Y-79278115D01*
X130869285Y-79098132D01*
X130727868Y-78886487D01*
X130648674Y-78695296D01*
X130630459Y-78651321D01*
X130624913Y-78623439D01*
X130580800Y-78401672D01*
X130580800Y-78147128D01*
X130630458Y-77897482D01*
X130638915Y-77877066D01*
X130699719Y-77730272D01*
X130727868Y-77662313D01*
X130869285Y-77450668D01*
X131049268Y-77270685D01*
X131260913Y-77129268D01*
X131409210Y-77067842D01*
X131496079Y-77031859D01*
X131496080Y-77031859D01*
X131496082Y-77031858D01*
X131745728Y-76982200D01*
X132000272Y-76982200D01*
X132249918Y-77031858D01*
X132249918Y-77031858D01*
G37*
G36*
X188416918Y-77031858D02*
X188416920Y-77031859D01*
X188416921Y-77031859D01*
X188503790Y-77067842D01*
X188652087Y-77129268D01*
X188863732Y-77270685D01*
X189043715Y-77450668D01*
X189185132Y-77662313D01*
X189213281Y-77730272D01*
X189274086Y-77877066D01*
X189282542Y-77897482D01*
X189332200Y-78147128D01*
X189332200Y-78401672D01*
X189288088Y-78623439D01*
X189282541Y-78651321D01*
X189264326Y-78695296D01*
X189185132Y-78886487D01*
X189043715Y-79098132D01*
X188863732Y-79278115D01*
X188652087Y-79419532D01*
X188503790Y-79480958D01*
X188416921Y-79516941D01*
X188416920Y-79516941D01*
X188416918Y-79516942D01*
X188167272Y-79566600D01*
X187912728Y-79566600D01*
X187663082Y-79516942D01*
X187663080Y-79516941D01*
X187663079Y-79516941D01*
X187576210Y-79480958D01*
X187427913Y-79419532D01*
X187216268Y-79278115D01*
X187036285Y-79098132D01*
X186894868Y-78886487D01*
X186815674Y-78695296D01*
X186797459Y-78651321D01*
X186791913Y-78623439D01*
X186747800Y-78401672D01*
X186747800Y-78147128D01*
X186797458Y-77897482D01*
X186805915Y-77877066D01*
X186866719Y-77730272D01*
X186894868Y-77662313D01*
X187036285Y-77450668D01*
X187216268Y-77270685D01*
X187427913Y-77129268D01*
X187576210Y-77067842D01*
X187663079Y-77031859D01*
X187663080Y-77031859D01*
X187663082Y-77031858D01*
X187912728Y-76982200D01*
X188167272Y-76982200D01*
X188416918Y-77031858D01*
X188416918Y-77031858D01*
G37*
G36*
X178530240Y-78913960D02*
X176780240Y-78913960D01*
X176780240Y-78088080D01*
X176777838Y-78063694D01*
X176770725Y-78040245D01*
X176769758Y-78038436D01*
X176774858Y-78026125D01*
X176780240Y-77989840D01*
X176780240Y-77163960D01*
X178530240Y-77163960D01*
X178530240Y-78913960D01*
X178530240Y-78913960D01*
G37*
G36*
X173741069Y-77168180D02*
X173826770Y-77176621D01*
X173936729Y-77209977D01*
X173991709Y-77226655D01*
X174042377Y-77253738D01*
X174143716Y-77307904D01*
X174276952Y-77417248D01*
X174386296Y-77550484D01*
X174440462Y-77651823D01*
X174467545Y-77702491D01*
X174475972Y-77730272D01*
X174517579Y-77867430D01*
X174520964Y-77901800D01*
X174530842Y-78002092D01*
X174535623Y-78026126D01*
X174540939Y-78038960D01*
X174535622Y-78051795D01*
X174530842Y-78075828D01*
X174517579Y-78210490D01*
X174509152Y-78238269D01*
X174467545Y-78375429D01*
X174440462Y-78426097D01*
X174386296Y-78527436D01*
X174276952Y-78660672D01*
X174143716Y-78770016D01*
X174067576Y-78810713D01*
X173991709Y-78851265D01*
X173936729Y-78867943D01*
X173826770Y-78901299D01*
X173741069Y-78909740D01*
X173698220Y-78913960D01*
X173612260Y-78913960D01*
X173569411Y-78909740D01*
X173483710Y-78901299D01*
X173373751Y-78867943D01*
X173318771Y-78851265D01*
X173242904Y-78810713D01*
X173166764Y-78770016D01*
X173033528Y-78660672D01*
X172924184Y-78527436D01*
X172870018Y-78426097D01*
X172842935Y-78375429D01*
X172801328Y-78238269D01*
X172792901Y-78210490D01*
X172779638Y-78075828D01*
X172774857Y-78051794D01*
X172769541Y-78038960D01*
X172774858Y-78026125D01*
X172779638Y-78002092D01*
X172789516Y-77901800D01*
X172792901Y-77867430D01*
X172834508Y-77730272D01*
X172842935Y-77702491D01*
X172870018Y-77651823D01*
X172924184Y-77550484D01*
X173033528Y-77417248D01*
X173166764Y-77307904D01*
X173268103Y-77253738D01*
X173318771Y-77226655D01*
X173373751Y-77209977D01*
X173483710Y-77176621D01*
X173569411Y-77168180D01*
X173612260Y-77163960D01*
X173698220Y-77163960D01*
X173741069Y-77168180D01*
X173741069Y-77168180D01*
G37*
G36*
X175741069Y-77168180D02*
X175826770Y-77176621D01*
X175936729Y-77209977D01*
X175991709Y-77226655D01*
X176042377Y-77253738D01*
X176143716Y-77307904D01*
X176276952Y-77417248D01*
X176386296Y-77550484D01*
X176440462Y-77651823D01*
X176467545Y-77702491D01*
X176475972Y-77730272D01*
X176517579Y-77867430D01*
X176520964Y-77901800D01*
X176530842Y-78002092D01*
X176535623Y-78026126D01*
X176540722Y-78038436D01*
X176539755Y-78040245D01*
X176530842Y-78075828D01*
X176517579Y-78210490D01*
X176509152Y-78238269D01*
X176467545Y-78375429D01*
X176440462Y-78426097D01*
X176386296Y-78527436D01*
X176276952Y-78660672D01*
X176143716Y-78770016D01*
X176067576Y-78810713D01*
X175991709Y-78851265D01*
X175936729Y-78867943D01*
X175826770Y-78901299D01*
X175741069Y-78909740D01*
X175698220Y-78913960D01*
X175612260Y-78913960D01*
X175569411Y-78909740D01*
X175483710Y-78901299D01*
X175373751Y-78867943D01*
X175318771Y-78851265D01*
X175242904Y-78810713D01*
X175166764Y-78770016D01*
X175033528Y-78660672D01*
X174924184Y-78527436D01*
X174870018Y-78426097D01*
X174842935Y-78375429D01*
X174801328Y-78238269D01*
X174792901Y-78210490D01*
X174779638Y-78075828D01*
X174774857Y-78051794D01*
X174769541Y-78038960D01*
X174774858Y-78026125D01*
X174779638Y-78002092D01*
X174789516Y-77901800D01*
X174792901Y-77867430D01*
X174834508Y-77730272D01*
X174842935Y-77702491D01*
X174870018Y-77651823D01*
X174924184Y-77550484D01*
X175033528Y-77417248D01*
X175166764Y-77307904D01*
X175268103Y-77253738D01*
X175318771Y-77226655D01*
X175373751Y-77209977D01*
X175483710Y-77176621D01*
X175569411Y-77168180D01*
X175612260Y-77163960D01*
X175698220Y-77163960D01*
X175741069Y-77168180D01*
X175741069Y-77168180D01*
G37*
G36*
X167741069Y-77168180D02*
X167826770Y-77176621D01*
X167936729Y-77209977D01*
X167991709Y-77226655D01*
X168042377Y-77253738D01*
X168143716Y-77307904D01*
X168276952Y-77417248D01*
X168386296Y-77550484D01*
X168440462Y-77651823D01*
X168467545Y-77702491D01*
X168475972Y-77730272D01*
X168517579Y-77867430D01*
X168520964Y-77901800D01*
X168530842Y-78002092D01*
X168535623Y-78026126D01*
X168540939Y-78038960D01*
X168535622Y-78051795D01*
X168530842Y-78075828D01*
X168517579Y-78210490D01*
X168509152Y-78238269D01*
X168467545Y-78375429D01*
X168440462Y-78426097D01*
X168386296Y-78527436D01*
X168276952Y-78660672D01*
X168143716Y-78770016D01*
X168067576Y-78810713D01*
X167991709Y-78851265D01*
X167936729Y-78867943D01*
X167826770Y-78901299D01*
X167741069Y-78909740D01*
X167698220Y-78913960D01*
X167612260Y-78913960D01*
X167569411Y-78909740D01*
X167483710Y-78901299D01*
X167373751Y-78867943D01*
X167318771Y-78851265D01*
X167242904Y-78810713D01*
X167166764Y-78770016D01*
X167033528Y-78660672D01*
X166924184Y-78527436D01*
X166870018Y-78426097D01*
X166842935Y-78375429D01*
X166801328Y-78238269D01*
X166792901Y-78210490D01*
X166776007Y-78038960D01*
X166792901Y-77867430D01*
X166834508Y-77730272D01*
X166842935Y-77702491D01*
X166870018Y-77651823D01*
X166924184Y-77550484D01*
X167033528Y-77417248D01*
X167166764Y-77307904D01*
X167268103Y-77253738D01*
X167318771Y-77226655D01*
X167373751Y-77209977D01*
X167483710Y-77176621D01*
X167569411Y-77168180D01*
X167612260Y-77163960D01*
X167698220Y-77163960D01*
X167741069Y-77168180D01*
X167741069Y-77168180D01*
G37*
G36*
X169741069Y-77168180D02*
X169826770Y-77176621D01*
X169936729Y-77209977D01*
X169991709Y-77226655D01*
X170042377Y-77253738D01*
X170143716Y-77307904D01*
X170276952Y-77417248D01*
X170386296Y-77550484D01*
X170440462Y-77651823D01*
X170467545Y-77702491D01*
X170475972Y-77730272D01*
X170517579Y-77867430D01*
X170520964Y-77901800D01*
X170530842Y-78002092D01*
X170535623Y-78026126D01*
X170540939Y-78038960D01*
X170535622Y-78051795D01*
X170530842Y-78075828D01*
X170517579Y-78210490D01*
X170509152Y-78238269D01*
X170467545Y-78375429D01*
X170440462Y-78426097D01*
X170386296Y-78527436D01*
X170276952Y-78660672D01*
X170143716Y-78770016D01*
X170067576Y-78810713D01*
X169991709Y-78851265D01*
X169936729Y-78867943D01*
X169826770Y-78901299D01*
X169741069Y-78909740D01*
X169698220Y-78913960D01*
X169612260Y-78913960D01*
X169569411Y-78909740D01*
X169483710Y-78901299D01*
X169373751Y-78867943D01*
X169318771Y-78851265D01*
X169242904Y-78810713D01*
X169166764Y-78770016D01*
X169033528Y-78660672D01*
X168924184Y-78527436D01*
X168870018Y-78426097D01*
X168842935Y-78375429D01*
X168801328Y-78238269D01*
X168792901Y-78210490D01*
X168779638Y-78075828D01*
X168774857Y-78051794D01*
X168769541Y-78038960D01*
X168774858Y-78026125D01*
X168779638Y-78002092D01*
X168789516Y-77901800D01*
X168792901Y-77867430D01*
X168834508Y-77730272D01*
X168842935Y-77702491D01*
X168870018Y-77651823D01*
X168924184Y-77550484D01*
X169033528Y-77417248D01*
X169166764Y-77307904D01*
X169268103Y-77253738D01*
X169318771Y-77226655D01*
X169373751Y-77209977D01*
X169483710Y-77176621D01*
X169569411Y-77168180D01*
X169612260Y-77163960D01*
X169698220Y-77163960D01*
X169741069Y-77168180D01*
X169741069Y-77168180D01*
G37*
G36*
X171741069Y-77168180D02*
X171826770Y-77176621D01*
X171936729Y-77209977D01*
X171991709Y-77226655D01*
X172042377Y-77253738D01*
X172143716Y-77307904D01*
X172276952Y-77417248D01*
X172386296Y-77550484D01*
X172440462Y-77651823D01*
X172467545Y-77702491D01*
X172475972Y-77730272D01*
X172517579Y-77867430D01*
X172520964Y-77901800D01*
X172530842Y-78002092D01*
X172535623Y-78026126D01*
X172540939Y-78038960D01*
X172535622Y-78051795D01*
X172530842Y-78075828D01*
X172517579Y-78210490D01*
X172509152Y-78238269D01*
X172467545Y-78375429D01*
X172440462Y-78426097D01*
X172386296Y-78527436D01*
X172276952Y-78660672D01*
X172143716Y-78770016D01*
X172067576Y-78810713D01*
X171991709Y-78851265D01*
X171936729Y-78867943D01*
X171826770Y-78901299D01*
X171741069Y-78909740D01*
X171698220Y-78913960D01*
X171612260Y-78913960D01*
X171569411Y-78909740D01*
X171483710Y-78901299D01*
X171373751Y-78867943D01*
X171318771Y-78851265D01*
X171242904Y-78810713D01*
X171166764Y-78770016D01*
X171033528Y-78660672D01*
X170924184Y-78527436D01*
X170870018Y-78426097D01*
X170842935Y-78375429D01*
X170801328Y-78238269D01*
X170792901Y-78210490D01*
X170779638Y-78075828D01*
X170774857Y-78051794D01*
X170769541Y-78038960D01*
X170774858Y-78026125D01*
X170779638Y-78002092D01*
X170789516Y-77901800D01*
X170792901Y-77867430D01*
X170834508Y-77730272D01*
X170842935Y-77702491D01*
X170870018Y-77651823D01*
X170924184Y-77550484D01*
X171033528Y-77417248D01*
X171166764Y-77307904D01*
X171268103Y-77253738D01*
X171318771Y-77226655D01*
X171373751Y-77209977D01*
X171483710Y-77176621D01*
X171569411Y-77168180D01*
X171612260Y-77163960D01*
X171698220Y-77163960D01*
X171741069Y-77168180D01*
X171741069Y-77168180D01*
G37*
G36*
X146681429Y-77031020D02*
X146767130Y-77039461D01*
X146877089Y-77072817D01*
X146932069Y-77089495D01*
X146982737Y-77116578D01*
X147084076Y-77170744D01*
X147217312Y-77280088D01*
X147326656Y-77413324D01*
X147380822Y-77514663D01*
X147407905Y-77565331D01*
X147407905Y-77565332D01*
X147457939Y-77730270D01*
X147457939Y-77730272D01*
X147471202Y-77864932D01*
X147475983Y-77888966D01*
X147481299Y-77901800D01*
X147475982Y-77914635D01*
X147471202Y-77938668D01*
X147457939Y-78073330D01*
X147435552Y-78147128D01*
X147407905Y-78238269D01*
X147380822Y-78288937D01*
X147326656Y-78390276D01*
X147217312Y-78523512D01*
X147084076Y-78632856D01*
X146982737Y-78687022D01*
X146932069Y-78714105D01*
X146877089Y-78730783D01*
X146767130Y-78764139D01*
X146681429Y-78772580D01*
X146638580Y-78776800D01*
X146552620Y-78776800D01*
X146509771Y-78772580D01*
X146424070Y-78764139D01*
X146314111Y-78730783D01*
X146259131Y-78714105D01*
X146208463Y-78687022D01*
X146107124Y-78632856D01*
X145973888Y-78523512D01*
X145864544Y-78390276D01*
X145810378Y-78288937D01*
X145783295Y-78238269D01*
X145755648Y-78147128D01*
X145733261Y-78073330D01*
X145719998Y-77938668D01*
X145715217Y-77914634D01*
X145709901Y-77901800D01*
X145715218Y-77888965D01*
X145719998Y-77864932D01*
X145733261Y-77730272D01*
X145733261Y-77730270D01*
X145783295Y-77565332D01*
X145783295Y-77565331D01*
X145810378Y-77514663D01*
X145864544Y-77413324D01*
X145973888Y-77280088D01*
X146107124Y-77170744D01*
X146208463Y-77116578D01*
X146259131Y-77089495D01*
X146314111Y-77072817D01*
X146424070Y-77039461D01*
X146509771Y-77031020D01*
X146552620Y-77026800D01*
X146638580Y-77026800D01*
X146681429Y-77031020D01*
X146681429Y-77031020D01*
G37*
G36*
X150681429Y-77031020D02*
X150767130Y-77039461D01*
X150877089Y-77072817D01*
X150932069Y-77089495D01*
X150982737Y-77116578D01*
X151084076Y-77170744D01*
X151217312Y-77280088D01*
X151326656Y-77413324D01*
X151380822Y-77514663D01*
X151407905Y-77565331D01*
X151407905Y-77565332D01*
X151457939Y-77730270D01*
X151457939Y-77730272D01*
X151471202Y-77864932D01*
X151475983Y-77888966D01*
X151481299Y-77901800D01*
X151475982Y-77914635D01*
X151471202Y-77938668D01*
X151457939Y-78073330D01*
X151435552Y-78147128D01*
X151407905Y-78238269D01*
X151380822Y-78288937D01*
X151326656Y-78390276D01*
X151217312Y-78523512D01*
X151084076Y-78632856D01*
X150982737Y-78687022D01*
X150932069Y-78714105D01*
X150877089Y-78730783D01*
X150767130Y-78764139D01*
X150681429Y-78772580D01*
X150638580Y-78776800D01*
X150552620Y-78776800D01*
X150509771Y-78772580D01*
X150424070Y-78764139D01*
X150314111Y-78730783D01*
X150259131Y-78714105D01*
X150208463Y-78687022D01*
X150107124Y-78632856D01*
X149973888Y-78523512D01*
X149864544Y-78390276D01*
X149810378Y-78288937D01*
X149783295Y-78238269D01*
X149755648Y-78147128D01*
X149733261Y-78073330D01*
X149719998Y-77938668D01*
X149715217Y-77914634D01*
X149709901Y-77901800D01*
X149715218Y-77888965D01*
X149719998Y-77864932D01*
X149733261Y-77730272D01*
X149733261Y-77730270D01*
X149783295Y-77565332D01*
X149783295Y-77565331D01*
X149810378Y-77514663D01*
X149864544Y-77413324D01*
X149973888Y-77280088D01*
X150107124Y-77170744D01*
X150208463Y-77116578D01*
X150259131Y-77089495D01*
X150314111Y-77072817D01*
X150424070Y-77039461D01*
X150509771Y-77031020D01*
X150552620Y-77026800D01*
X150638580Y-77026800D01*
X150681429Y-77031020D01*
X150681429Y-77031020D01*
G37*
G36*
X148681429Y-77031020D02*
X148767130Y-77039461D01*
X148877089Y-77072817D01*
X148932069Y-77089495D01*
X148982737Y-77116578D01*
X149084076Y-77170744D01*
X149217312Y-77280088D01*
X149326656Y-77413324D01*
X149380822Y-77514663D01*
X149407905Y-77565331D01*
X149407905Y-77565332D01*
X149457939Y-77730270D01*
X149457939Y-77730272D01*
X149471202Y-77864932D01*
X149475983Y-77888966D01*
X149481299Y-77901800D01*
X149475982Y-77914635D01*
X149471202Y-77938668D01*
X149457939Y-78073330D01*
X149435552Y-78147128D01*
X149407905Y-78238269D01*
X149380822Y-78288937D01*
X149326656Y-78390276D01*
X149217312Y-78523512D01*
X149084076Y-78632856D01*
X148982737Y-78687022D01*
X148932069Y-78714105D01*
X148877089Y-78730783D01*
X148767130Y-78764139D01*
X148681429Y-78772580D01*
X148638580Y-78776800D01*
X148552620Y-78776800D01*
X148509771Y-78772580D01*
X148424070Y-78764139D01*
X148314111Y-78730783D01*
X148259131Y-78714105D01*
X148208463Y-78687022D01*
X148107124Y-78632856D01*
X147973888Y-78523512D01*
X147864544Y-78390276D01*
X147810378Y-78288937D01*
X147783295Y-78238269D01*
X147755648Y-78147128D01*
X147733261Y-78073330D01*
X147719998Y-77938668D01*
X147715217Y-77914634D01*
X147709901Y-77901800D01*
X147715218Y-77888965D01*
X147719998Y-77864932D01*
X147733261Y-77730272D01*
X147733261Y-77730270D01*
X147783295Y-77565332D01*
X147783295Y-77565331D01*
X147810378Y-77514663D01*
X147864544Y-77413324D01*
X147973888Y-77280088D01*
X148107124Y-77170744D01*
X148208463Y-77116578D01*
X148259131Y-77089495D01*
X148314111Y-77072817D01*
X148424070Y-77039461D01*
X148509771Y-77031020D01*
X148552620Y-77026800D01*
X148638580Y-77026800D01*
X148681429Y-77031020D01*
X148681429Y-77031020D01*
G37*
G36*
X143470600Y-77852680D02*
X143473002Y-77877066D01*
X143480115Y-77900515D01*
X143481082Y-77902324D01*
X143475982Y-77914635D01*
X143470600Y-77950920D01*
X143470600Y-78776800D01*
X141720600Y-78776800D01*
X141720600Y-77026800D01*
X143470600Y-77026800D01*
X143470600Y-77852680D01*
X143470600Y-77852680D01*
G37*
G36*
X144681429Y-77031020D02*
X144767130Y-77039461D01*
X144877089Y-77072817D01*
X144932069Y-77089495D01*
X144982737Y-77116578D01*
X145084076Y-77170744D01*
X145217312Y-77280088D01*
X145326656Y-77413324D01*
X145380822Y-77514663D01*
X145407905Y-77565331D01*
X145407905Y-77565332D01*
X145457939Y-77730270D01*
X145457939Y-77730272D01*
X145471202Y-77864932D01*
X145475983Y-77888966D01*
X145481299Y-77901800D01*
X145475982Y-77914635D01*
X145471202Y-77938668D01*
X145457939Y-78073330D01*
X145435552Y-78147128D01*
X145407905Y-78238269D01*
X145380822Y-78288937D01*
X145326656Y-78390276D01*
X145217312Y-78523512D01*
X145084076Y-78632856D01*
X144982737Y-78687022D01*
X144932069Y-78714105D01*
X144877089Y-78730783D01*
X144767130Y-78764139D01*
X144681429Y-78772580D01*
X144638580Y-78776800D01*
X144552620Y-78776800D01*
X144509771Y-78772580D01*
X144424070Y-78764139D01*
X144314111Y-78730783D01*
X144259131Y-78714105D01*
X144208463Y-78687022D01*
X144107124Y-78632856D01*
X143973888Y-78523512D01*
X143864544Y-78390276D01*
X143810378Y-78288937D01*
X143783295Y-78238269D01*
X143755648Y-78147128D01*
X143733261Y-78073330D01*
X143719998Y-77938668D01*
X143715217Y-77914634D01*
X143710118Y-77902324D01*
X143711085Y-77900515D01*
X143719998Y-77864932D01*
X143733261Y-77730272D01*
X143733261Y-77730270D01*
X143783295Y-77565332D01*
X143783295Y-77565331D01*
X143810378Y-77514663D01*
X143864544Y-77413324D01*
X143973888Y-77280088D01*
X144107124Y-77170744D01*
X144208463Y-77116578D01*
X144259131Y-77089495D01*
X144314111Y-77072817D01*
X144424070Y-77039461D01*
X144509771Y-77031020D01*
X144552620Y-77026800D01*
X144638580Y-77026800D01*
X144681429Y-77031020D01*
X144681429Y-77031020D01*
G37*
G36*
X152681429Y-77031020D02*
X152767130Y-77039461D01*
X152877089Y-77072817D01*
X152932069Y-77089495D01*
X152982737Y-77116578D01*
X153084076Y-77170744D01*
X153217312Y-77280088D01*
X153326656Y-77413324D01*
X153380822Y-77514663D01*
X153407905Y-77565331D01*
X153407905Y-77565332D01*
X153457939Y-77730270D01*
X153474833Y-77901800D01*
X153457939Y-78073330D01*
X153435552Y-78147128D01*
X153407905Y-78238269D01*
X153380822Y-78288937D01*
X153326656Y-78390276D01*
X153217312Y-78523512D01*
X153084076Y-78632856D01*
X152982737Y-78687022D01*
X152932069Y-78714105D01*
X152877089Y-78730783D01*
X152767130Y-78764139D01*
X152681429Y-78772580D01*
X152638580Y-78776800D01*
X152552620Y-78776800D01*
X152509771Y-78772580D01*
X152424070Y-78764139D01*
X152314111Y-78730783D01*
X152259131Y-78714105D01*
X152208463Y-78687022D01*
X152107124Y-78632856D01*
X151973888Y-78523512D01*
X151864544Y-78390276D01*
X151810378Y-78288937D01*
X151783295Y-78238269D01*
X151755648Y-78147128D01*
X151733261Y-78073330D01*
X151719998Y-77938668D01*
X151715217Y-77914634D01*
X151709901Y-77901800D01*
X151715218Y-77888965D01*
X151719998Y-77864932D01*
X151733261Y-77730272D01*
X151733261Y-77730270D01*
X151783295Y-77565332D01*
X151783295Y-77565331D01*
X151810378Y-77514663D01*
X151864544Y-77413324D01*
X151973888Y-77280088D01*
X152107124Y-77170744D01*
X152208463Y-77116578D01*
X152259131Y-77089495D01*
X152314111Y-77072817D01*
X152424070Y-77039461D01*
X152509771Y-77031020D01*
X152552620Y-77026800D01*
X152638580Y-77026800D01*
X152681429Y-77031020D01*
X152681429Y-77031020D01*
G37*
G36*
X158812482Y-75583186D02*
X158857204Y-75596753D01*
X158898433Y-75618790D01*
X158934561Y-75648439D01*
X158964210Y-75684567D01*
X158986247Y-75725796D01*
X158999814Y-75770518D01*
X159005000Y-75823175D01*
X159005000Y-77157825D01*
X158999814Y-77210482D01*
X158986247Y-77255204D01*
X158964210Y-77296433D01*
X158934561Y-77332561D01*
X158898433Y-77362210D01*
X158857204Y-77384247D01*
X158812482Y-77397814D01*
X158759825Y-77403000D01*
X156200175Y-77403000D01*
X156147518Y-77397814D01*
X156102796Y-77384247D01*
X156061567Y-77362210D01*
X156025439Y-77332561D01*
X155995790Y-77296433D01*
X155973753Y-77255204D01*
X155960186Y-77210482D01*
X155955000Y-77157825D01*
X155955000Y-75823175D01*
X155960186Y-75770518D01*
X155973753Y-75725796D01*
X155995790Y-75684567D01*
X156025439Y-75648439D01*
X156061567Y-75618790D01*
X156102796Y-75596753D01*
X156147518Y-75583186D01*
X156200175Y-75578000D01*
X158759825Y-75578000D01*
X158812482Y-75583186D01*
X158812482Y-75583186D01*
G37*
G36*
X164110603Y-73964968D02*
X164110606Y-73964969D01*
X164110605Y-73964969D01*
X164285678Y-74037486D01*
X164285679Y-74037487D01*
X164443241Y-74142767D01*
X164577233Y-74276759D01*
X164577234Y-74276761D01*
X164682514Y-74434322D01*
X164716573Y-74516549D01*
X164755032Y-74609397D01*
X164792000Y-74795250D01*
X164792000Y-74984750D01*
X164755032Y-75170603D01*
X164755031Y-75170605D01*
X164682514Y-75345678D01*
X164682513Y-75345679D01*
X164577233Y-75503241D01*
X164443241Y-75637233D01*
X164426470Y-75648439D01*
X164285678Y-75742514D01*
X164150266Y-75798603D01*
X164110603Y-75815032D01*
X163924750Y-75852000D01*
X163735250Y-75852000D01*
X163549397Y-75815032D01*
X163509734Y-75798603D01*
X163374322Y-75742514D01*
X163233530Y-75648439D01*
X163216759Y-75637233D01*
X163082767Y-75503241D01*
X162977487Y-75345679D01*
X162977486Y-75345678D01*
X162904969Y-75170605D01*
X162904968Y-75170603D01*
X162868000Y-74984750D01*
X162868000Y-74795250D01*
X162904968Y-74609397D01*
X162943427Y-74516549D01*
X162977486Y-74434322D01*
X163082766Y-74276761D01*
X163082767Y-74276759D01*
X163216759Y-74142767D01*
X163374321Y-74037487D01*
X163374322Y-74037486D01*
X163549395Y-73964969D01*
X163549394Y-73964969D01*
X163549397Y-73964968D01*
X163735250Y-73928000D01*
X163924750Y-73928000D01*
X164110603Y-73964968D01*
X164110603Y-73964968D01*
G37*
G36*
X145481609Y-73215417D02*
X145481611Y-73215418D01*
X145481612Y-73215418D01*
X145670552Y-73293679D01*
X145670553Y-73293680D01*
X145840597Y-73407300D01*
X145985200Y-73551903D01*
X145985202Y-73551906D01*
X146098821Y-73721948D01*
X146177082Y-73910888D01*
X146177083Y-73910891D01*
X146216980Y-74111465D01*
X146216980Y-74315974D01*
X146177082Y-74516552D01*
X146098821Y-74705492D01*
X145986736Y-74873239D01*
X145985200Y-74875537D01*
X145840597Y-75020140D01*
X145840594Y-75020142D01*
X145670552Y-75133761D01*
X145481612Y-75212022D01*
X145481611Y-75212022D01*
X145481609Y-75212023D01*
X145281035Y-75251920D01*
X145076525Y-75251920D01*
X144875951Y-75212023D01*
X144875949Y-75212022D01*
X144875948Y-75212022D01*
X144687008Y-75133761D01*
X144516966Y-75020142D01*
X144516963Y-75020140D01*
X144372360Y-74875537D01*
X144370824Y-74873239D01*
X144258739Y-74705492D01*
X144180478Y-74516552D01*
X144140580Y-74315974D01*
X144140580Y-74111465D01*
X144180477Y-73910891D01*
X144180478Y-73910888D01*
X144258739Y-73721948D01*
X144372358Y-73551906D01*
X144372360Y-73551903D01*
X144516963Y-73407300D01*
X144687007Y-73293680D01*
X144687008Y-73293679D01*
X144875948Y-73215418D01*
X144875949Y-73215418D01*
X144875951Y-73215417D01*
X145076525Y-73175520D01*
X145281035Y-73175520D01*
X145481609Y-73215417D01*
X145481609Y-73215417D01*
G37*
G36*
X142941609Y-73215417D02*
X142941611Y-73215418D01*
X142941612Y-73215418D01*
X143130552Y-73293679D01*
X143130553Y-73293680D01*
X143300597Y-73407300D01*
X143445200Y-73551903D01*
X143445202Y-73551906D01*
X143558821Y-73721948D01*
X143637082Y-73910888D01*
X143637083Y-73910891D01*
X143676980Y-74111465D01*
X143676980Y-74315974D01*
X143637082Y-74516552D01*
X143558821Y-74705492D01*
X143446736Y-74873239D01*
X143445200Y-74875537D01*
X143300597Y-75020140D01*
X143300594Y-75020142D01*
X143130552Y-75133761D01*
X142941612Y-75212022D01*
X142941611Y-75212022D01*
X142941609Y-75212023D01*
X142741035Y-75251920D01*
X142536525Y-75251920D01*
X142335951Y-75212023D01*
X142335949Y-75212022D01*
X142335948Y-75212022D01*
X142147008Y-75133761D01*
X141976966Y-75020142D01*
X141976963Y-75020140D01*
X141832360Y-74875537D01*
X141830824Y-74873239D01*
X141718739Y-74705492D01*
X141640478Y-74516552D01*
X141600580Y-74315974D01*
X141600580Y-74111465D01*
X141640477Y-73910891D01*
X141640478Y-73910888D01*
X141718739Y-73721948D01*
X141832358Y-73551906D01*
X141832360Y-73551903D01*
X141976963Y-73407300D01*
X142147007Y-73293680D01*
X142147008Y-73293679D01*
X142335948Y-73215418D01*
X142335949Y-73215418D01*
X142335951Y-73215417D01*
X142536525Y-73175520D01*
X142741035Y-73175520D01*
X142941609Y-73215417D01*
X142941609Y-73215417D01*
G37*
G36*
X141136980Y-75251920D02*
X139060580Y-75251920D01*
X139060580Y-73175520D01*
X141136980Y-73175520D01*
X141136980Y-75251920D01*
X141136980Y-75251920D01*
G37*
G36*
X148021609Y-73215417D02*
X148021611Y-73215418D01*
X148021612Y-73215418D01*
X148210552Y-73293679D01*
X148210553Y-73293680D01*
X148380597Y-73407300D01*
X148525200Y-73551903D01*
X148525202Y-73551906D01*
X148638821Y-73721948D01*
X148717082Y-73910888D01*
X148717083Y-73910891D01*
X148756980Y-74111465D01*
X148756980Y-74315974D01*
X148717082Y-74516552D01*
X148638821Y-74705492D01*
X148526736Y-74873239D01*
X148525200Y-74875537D01*
X148380597Y-75020140D01*
X148380594Y-75020142D01*
X148210552Y-75133761D01*
X148021612Y-75212022D01*
X148021611Y-75212022D01*
X148021609Y-75212023D01*
X147821035Y-75251920D01*
X147616525Y-75251920D01*
X147415951Y-75212023D01*
X147415949Y-75212022D01*
X147415948Y-75212022D01*
X147227008Y-75133761D01*
X147056966Y-75020142D01*
X147056963Y-75020140D01*
X146912360Y-74875537D01*
X146910824Y-74873239D01*
X146798739Y-74705492D01*
X146720478Y-74516552D01*
X146680580Y-74315974D01*
X146680580Y-74111465D01*
X146720477Y-73910891D01*
X146720478Y-73910888D01*
X146798739Y-73721948D01*
X146912358Y-73551906D01*
X146912360Y-73551903D01*
X147056963Y-73407300D01*
X147227007Y-73293680D01*
X147227008Y-73293679D01*
X147415948Y-73215418D01*
X147415949Y-73215418D01*
X147415951Y-73215417D01*
X147616525Y-73175520D01*
X147821035Y-73175520D01*
X148021609Y-73215417D01*
X148021609Y-73215417D01*
G37*
G36*
X150561609Y-73215417D02*
X150561611Y-73215418D01*
X150561612Y-73215418D01*
X150750552Y-73293679D01*
X150750553Y-73293680D01*
X150920597Y-73407300D01*
X151065200Y-73551903D01*
X151065202Y-73551906D01*
X151178821Y-73721948D01*
X151257082Y-73910888D01*
X151257083Y-73910891D01*
X151296980Y-74111465D01*
X151296980Y-74315974D01*
X151257082Y-74516552D01*
X151178821Y-74705492D01*
X151066736Y-74873239D01*
X151065200Y-74875537D01*
X150920597Y-75020140D01*
X150920594Y-75020142D01*
X150750552Y-75133761D01*
X150561612Y-75212022D01*
X150561611Y-75212022D01*
X150561609Y-75212023D01*
X150361035Y-75251920D01*
X150156525Y-75251920D01*
X149955951Y-75212023D01*
X149955949Y-75212022D01*
X149955948Y-75212022D01*
X149767008Y-75133761D01*
X149596966Y-75020142D01*
X149596963Y-75020140D01*
X149452360Y-74875537D01*
X149450824Y-74873239D01*
X149338739Y-74705492D01*
X149260478Y-74516552D01*
X149220580Y-74315974D01*
X149220580Y-74111465D01*
X149260477Y-73910891D01*
X149260478Y-73910888D01*
X149338739Y-73721948D01*
X149452358Y-73551906D01*
X149452360Y-73551903D01*
X149596963Y-73407300D01*
X149767007Y-73293680D01*
X149767008Y-73293679D01*
X149955948Y-73215418D01*
X149955949Y-73215418D01*
X149955951Y-73215417D01*
X150156525Y-73175520D01*
X150361035Y-73175520D01*
X150561609Y-73215417D01*
X150561609Y-73215417D01*
G37*
G36*
X153101609Y-73215417D02*
X153101611Y-73215418D01*
X153101612Y-73215418D01*
X153290552Y-73293679D01*
X153290553Y-73293680D01*
X153460597Y-73407300D01*
X153605200Y-73551903D01*
X153605202Y-73551906D01*
X153718821Y-73721948D01*
X153797082Y-73910888D01*
X153797083Y-73910891D01*
X153836980Y-74111465D01*
X153836980Y-74315974D01*
X153797082Y-74516552D01*
X153718821Y-74705492D01*
X153606736Y-74873239D01*
X153605200Y-74875537D01*
X153460597Y-75020140D01*
X153460594Y-75020142D01*
X153290552Y-75133761D01*
X153101612Y-75212022D01*
X153101611Y-75212022D01*
X153101609Y-75212023D01*
X152901035Y-75251920D01*
X152696525Y-75251920D01*
X152495951Y-75212023D01*
X152495949Y-75212022D01*
X152495948Y-75212022D01*
X152307008Y-75133761D01*
X152136966Y-75020142D01*
X152136963Y-75020140D01*
X151992360Y-74875537D01*
X151990824Y-74873239D01*
X151878739Y-74705492D01*
X151800478Y-74516552D01*
X151760580Y-74315974D01*
X151760580Y-74111465D01*
X151800477Y-73910891D01*
X151800478Y-73910888D01*
X151878739Y-73721948D01*
X151992358Y-73551906D01*
X151992360Y-73551903D01*
X152136963Y-73407300D01*
X152307007Y-73293680D01*
X152307008Y-73293679D01*
X152495948Y-73215418D01*
X152495949Y-73215418D01*
X152495951Y-73215417D01*
X152696525Y-73175520D01*
X152901035Y-73175520D01*
X153101609Y-73215417D01*
X153101609Y-73215417D01*
G37*
G36*
X155641609Y-73215417D02*
X155641611Y-73215418D01*
X155641612Y-73215418D01*
X155830552Y-73293679D01*
X155830553Y-73293680D01*
X156000597Y-73407300D01*
X156145200Y-73551903D01*
X156145202Y-73551906D01*
X156258821Y-73721948D01*
X156337082Y-73910888D01*
X156337083Y-73910891D01*
X156376980Y-74111465D01*
X156376980Y-74315974D01*
X156337082Y-74516552D01*
X156258821Y-74705492D01*
X156146736Y-74873239D01*
X156145200Y-74875537D01*
X156000597Y-75020140D01*
X156000594Y-75020142D01*
X155830552Y-75133761D01*
X155641612Y-75212022D01*
X155641611Y-75212022D01*
X155641609Y-75212023D01*
X155441035Y-75251920D01*
X155236525Y-75251920D01*
X155035951Y-75212023D01*
X155035949Y-75212022D01*
X155035948Y-75212022D01*
X154847008Y-75133761D01*
X154676966Y-75020142D01*
X154676963Y-75020140D01*
X154532360Y-74875537D01*
X154530824Y-74873239D01*
X154418739Y-74705492D01*
X154340478Y-74516552D01*
X154300580Y-74315974D01*
X154300580Y-74111465D01*
X154340477Y-73910891D01*
X154340478Y-73910888D01*
X154418739Y-73721948D01*
X154532358Y-73551906D01*
X154532360Y-73551903D01*
X154676963Y-73407300D01*
X154847007Y-73293680D01*
X154847008Y-73293679D01*
X155035948Y-73215418D01*
X155035949Y-73215418D01*
X155035951Y-73215417D01*
X155236525Y-73175520D01*
X155441035Y-73175520D01*
X155641609Y-73215417D01*
X155641609Y-73215417D01*
G37*
G36*
X158181609Y-73215417D02*
X158181611Y-73215418D01*
X158181612Y-73215418D01*
X158370552Y-73293679D01*
X158370553Y-73293680D01*
X158540597Y-73407300D01*
X158685200Y-73551903D01*
X158685202Y-73551906D01*
X158798821Y-73721948D01*
X158877082Y-73910888D01*
X158877083Y-73910891D01*
X158916980Y-74111465D01*
X158916980Y-74315974D01*
X158877082Y-74516552D01*
X158798821Y-74705492D01*
X158686736Y-74873239D01*
X158685200Y-74875537D01*
X158540597Y-75020140D01*
X158540594Y-75020142D01*
X158370552Y-75133761D01*
X158181612Y-75212022D01*
X158181611Y-75212022D01*
X158181609Y-75212023D01*
X157981035Y-75251920D01*
X157776525Y-75251920D01*
X157575951Y-75212023D01*
X157575949Y-75212022D01*
X157575948Y-75212022D01*
X157387008Y-75133761D01*
X157216966Y-75020142D01*
X157216963Y-75020140D01*
X157072360Y-74875537D01*
X157070824Y-74873239D01*
X156958739Y-74705492D01*
X156880478Y-74516552D01*
X156840580Y-74315974D01*
X156840580Y-74111465D01*
X156880477Y-73910891D01*
X156880478Y-73910888D01*
X156958739Y-73721948D01*
X157072358Y-73551906D01*
X157072360Y-73551903D01*
X157216963Y-73407300D01*
X157387007Y-73293680D01*
X157387008Y-73293679D01*
X157575948Y-73215418D01*
X157575949Y-73215418D01*
X157575951Y-73215417D01*
X157776525Y-73175520D01*
X157981035Y-73175520D01*
X158181609Y-73215417D01*
X158181609Y-73215417D01*
G37*
G36*
X176865980Y-73941620D02*
X175365980Y-73941620D01*
X175365980Y-68941620D01*
X176865980Y-68941620D01*
X176865980Y-73941620D01*
X176865980Y-73941620D01*
G37*
G36*
X174325980Y-73941620D02*
X172825980Y-73941620D01*
X172825980Y-68941620D01*
X174325980Y-68941620D01*
X174325980Y-73941620D01*
X174325980Y-73941620D01*
G37*
G36*
X179405980Y-73941620D02*
X177905980Y-73941620D01*
X177905980Y-68941620D01*
X179405980Y-68941620D01*
X179405980Y-73941620D01*
X179405980Y-73941620D01*
G37*
G36*
X184524482Y-70616546D02*
X184569204Y-70630113D01*
X184610433Y-70652150D01*
X184646561Y-70681799D01*
X184676210Y-70717927D01*
X184698247Y-70759156D01*
X184711814Y-70803878D01*
X184717000Y-70856535D01*
X184717000Y-72191185D01*
X184711814Y-72243842D01*
X184698247Y-72288564D01*
X184676210Y-72329793D01*
X184646561Y-72365921D01*
X184610433Y-72395570D01*
X184569204Y-72417607D01*
X184524482Y-72431174D01*
X184471825Y-72436360D01*
X182812175Y-72436360D01*
X182759518Y-72431174D01*
X182714796Y-72417607D01*
X182673567Y-72395570D01*
X182637439Y-72365921D01*
X182607790Y-72329793D01*
X182585753Y-72288564D01*
X182572186Y-72243842D01*
X182567000Y-72191185D01*
X182567000Y-70856535D01*
X182572186Y-70803878D01*
X182585753Y-70759156D01*
X182607790Y-70717927D01*
X182637439Y-70681799D01*
X182673567Y-70652150D01*
X182714796Y-70630113D01*
X182759518Y-70616546D01*
X182812175Y-70611360D01*
X184471825Y-70611360D01*
X184524482Y-70616546D01*
X184524482Y-70616546D01*
G37*
G36*
X189214000Y-71612000D02*
X187214000Y-71612000D01*
X187214000Y-69612000D01*
X189214000Y-69612000D01*
X189214000Y-71612000D01*
X189214000Y-71612000D01*
G37*
G36*
X122875857Y-69427272D02*
X123076042Y-69510191D01*
X123076045Y-69510193D01*
X123228410Y-69612000D01*
X123256213Y-69630578D01*
X123409422Y-69783787D01*
X123409424Y-69783790D01*
X123409425Y-69783791D01*
X123417082Y-69795251D01*
X123529809Y-69963958D01*
X123612728Y-70164143D01*
X123655000Y-70376658D01*
X123655000Y-70593342D01*
X123612728Y-70805857D01*
X123529809Y-71006042D01*
X123409422Y-71186213D01*
X123256213Y-71339422D01*
X123076042Y-71459809D01*
X122875857Y-71542728D01*
X122663342Y-71585000D01*
X122446658Y-71585000D01*
X122234143Y-71542728D01*
X122033958Y-71459809D01*
X121853787Y-71339422D01*
X121700578Y-71186213D01*
X121580191Y-71006042D01*
X121497272Y-70805857D01*
X121455000Y-70593342D01*
X121455000Y-70376658D01*
X121497272Y-70164143D01*
X121580191Y-69963958D01*
X121692918Y-69795251D01*
X121700575Y-69783791D01*
X121700576Y-69783790D01*
X121700578Y-69783787D01*
X121853787Y-69630578D01*
X121881591Y-69612000D01*
X122033955Y-69510193D01*
X122033958Y-69510191D01*
X122234143Y-69427272D01*
X122446658Y-69385000D01*
X122663342Y-69385000D01*
X122875857Y-69427272D01*
X122875857Y-69427272D01*
G37*
G36*
X121115000Y-71585000D02*
X118915000Y-71585000D01*
X118915000Y-69385000D01*
X121115000Y-69385000D01*
X121115000Y-71585000D01*
X121115000Y-71585000D01*
G37*
G36*
X164160603Y-68964968D02*
X164160606Y-68964969D01*
X164160605Y-68964969D01*
X164335678Y-69037486D01*
X164335679Y-69037487D01*
X164493241Y-69142767D01*
X164627233Y-69276759D01*
X164627234Y-69276761D01*
X164732514Y-69434322D01*
X164788603Y-69569734D01*
X164805032Y-69609397D01*
X164842000Y-69795250D01*
X164842000Y-69984750D01*
X164805032Y-70170603D01*
X164805031Y-70170605D01*
X164732514Y-70345678D01*
X164711813Y-70376659D01*
X164627233Y-70503241D01*
X164493241Y-70637233D01*
X164413923Y-70690232D01*
X164335678Y-70742514D01*
X164200266Y-70798603D01*
X164160603Y-70815032D01*
X163974750Y-70852000D01*
X163785250Y-70852000D01*
X163599397Y-70815032D01*
X163559734Y-70798603D01*
X163424322Y-70742514D01*
X163346077Y-70690232D01*
X163266759Y-70637233D01*
X163132767Y-70503241D01*
X163048187Y-70376659D01*
X163027486Y-70345678D01*
X162954969Y-70170605D01*
X162954968Y-70170603D01*
X162918000Y-69984750D01*
X162918000Y-69795250D01*
X162954968Y-69609397D01*
X162971397Y-69569734D01*
X163027486Y-69434322D01*
X163132766Y-69276761D01*
X163132767Y-69276759D01*
X163266759Y-69142767D01*
X163424321Y-69037487D01*
X163424322Y-69037486D01*
X163599395Y-68964969D01*
X163599394Y-68964969D01*
X163599397Y-68964968D01*
X163785250Y-68928000D01*
X163974750Y-68928000D01*
X164160603Y-68964968D01*
X164160603Y-68964968D01*
G37*
G36*
X184524482Y-67641546D02*
X184569204Y-67655113D01*
X184610433Y-67677150D01*
X184646561Y-67706799D01*
X184676210Y-67742927D01*
X184698247Y-67784156D01*
X184711814Y-67828878D01*
X184717000Y-67881535D01*
X184717000Y-69216185D01*
X184711814Y-69268842D01*
X184698247Y-69313564D01*
X184676210Y-69354793D01*
X184646561Y-69390921D01*
X184610433Y-69420570D01*
X184569204Y-69442607D01*
X184524482Y-69456174D01*
X184471825Y-69461360D01*
X182812175Y-69461360D01*
X182759518Y-69456174D01*
X182714796Y-69442607D01*
X182673567Y-69420570D01*
X182637439Y-69390921D01*
X182607790Y-69354793D01*
X182585753Y-69313564D01*
X182572186Y-69268842D01*
X182567000Y-69216185D01*
X182567000Y-67881535D01*
X182572186Y-67828878D01*
X182585753Y-67784156D01*
X182607790Y-67742927D01*
X182637439Y-67706799D01*
X182673567Y-67677150D01*
X182714796Y-67655113D01*
X182759518Y-67641546D01*
X182812175Y-67636360D01*
X184471825Y-67636360D01*
X184524482Y-67641546D01*
X184524482Y-67641546D01*
G37*
G36*
X194662227Y-67110876D02*
X194739356Y-67118473D01*
X194844701Y-67150429D01*
X194937283Y-67178513D01*
X195119692Y-67276013D01*
X195279574Y-67407226D01*
X195410787Y-67567108D01*
X195508287Y-67749517D01*
X195508287Y-67749518D01*
X195568327Y-67947444D01*
X195588600Y-68153280D01*
X195568327Y-68359116D01*
X195554806Y-68403689D01*
X195508287Y-68557043D01*
X195410787Y-68739452D01*
X195279574Y-68899334D01*
X195119692Y-69030547D01*
X194937283Y-69128047D01*
X194893975Y-69141184D01*
X194739356Y-69188087D01*
X194662227Y-69195683D01*
X194585100Y-69203280D01*
X194481940Y-69203280D01*
X194404813Y-69195683D01*
X194327684Y-69188087D01*
X194173065Y-69141184D01*
X194129757Y-69128047D01*
X193947348Y-69030547D01*
X193787466Y-68899334D01*
X193656253Y-68739452D01*
X193558753Y-68557043D01*
X193512234Y-68403689D01*
X193498713Y-68359116D01*
X193478440Y-68153280D01*
X193498713Y-67947444D01*
X193558753Y-67749518D01*
X193558753Y-67749517D01*
X193656253Y-67567108D01*
X193787466Y-67407226D01*
X193947348Y-67276013D01*
X194129757Y-67178513D01*
X194222339Y-67150429D01*
X194327684Y-67118473D01*
X194404813Y-67110876D01*
X194481940Y-67103280D01*
X194585100Y-67103280D01*
X194662227Y-67110876D01*
X194662227Y-67110876D01*
G37*
G36*
X199088720Y-69152480D02*
X196988720Y-69152480D01*
X196988720Y-67052480D01*
X199088720Y-67052480D01*
X199088720Y-69152480D01*
X199088720Y-69152480D01*
G37*
G36*
X188389770Y-67127372D02*
X188505689Y-67150429D01*
X188687678Y-67225811D01*
X188851463Y-67335249D01*
X188990751Y-67474537D01*
X189100189Y-67638322D01*
X189175571Y-67820311D01*
X189214000Y-68013509D01*
X189214000Y-68210491D01*
X189175571Y-68403689D01*
X189100189Y-68585678D01*
X188990751Y-68749463D01*
X188851463Y-68888751D01*
X188687678Y-68998189D01*
X188505689Y-69073571D01*
X188389770Y-69096628D01*
X188312493Y-69112000D01*
X188115507Y-69112000D01*
X188038230Y-69096628D01*
X187922311Y-69073571D01*
X187740322Y-68998189D01*
X187576537Y-68888751D01*
X187437249Y-68749463D01*
X187327811Y-68585678D01*
X187252429Y-68403689D01*
X187214000Y-68210491D01*
X187214000Y-68013509D01*
X187252429Y-67820311D01*
X187327811Y-67638322D01*
X187437249Y-67474537D01*
X187576537Y-67335249D01*
X187740322Y-67225811D01*
X187922311Y-67150429D01*
X188038230Y-67127372D01*
X188115507Y-67112000D01*
X188312493Y-67112000D01*
X188389770Y-67127372D01*
X188389770Y-67127372D01*
G37*
G36*
X168450770Y-66960372D02*
X168566689Y-66983429D01*
X168748678Y-67058811D01*
X168912463Y-67168249D01*
X169051751Y-67307537D01*
X169161189Y-67471322D01*
X169236571Y-67653311D01*
X169275000Y-67846509D01*
X169275000Y-68043491D01*
X169236571Y-68236689D01*
X169161189Y-68418678D01*
X169051751Y-68582463D01*
X168912463Y-68721751D01*
X168748678Y-68831189D01*
X168566689Y-68906571D01*
X168458957Y-68928000D01*
X168373493Y-68945000D01*
X168176507Y-68945000D01*
X168091043Y-68928000D01*
X167983311Y-68906571D01*
X167801322Y-68831189D01*
X167637537Y-68721751D01*
X167498249Y-68582463D01*
X167388811Y-68418678D01*
X167313429Y-68236689D01*
X167275000Y-68043491D01*
X167275000Y-67846509D01*
X167313429Y-67653311D01*
X167388811Y-67471322D01*
X167498249Y-67307537D01*
X167637537Y-67168249D01*
X167801322Y-67058811D01*
X167983311Y-66983429D01*
X168099230Y-66960372D01*
X168176507Y-66945000D01*
X168373493Y-66945000D01*
X168450770Y-66960372D01*
X168450770Y-66960372D01*
G37*
G36*
X137356030Y-66959469D02*
X137356033Y-66959470D01*
X137356034Y-66959470D01*
X137544535Y-67016651D01*
X137544537Y-67016652D01*
X137718260Y-67109509D01*
X137870528Y-67234472D01*
X137995491Y-67386740D01*
X138063385Y-67513760D01*
X138088349Y-67560465D01*
X138132739Y-67706799D01*
X138145531Y-67748970D01*
X138164838Y-67945000D01*
X138145531Y-68141030D01*
X138145530Y-68141033D01*
X138145530Y-68141034D01*
X138124461Y-68210491D01*
X138088348Y-68329537D01*
X137995491Y-68503260D01*
X137870528Y-68655528D01*
X137718260Y-68780491D01*
X137718258Y-68780492D01*
X137544535Y-68873349D01*
X137356034Y-68930530D01*
X137356033Y-68930530D01*
X137356030Y-68930531D01*
X137209124Y-68945000D01*
X137110876Y-68945000D01*
X136963970Y-68930531D01*
X136963967Y-68930530D01*
X136963966Y-68930530D01*
X136775465Y-68873349D01*
X136601742Y-68780492D01*
X136601740Y-68780491D01*
X136449472Y-68655528D01*
X136324509Y-68503260D01*
X136231652Y-68329537D01*
X136195540Y-68210491D01*
X136174470Y-68141034D01*
X136174470Y-68141033D01*
X136174469Y-68141030D01*
X136155162Y-67945000D01*
X136174469Y-67748970D01*
X136187261Y-67706799D01*
X136231651Y-67560465D01*
X136256615Y-67513760D01*
X136324509Y-67386740D01*
X136449472Y-67234472D01*
X136601740Y-67109509D01*
X136775463Y-67016652D01*
X136775465Y-67016651D01*
X136963966Y-66959470D01*
X136963967Y-66959470D01*
X136963970Y-66959469D01*
X137110876Y-66945000D01*
X137209124Y-66945000D01*
X137356030Y-66959469D01*
X137356030Y-66959469D01*
G37*
G36*
X127175770Y-66960372D02*
X127291689Y-66983429D01*
X127473678Y-67058811D01*
X127637463Y-67168249D01*
X127776751Y-67307537D01*
X127886189Y-67471322D01*
X127961571Y-67653311D01*
X128000000Y-67846509D01*
X128000000Y-68043491D01*
X127961571Y-68236689D01*
X127886189Y-68418678D01*
X127776751Y-68582463D01*
X127637463Y-68721751D01*
X127473678Y-68831189D01*
X127291689Y-68906571D01*
X127183957Y-68928000D01*
X127098493Y-68945000D01*
X126901507Y-68945000D01*
X126816043Y-68928000D01*
X126708311Y-68906571D01*
X126526322Y-68831189D01*
X126362537Y-68721751D01*
X126223249Y-68582463D01*
X126113811Y-68418678D01*
X126038429Y-68236689D01*
X126000000Y-68043491D01*
X126000000Y-67846509D01*
X126038429Y-67653311D01*
X126113811Y-67471322D01*
X126223249Y-67307537D01*
X126362537Y-67168249D01*
X126526322Y-67058811D01*
X126708311Y-66983429D01*
X126824230Y-66960372D01*
X126901507Y-66945000D01*
X127098493Y-66945000D01*
X127175770Y-66960372D01*
X127175770Y-66960372D01*
G37*
G36*
X155641609Y-65595417D02*
X155641611Y-65595418D01*
X155641612Y-65595418D01*
X155830552Y-65673679D01*
X155981532Y-65774561D01*
X156000597Y-65787300D01*
X156145200Y-65931903D01*
X156145202Y-65931906D01*
X156258821Y-66101948D01*
X156278166Y-66148652D01*
X156337083Y-66290891D01*
X156376980Y-66491465D01*
X156376980Y-66695974D01*
X156337082Y-66896552D01*
X156258821Y-67085492D01*
X156196666Y-67178513D01*
X156145200Y-67255537D01*
X156000597Y-67400140D01*
X156000594Y-67400142D01*
X155830552Y-67513761D01*
X155641612Y-67592022D01*
X155641611Y-67592022D01*
X155641609Y-67592023D01*
X155441035Y-67631920D01*
X155236525Y-67631920D01*
X155035951Y-67592023D01*
X155035949Y-67592022D01*
X155035948Y-67592022D01*
X154847008Y-67513761D01*
X154676966Y-67400142D01*
X154676963Y-67400140D01*
X154532360Y-67255537D01*
X154480894Y-67178513D01*
X154418739Y-67085492D01*
X154340478Y-66896552D01*
X154300580Y-66695974D01*
X154300580Y-66491465D01*
X154340477Y-66290891D01*
X154399394Y-66148652D01*
X154418739Y-66101948D01*
X154532358Y-65931906D01*
X154532360Y-65931903D01*
X154676963Y-65787300D01*
X154696028Y-65774561D01*
X154847008Y-65673679D01*
X155035948Y-65595418D01*
X155035949Y-65595418D01*
X155035951Y-65595417D01*
X155236525Y-65555520D01*
X155441035Y-65555520D01*
X155641609Y-65595417D01*
X155641609Y-65595417D01*
G37*
G36*
X148021609Y-65595417D02*
X148021611Y-65595418D01*
X148021612Y-65595418D01*
X148210552Y-65673679D01*
X148361532Y-65774561D01*
X148380597Y-65787300D01*
X148525200Y-65931903D01*
X148525202Y-65931906D01*
X148638821Y-66101948D01*
X148658166Y-66148652D01*
X148717083Y-66290891D01*
X148756980Y-66491465D01*
X148756980Y-66695974D01*
X148717082Y-66896552D01*
X148638821Y-67085492D01*
X148576666Y-67178513D01*
X148525200Y-67255537D01*
X148380597Y-67400140D01*
X148380594Y-67400142D01*
X148210552Y-67513761D01*
X148021612Y-67592022D01*
X148021611Y-67592022D01*
X148021609Y-67592023D01*
X147821035Y-67631920D01*
X147616525Y-67631920D01*
X147415951Y-67592023D01*
X147415949Y-67592022D01*
X147415948Y-67592022D01*
X147227008Y-67513761D01*
X147056966Y-67400142D01*
X147056963Y-67400140D01*
X146912360Y-67255537D01*
X146860894Y-67178513D01*
X146798739Y-67085492D01*
X146720478Y-66896552D01*
X146680580Y-66695974D01*
X146680580Y-66491465D01*
X146720477Y-66290891D01*
X146779394Y-66148652D01*
X146798739Y-66101948D01*
X146912358Y-65931906D01*
X146912360Y-65931903D01*
X147056963Y-65787300D01*
X147076028Y-65774561D01*
X147227008Y-65673679D01*
X147415948Y-65595418D01*
X147415949Y-65595418D01*
X147415951Y-65595417D01*
X147616525Y-65555520D01*
X147821035Y-65555520D01*
X148021609Y-65595417D01*
X148021609Y-65595417D01*
G37*
G36*
X140401609Y-65595417D02*
X140401611Y-65595418D01*
X140401612Y-65595418D01*
X140590552Y-65673679D01*
X140741532Y-65774561D01*
X140760597Y-65787300D01*
X140905200Y-65931903D01*
X140905202Y-65931906D01*
X141018821Y-66101948D01*
X141038166Y-66148652D01*
X141097083Y-66290891D01*
X141136980Y-66491465D01*
X141136980Y-66695974D01*
X141097082Y-66896552D01*
X141018821Y-67085492D01*
X140956666Y-67178513D01*
X140905200Y-67255537D01*
X140760597Y-67400140D01*
X140760594Y-67400142D01*
X140590552Y-67513761D01*
X140401612Y-67592022D01*
X140401611Y-67592022D01*
X140401609Y-67592023D01*
X140201035Y-67631920D01*
X139996525Y-67631920D01*
X139795951Y-67592023D01*
X139795949Y-67592022D01*
X139795948Y-67592022D01*
X139607008Y-67513761D01*
X139436966Y-67400142D01*
X139436963Y-67400140D01*
X139292360Y-67255537D01*
X139240894Y-67178513D01*
X139178739Y-67085492D01*
X139100478Y-66896552D01*
X139060580Y-66695974D01*
X139060580Y-66491465D01*
X139100477Y-66290891D01*
X139159394Y-66148652D01*
X139178739Y-66101948D01*
X139292358Y-65931906D01*
X139292360Y-65931903D01*
X139436963Y-65787300D01*
X139456028Y-65774561D01*
X139607008Y-65673679D01*
X139795948Y-65595418D01*
X139795949Y-65595418D01*
X139795951Y-65595417D01*
X139996525Y-65555520D01*
X140201035Y-65555520D01*
X140401609Y-65595417D01*
X140401609Y-65595417D01*
G37*
G36*
X142941609Y-65595417D02*
X142941611Y-65595418D01*
X142941612Y-65595418D01*
X143130552Y-65673679D01*
X143281532Y-65774561D01*
X143300597Y-65787300D01*
X143445200Y-65931903D01*
X143445202Y-65931906D01*
X143558821Y-66101948D01*
X143578166Y-66148652D01*
X143637083Y-66290891D01*
X143676980Y-66491465D01*
X143676980Y-66695974D01*
X143637082Y-66896552D01*
X143558821Y-67085492D01*
X143496666Y-67178513D01*
X143445200Y-67255537D01*
X143300597Y-67400140D01*
X143300594Y-67400142D01*
X143130552Y-67513761D01*
X142941612Y-67592022D01*
X142941611Y-67592022D01*
X142941609Y-67592023D01*
X142741035Y-67631920D01*
X142536525Y-67631920D01*
X142335951Y-67592023D01*
X142335949Y-67592022D01*
X142335948Y-67592022D01*
X142147008Y-67513761D01*
X141976966Y-67400142D01*
X141976963Y-67400140D01*
X141832360Y-67255537D01*
X141780894Y-67178513D01*
X141718739Y-67085492D01*
X141640478Y-66896552D01*
X141600580Y-66695974D01*
X141600580Y-66491465D01*
X141640477Y-66290891D01*
X141699394Y-66148652D01*
X141718739Y-66101948D01*
X141832358Y-65931906D01*
X141832360Y-65931903D01*
X141976963Y-65787300D01*
X141996028Y-65774561D01*
X142147008Y-65673679D01*
X142335948Y-65595418D01*
X142335949Y-65595418D01*
X142335951Y-65595417D01*
X142536525Y-65555520D01*
X142741035Y-65555520D01*
X142941609Y-65595417D01*
X142941609Y-65595417D01*
G37*
G36*
X158181609Y-65595417D02*
X158181611Y-65595418D01*
X158181612Y-65595418D01*
X158370552Y-65673679D01*
X158521532Y-65774561D01*
X158540597Y-65787300D01*
X158685200Y-65931903D01*
X158685202Y-65931906D01*
X158798821Y-66101948D01*
X158818166Y-66148652D01*
X158877083Y-66290891D01*
X158916980Y-66491465D01*
X158916980Y-66695974D01*
X158877082Y-66896552D01*
X158798821Y-67085492D01*
X158736666Y-67178513D01*
X158685200Y-67255537D01*
X158540597Y-67400140D01*
X158540594Y-67400142D01*
X158370552Y-67513761D01*
X158181612Y-67592022D01*
X158181611Y-67592022D01*
X158181609Y-67592023D01*
X157981035Y-67631920D01*
X157776525Y-67631920D01*
X157575951Y-67592023D01*
X157575949Y-67592022D01*
X157575948Y-67592022D01*
X157387008Y-67513761D01*
X157216966Y-67400142D01*
X157216963Y-67400140D01*
X157072360Y-67255537D01*
X157020894Y-67178513D01*
X156958739Y-67085492D01*
X156880478Y-66896552D01*
X156840580Y-66695974D01*
X156840580Y-66491465D01*
X156880477Y-66290891D01*
X156939394Y-66148652D01*
X156958739Y-66101948D01*
X157072358Y-65931906D01*
X157072360Y-65931903D01*
X157216963Y-65787300D01*
X157236028Y-65774561D01*
X157387008Y-65673679D01*
X157575948Y-65595418D01*
X157575949Y-65595418D01*
X157575951Y-65595417D01*
X157776525Y-65555520D01*
X157981035Y-65555520D01*
X158181609Y-65595417D01*
X158181609Y-65595417D01*
G37*
G36*
X153101609Y-65595417D02*
X153101611Y-65595418D01*
X153101612Y-65595418D01*
X153290552Y-65673679D01*
X153441532Y-65774561D01*
X153460597Y-65787300D01*
X153605200Y-65931903D01*
X153605202Y-65931906D01*
X153718821Y-66101948D01*
X153738166Y-66148652D01*
X153797083Y-66290891D01*
X153836980Y-66491465D01*
X153836980Y-66695974D01*
X153797082Y-66896552D01*
X153718821Y-67085492D01*
X153656666Y-67178513D01*
X153605200Y-67255537D01*
X153460597Y-67400140D01*
X153460594Y-67400142D01*
X153290552Y-67513761D01*
X153101612Y-67592022D01*
X153101611Y-67592022D01*
X153101609Y-67592023D01*
X152901035Y-67631920D01*
X152696525Y-67631920D01*
X152495951Y-67592023D01*
X152495949Y-67592022D01*
X152495948Y-67592022D01*
X152307008Y-67513761D01*
X152136966Y-67400142D01*
X152136963Y-67400140D01*
X151992360Y-67255537D01*
X151940894Y-67178513D01*
X151878739Y-67085492D01*
X151800478Y-66896552D01*
X151760580Y-66695974D01*
X151760580Y-66491465D01*
X151800477Y-66290891D01*
X151859394Y-66148652D01*
X151878739Y-66101948D01*
X151992358Y-65931906D01*
X151992360Y-65931903D01*
X152136963Y-65787300D01*
X152156028Y-65774561D01*
X152307008Y-65673679D01*
X152495948Y-65595418D01*
X152495949Y-65595418D01*
X152495951Y-65595417D01*
X152696525Y-65555520D01*
X152901035Y-65555520D01*
X153101609Y-65595417D01*
X153101609Y-65595417D01*
G37*
G36*
X145481609Y-65595417D02*
X145481611Y-65595418D01*
X145481612Y-65595418D01*
X145670552Y-65673679D01*
X145821532Y-65774561D01*
X145840597Y-65787300D01*
X145985200Y-65931903D01*
X145985202Y-65931906D01*
X146098821Y-66101948D01*
X146118166Y-66148652D01*
X146177083Y-66290891D01*
X146216980Y-66491465D01*
X146216980Y-66695974D01*
X146177082Y-66896552D01*
X146098821Y-67085492D01*
X146036666Y-67178513D01*
X145985200Y-67255537D01*
X145840597Y-67400140D01*
X145840594Y-67400142D01*
X145670552Y-67513761D01*
X145481612Y-67592022D01*
X145481611Y-67592022D01*
X145481609Y-67592023D01*
X145281035Y-67631920D01*
X145076525Y-67631920D01*
X144875951Y-67592023D01*
X144875949Y-67592022D01*
X144875948Y-67592022D01*
X144687008Y-67513761D01*
X144516966Y-67400142D01*
X144516963Y-67400140D01*
X144372360Y-67255537D01*
X144320894Y-67178513D01*
X144258739Y-67085492D01*
X144180478Y-66896552D01*
X144140580Y-66695974D01*
X144140580Y-66491465D01*
X144180477Y-66290891D01*
X144239394Y-66148652D01*
X144258739Y-66101948D01*
X144372358Y-65931906D01*
X144372360Y-65931903D01*
X144516963Y-65787300D01*
X144536028Y-65774561D01*
X144687008Y-65673679D01*
X144875948Y-65595418D01*
X144875949Y-65595418D01*
X144875951Y-65595417D01*
X145076525Y-65555520D01*
X145281035Y-65555520D01*
X145481609Y-65595417D01*
X145481609Y-65595417D01*
G37*
G36*
X150561609Y-65595417D02*
X150561611Y-65595418D01*
X150561612Y-65595418D01*
X150750552Y-65673679D01*
X150901532Y-65774561D01*
X150920597Y-65787300D01*
X151065200Y-65931903D01*
X151065202Y-65931906D01*
X151178821Y-66101948D01*
X151198166Y-66148652D01*
X151257083Y-66290891D01*
X151296980Y-66491465D01*
X151296980Y-66695974D01*
X151257082Y-66896552D01*
X151178821Y-67085492D01*
X151116666Y-67178513D01*
X151065200Y-67255537D01*
X150920597Y-67400140D01*
X150920594Y-67400142D01*
X150750552Y-67513761D01*
X150561612Y-67592022D01*
X150561611Y-67592022D01*
X150561609Y-67592023D01*
X150361035Y-67631920D01*
X150156525Y-67631920D01*
X149955951Y-67592023D01*
X149955949Y-67592022D01*
X149955948Y-67592022D01*
X149767008Y-67513761D01*
X149596966Y-67400142D01*
X149596963Y-67400140D01*
X149452360Y-67255537D01*
X149400894Y-67178513D01*
X149338739Y-67085492D01*
X149260478Y-66896552D01*
X149220580Y-66695974D01*
X149220580Y-66491465D01*
X149260477Y-66290891D01*
X149319394Y-66148652D01*
X149338739Y-66101948D01*
X149452358Y-65931906D01*
X149452360Y-65931903D01*
X149596963Y-65787300D01*
X149616028Y-65774561D01*
X149767008Y-65673679D01*
X149955948Y-65595418D01*
X149955949Y-65595418D01*
X149955951Y-65595417D01*
X150156525Y-65555520D01*
X150361035Y-65555520D01*
X150561609Y-65595417D01*
X150561609Y-65595417D01*
G37*
G36*
X181715980Y-67191620D02*
X170515980Y-67191620D01*
X170515980Y-57391620D01*
X181715980Y-57391620D01*
X181715980Y-67191620D01*
X181715980Y-67191620D01*
G37*
G36*
X195583520Y-66663280D02*
X193483520Y-66663280D01*
X193483520Y-64563280D01*
X195583520Y-64563280D01*
X195583520Y-66663280D01*
X195583520Y-66663280D01*
G37*
G36*
X198161929Y-64519535D02*
X198244556Y-64527673D01*
X198361937Y-64563280D01*
X198442483Y-64587713D01*
X198624892Y-64685213D01*
X198784774Y-64816426D01*
X198915987Y-64976308D01*
X199013487Y-65158717D01*
X199023804Y-65192728D01*
X199073527Y-65356644D01*
X199093800Y-65562480D01*
X199073527Y-65768316D01*
X199057658Y-65820628D01*
X199013487Y-65966243D01*
X198915987Y-66148652D01*
X198784774Y-66308534D01*
X198624892Y-66439747D01*
X198442483Y-66537247D01*
X198376507Y-66557260D01*
X198244556Y-66597287D01*
X198167427Y-66604884D01*
X198090300Y-66612480D01*
X197987140Y-66612480D01*
X197910013Y-66604884D01*
X197832884Y-66597287D01*
X197700933Y-66557260D01*
X197634957Y-66537247D01*
X197452548Y-66439747D01*
X197292666Y-66308534D01*
X197161453Y-66148652D01*
X197063953Y-65966243D01*
X197019782Y-65820628D01*
X197003913Y-65768316D01*
X196983640Y-65562480D01*
X197003913Y-65356644D01*
X197053636Y-65192728D01*
X197063953Y-65158717D01*
X197161453Y-64976308D01*
X197292666Y-64816426D01*
X197452548Y-64685213D01*
X197634957Y-64587713D01*
X197715503Y-64563280D01*
X197832884Y-64527673D01*
X197915511Y-64519535D01*
X197987140Y-64512480D01*
X198090300Y-64512480D01*
X198161929Y-64519535D01*
X198161929Y-64519535D01*
G37*
G36*
X190457982Y-63700186D02*
X190502704Y-63713753D01*
X190543933Y-63735790D01*
X190580061Y-63765439D01*
X190609710Y-63801567D01*
X190631747Y-63842796D01*
X190645314Y-63887518D01*
X190650500Y-63940175D01*
X190650500Y-65599825D01*
X190645314Y-65652482D01*
X190631747Y-65697204D01*
X190609710Y-65738433D01*
X190580061Y-65774561D01*
X190543933Y-65804210D01*
X190502704Y-65826247D01*
X190457982Y-65839814D01*
X190405325Y-65845000D01*
X189070675Y-65845000D01*
X189018018Y-65839814D01*
X188973296Y-65826247D01*
X188932067Y-65804210D01*
X188895939Y-65774561D01*
X188866290Y-65738433D01*
X188844253Y-65697204D01*
X188830686Y-65652482D01*
X188825500Y-65599825D01*
X188825500Y-63940175D01*
X188830686Y-63887518D01*
X188844253Y-63842796D01*
X188866290Y-63801567D01*
X188895939Y-63765439D01*
X188932067Y-63735790D01*
X188973296Y-63713753D01*
X189018018Y-63700186D01*
X189070675Y-63695000D01*
X190405325Y-63695000D01*
X190457982Y-63700186D01*
X190457982Y-63700186D01*
G37*
G36*
X187482982Y-63700186D02*
X187527704Y-63713753D01*
X187568933Y-63735790D01*
X187605061Y-63765439D01*
X187634710Y-63801567D01*
X187656747Y-63842796D01*
X187670314Y-63887518D01*
X187675500Y-63940175D01*
X187675500Y-65599825D01*
X187670314Y-65652482D01*
X187656747Y-65697204D01*
X187634710Y-65738433D01*
X187605061Y-65774561D01*
X187568933Y-65804210D01*
X187527704Y-65826247D01*
X187482982Y-65839814D01*
X187430325Y-65845000D01*
X186095675Y-65845000D01*
X186043018Y-65839814D01*
X185998296Y-65826247D01*
X185957067Y-65804210D01*
X185920939Y-65774561D01*
X185891290Y-65738433D01*
X185869253Y-65697204D01*
X185855686Y-65652482D01*
X185850500Y-65599825D01*
X185850500Y-63940175D01*
X185855686Y-63887518D01*
X185869253Y-63842796D01*
X185891290Y-63801567D01*
X185920939Y-63765439D01*
X185957067Y-63735790D01*
X185998296Y-63713753D01*
X186043018Y-63700186D01*
X186095675Y-63695000D01*
X187430325Y-63695000D01*
X187482982Y-63700186D01*
X187482982Y-63700186D01*
G37*
G36*
X121115000Y-65235000D02*
X118915000Y-65235000D01*
X118915000Y-63035000D01*
X121115000Y-63035000D01*
X121115000Y-65235000D01*
X121115000Y-65235000D01*
G37*
G36*
X122875857Y-63077272D02*
X123076042Y-63160191D01*
X123076045Y-63160193D01*
X123161214Y-63217101D01*
X123256213Y-63280578D01*
X123409422Y-63433787D01*
X123409424Y-63433790D01*
X123409425Y-63433791D01*
X123443642Y-63485000D01*
X123529809Y-63613958D01*
X123612728Y-63814143D01*
X123655000Y-64026658D01*
X123655000Y-64243342D01*
X123612728Y-64455857D01*
X123529809Y-64656042D01*
X123529807Y-64656045D01*
X123422644Y-64816426D01*
X123409422Y-64836213D01*
X123256213Y-64989422D01*
X123256210Y-64989424D01*
X123256209Y-64989425D01*
X123145574Y-65063349D01*
X123076042Y-65109809D01*
X122875857Y-65192728D01*
X122663342Y-65235000D01*
X122446658Y-65235000D01*
X122234143Y-65192728D01*
X122033958Y-65109809D01*
X121964426Y-65063349D01*
X121853791Y-64989425D01*
X121853790Y-64989424D01*
X121853787Y-64989422D01*
X121700578Y-64836213D01*
X121687357Y-64816426D01*
X121580193Y-64656045D01*
X121580191Y-64656042D01*
X121497272Y-64455857D01*
X121455000Y-64243342D01*
X121455000Y-64026658D01*
X121497272Y-63814143D01*
X121580191Y-63613958D01*
X121666358Y-63485000D01*
X121700575Y-63433791D01*
X121700576Y-63433790D01*
X121700578Y-63433787D01*
X121853787Y-63280578D01*
X121948787Y-63217101D01*
X122033955Y-63160193D01*
X122033958Y-63160191D01*
X122234143Y-63077272D01*
X122446658Y-63035000D01*
X122663342Y-63035000D01*
X122875857Y-63077272D01*
X122875857Y-63077272D01*
G37*
G36*
X148151030Y-63149469D02*
X148151033Y-63149470D01*
X148151034Y-63149470D01*
X148339535Y-63206651D01*
X148339537Y-63206652D01*
X148513260Y-63299509D01*
X148665528Y-63424472D01*
X148790491Y-63576740D01*
X148790492Y-63576742D01*
X148883349Y-63750465D01*
X148902665Y-63814142D01*
X148940531Y-63938970D01*
X148959838Y-64135000D01*
X148940531Y-64331030D01*
X148883348Y-64519537D01*
X148790491Y-64693260D01*
X148665528Y-64845528D01*
X148513260Y-64970491D01*
X148513258Y-64970492D01*
X148339535Y-65063349D01*
X148151034Y-65120530D01*
X148151033Y-65120530D01*
X148151030Y-65120531D01*
X148004124Y-65135000D01*
X147905876Y-65135000D01*
X147758970Y-65120531D01*
X147758967Y-65120530D01*
X147758966Y-65120530D01*
X147570465Y-65063349D01*
X147396742Y-64970492D01*
X147396740Y-64970491D01*
X147244472Y-64845528D01*
X147119509Y-64693260D01*
X147026652Y-64519537D01*
X146969469Y-64331030D01*
X146950162Y-64135000D01*
X146969469Y-63938970D01*
X147007335Y-63814142D01*
X147026651Y-63750465D01*
X147119508Y-63576742D01*
X147119509Y-63576740D01*
X147244472Y-63424472D01*
X147396740Y-63299509D01*
X147570463Y-63206652D01*
X147570465Y-63206651D01*
X147758966Y-63149470D01*
X147758967Y-63149470D01*
X147758970Y-63149469D01*
X147905876Y-63135000D01*
X148004124Y-63135000D01*
X148151030Y-63149469D01*
X148151030Y-63149469D01*
G37*
G36*
X137970770Y-63150372D02*
X138086689Y-63173429D01*
X138268678Y-63248811D01*
X138432463Y-63358249D01*
X138571751Y-63497537D01*
X138681189Y-63661322D01*
X138756571Y-63843311D01*
X138795000Y-64036509D01*
X138795000Y-64233491D01*
X138756571Y-64426689D01*
X138681189Y-64608678D01*
X138571751Y-64772463D01*
X138432463Y-64911751D01*
X138268678Y-65021189D01*
X138086689Y-65096571D01*
X137970770Y-65119628D01*
X137893493Y-65135000D01*
X137696507Y-65135000D01*
X137619230Y-65119628D01*
X137503311Y-65096571D01*
X137321322Y-65021189D01*
X137157537Y-64911751D01*
X137018249Y-64772463D01*
X136908811Y-64608678D01*
X136833429Y-64426689D01*
X136795000Y-64233491D01*
X136795000Y-64036509D01*
X136833429Y-63843311D01*
X136908811Y-63661322D01*
X137018249Y-63497537D01*
X137157537Y-63358249D01*
X137321322Y-63248811D01*
X137503311Y-63173429D01*
X137619230Y-63150372D01*
X137696507Y-63135000D01*
X137893493Y-63135000D01*
X137970770Y-63150372D01*
X137970770Y-63150372D01*
G37*
G36*
X127350026Y-61131115D02*
X127568412Y-61221573D01*
X127764958Y-61352901D01*
X127932099Y-61520042D01*
X128063427Y-61716588D01*
X128153885Y-61934974D01*
X128200000Y-62166809D01*
X128200000Y-62403191D01*
X128153885Y-62635026D01*
X128063427Y-62853412D01*
X127932099Y-63049958D01*
X127764958Y-63217099D01*
X127568412Y-63348427D01*
X127350026Y-63438885D01*
X127118191Y-63485000D01*
X126881809Y-63485000D01*
X126649974Y-63438885D01*
X126431588Y-63348427D01*
X126235042Y-63217099D01*
X126067901Y-63049958D01*
X125936573Y-62853412D01*
X125846115Y-62635026D01*
X125800000Y-62403191D01*
X125800000Y-62166809D01*
X125846115Y-61934974D01*
X125936573Y-61716588D01*
X126067901Y-61520042D01*
X126235042Y-61352901D01*
X126431588Y-61221573D01*
X126649974Y-61131115D01*
X126881809Y-61085000D01*
X127118191Y-61085000D01*
X127350026Y-61131115D01*
X127350026Y-61131115D01*
G37*
G36*
X133850026Y-61131115D02*
X134068412Y-61221573D01*
X134264958Y-61352901D01*
X134432099Y-61520042D01*
X134563427Y-61716588D01*
X134653885Y-61934974D01*
X134700000Y-62166809D01*
X134700000Y-62403191D01*
X134653885Y-62635026D01*
X134563427Y-62853412D01*
X134432099Y-63049958D01*
X134264958Y-63217099D01*
X134068412Y-63348427D01*
X133850026Y-63438885D01*
X133618191Y-63485000D01*
X133381809Y-63485000D01*
X133149974Y-63438885D01*
X132931588Y-63348427D01*
X132735042Y-63217099D01*
X132567901Y-63049958D01*
X132436573Y-62853412D01*
X132346115Y-62635026D01*
X132300000Y-62403191D01*
X132300000Y-62166809D01*
X132346115Y-61934974D01*
X132436573Y-61716588D01*
X132567901Y-61520042D01*
X132735042Y-61352901D01*
X132931588Y-61221573D01*
X133149974Y-61131115D01*
X133381809Y-61085000D01*
X133618191Y-61085000D01*
X133850026Y-61131115D01*
X133850026Y-61131115D01*
G37*
G36*
X160429122Y-59206115D02*
X160545041Y-59229173D01*
X160872620Y-59364861D01*
X161145488Y-59547186D01*
X161167436Y-59561851D01*
X161418149Y-59812564D01*
X161418151Y-59812567D01*
X161615139Y-60107380D01*
X161673996Y-60249472D01*
X161750827Y-60434960D01*
X161820000Y-60782714D01*
X161820000Y-61137286D01*
X161778775Y-61344535D01*
X161750827Y-61485041D01*
X161615139Y-61812620D01*
X161516663Y-61960000D01*
X161418149Y-62107436D01*
X161167436Y-62358149D01*
X161167433Y-62358151D01*
X160872620Y-62555139D01*
X160545041Y-62690827D01*
X160429122Y-62713885D01*
X160197286Y-62760000D01*
X159842714Y-62760000D01*
X159610878Y-62713885D01*
X159494959Y-62690827D01*
X159167380Y-62555139D01*
X158872567Y-62358151D01*
X158872564Y-62358149D01*
X158621851Y-62107436D01*
X158523337Y-61960000D01*
X158424861Y-61812620D01*
X158289173Y-61485041D01*
X158261225Y-61344535D01*
X158220000Y-61137286D01*
X158220000Y-60782714D01*
X158289173Y-60434960D01*
X158366005Y-60249472D01*
X158424861Y-60107380D01*
X158621849Y-59812567D01*
X158621851Y-59812564D01*
X158872564Y-59561851D01*
X158894512Y-59547186D01*
X159167380Y-59364861D01*
X159494959Y-59229173D01*
X159610878Y-59206115D01*
X159842714Y-59160000D01*
X160197286Y-59160000D01*
X160429122Y-59206115D01*
X160429122Y-59206115D01*
G37*
G36*
X148151030Y-59974469D02*
X148151033Y-59974470D01*
X148151034Y-59974470D01*
X148339535Y-60031651D01*
X148339537Y-60031652D01*
X148513260Y-60124509D01*
X148665528Y-60249472D01*
X148790491Y-60401740D01*
X148790492Y-60401742D01*
X148883349Y-60575465D01*
X148911513Y-60668311D01*
X148940531Y-60763970D01*
X148959838Y-60960000D01*
X148940531Y-61156030D01*
X148940530Y-61156033D01*
X148940530Y-61156034D01*
X148920649Y-61221574D01*
X148883348Y-61344537D01*
X148790491Y-61518260D01*
X148665528Y-61670528D01*
X148513260Y-61795491D01*
X148513258Y-61795492D01*
X148339535Y-61888349D01*
X148151034Y-61945530D01*
X148151033Y-61945530D01*
X148151030Y-61945531D01*
X148004124Y-61960000D01*
X147905876Y-61960000D01*
X147758970Y-61945531D01*
X147758967Y-61945530D01*
X147758966Y-61945530D01*
X147570465Y-61888349D01*
X147396742Y-61795492D01*
X147396740Y-61795491D01*
X147244472Y-61670528D01*
X147119509Y-61518260D01*
X147026652Y-61344537D01*
X146989352Y-61221574D01*
X146969470Y-61156034D01*
X146969470Y-61156033D01*
X146969469Y-61156030D01*
X146950162Y-60960000D01*
X146969469Y-60763970D01*
X146998487Y-60668311D01*
X147026651Y-60575465D01*
X147119508Y-60401742D01*
X147119509Y-60401740D01*
X147244472Y-60249472D01*
X147396740Y-60124509D01*
X147570463Y-60031652D01*
X147570465Y-60031651D01*
X147758966Y-59974470D01*
X147758967Y-59974470D01*
X147758970Y-59974469D01*
X147905876Y-59960000D01*
X148004124Y-59960000D01*
X148151030Y-59974469D01*
X148151030Y-59974469D01*
G37*
G36*
X137970770Y-59975372D02*
X138086689Y-59998429D01*
X138268678Y-60073811D01*
X138432463Y-60183249D01*
X138571751Y-60322537D01*
X138681189Y-60486322D01*
X138756571Y-60668311D01*
X138795000Y-60861509D01*
X138795000Y-61058491D01*
X138756571Y-61251689D01*
X138681189Y-61433678D01*
X138571751Y-61597463D01*
X138432463Y-61736751D01*
X138268678Y-61846189D01*
X138086689Y-61921571D01*
X137970770Y-61944628D01*
X137893493Y-61960000D01*
X137696507Y-61960000D01*
X137619230Y-61944628D01*
X137503311Y-61921571D01*
X137321322Y-61846189D01*
X137157537Y-61736751D01*
X137018249Y-61597463D01*
X136908811Y-61433678D01*
X136833429Y-61251689D01*
X136795000Y-61058491D01*
X136795000Y-60861509D01*
X136833429Y-60668311D01*
X136908811Y-60486322D01*
X137018249Y-60322537D01*
X137157537Y-60183249D01*
X137321322Y-60073811D01*
X137503311Y-59998429D01*
X137619230Y-59975372D01*
X137696507Y-59960000D01*
X137893493Y-59960000D01*
X137970770Y-59975372D01*
X137970770Y-59975372D01*
G37*
G36*
X200390000Y-61198000D02*
X198390000Y-61198000D01*
X198390000Y-59198000D01*
X200390000Y-59198000D01*
X200390000Y-61198000D01*
X200390000Y-61198000D01*
G37*
G36*
X184776947Y-58295722D02*
X185040833Y-58405027D01*
X185278324Y-58563713D01*
X185480287Y-58765676D01*
X185638973Y-59003167D01*
X185748278Y-59267053D01*
X185804000Y-59547186D01*
X185804000Y-59832814D01*
X185748278Y-60112947D01*
X185638973Y-60376833D01*
X185480287Y-60614324D01*
X185278324Y-60816287D01*
X185040833Y-60974973D01*
X184776947Y-61084278D01*
X184496814Y-61140000D01*
X184211186Y-61140000D01*
X183931053Y-61084278D01*
X183667167Y-60974973D01*
X183429676Y-60816287D01*
X183227713Y-60614324D01*
X183069027Y-60376833D01*
X182959722Y-60112947D01*
X182904000Y-59832814D01*
X182904000Y-59547186D01*
X182959722Y-59267053D01*
X183069027Y-59003167D01*
X183227713Y-58765676D01*
X183429676Y-58563713D01*
X183667167Y-58405027D01*
X183931053Y-58295722D01*
X184211186Y-58240000D01*
X184496814Y-58240000D01*
X184776947Y-58295722D01*
X184776947Y-58295722D01*
G37*
G36*
X189526947Y-58295722D02*
X189790833Y-58405027D01*
X190028324Y-58563713D01*
X190230287Y-58765676D01*
X190388973Y-59003167D01*
X190498278Y-59267053D01*
X190554000Y-59547186D01*
X190554000Y-59832814D01*
X190498278Y-60112947D01*
X190388973Y-60376833D01*
X190230287Y-60614324D01*
X190028324Y-60816287D01*
X189790833Y-60974973D01*
X189526947Y-61084278D01*
X189246814Y-61140000D01*
X188961186Y-61140000D01*
X188681053Y-61084278D01*
X188417167Y-60974973D01*
X188179676Y-60816287D01*
X187977713Y-60614324D01*
X187819027Y-60376833D01*
X187709722Y-60112947D01*
X187654000Y-59832814D01*
X187654000Y-59547186D01*
X187709722Y-59267053D01*
X187819027Y-59003167D01*
X187977713Y-58765676D01*
X188179676Y-58563713D01*
X188417167Y-58405027D01*
X188681053Y-58295722D01*
X188961186Y-58240000D01*
X189246814Y-58240000D01*
X189526947Y-58295722D01*
X189526947Y-58295722D01*
G37*
G36*
X194226947Y-58295722D02*
X194490833Y-58405027D01*
X194728324Y-58563713D01*
X194930287Y-58765676D01*
X195088973Y-59003167D01*
X195198278Y-59267053D01*
X195254000Y-59547186D01*
X195254000Y-59832814D01*
X195198278Y-60112947D01*
X195088973Y-60376833D01*
X194930287Y-60614324D01*
X194728324Y-60816287D01*
X194490833Y-60974973D01*
X194226947Y-61084278D01*
X193946814Y-61140000D01*
X193661186Y-61140000D01*
X193381053Y-61084278D01*
X193117167Y-60974973D01*
X192879676Y-60816287D01*
X192677713Y-60614324D01*
X192519027Y-60376833D01*
X192409722Y-60112947D01*
X192354000Y-59832814D01*
X192354000Y-59547186D01*
X192409722Y-59267053D01*
X192519027Y-59003167D01*
X192677713Y-58765676D01*
X192879676Y-58563713D01*
X193117167Y-58405027D01*
X193381053Y-58295722D01*
X193661186Y-58240000D01*
X193946814Y-58240000D01*
X194226947Y-58295722D01*
X194226947Y-58295722D01*
G37*
G36*
X127350026Y-56631115D02*
X127568412Y-56721573D01*
X127764958Y-56852901D01*
X127932099Y-57020042D01*
X128063427Y-57216588D01*
X128153885Y-57434974D01*
X128200000Y-57666809D01*
X128200000Y-57903191D01*
X128153885Y-58135026D01*
X128063427Y-58353412D01*
X127932099Y-58549958D01*
X127764958Y-58717099D01*
X127568412Y-58848427D01*
X127350026Y-58938885D01*
X127118191Y-58985000D01*
X126881809Y-58985000D01*
X126649974Y-58938885D01*
X126431588Y-58848427D01*
X126235042Y-58717099D01*
X126067901Y-58549958D01*
X125936573Y-58353412D01*
X125846115Y-58135026D01*
X125800000Y-57903191D01*
X125800000Y-57666809D01*
X125846115Y-57434974D01*
X125936573Y-57216588D01*
X126067901Y-57020042D01*
X126235042Y-56852901D01*
X126431588Y-56721573D01*
X126649974Y-56631115D01*
X126881809Y-56585000D01*
X127118191Y-56585000D01*
X127350026Y-56631115D01*
X127350026Y-56631115D01*
G37*
G36*
X133850026Y-56631115D02*
X134068412Y-56721573D01*
X134264958Y-56852901D01*
X134432099Y-57020042D01*
X134563427Y-57216588D01*
X134653885Y-57434974D01*
X134700000Y-57666809D01*
X134700000Y-57903191D01*
X134653885Y-58135026D01*
X134563427Y-58353412D01*
X134432099Y-58549958D01*
X134264958Y-58717099D01*
X134068412Y-58848427D01*
X133850026Y-58938885D01*
X133618191Y-58985000D01*
X133381809Y-58985000D01*
X133149974Y-58938885D01*
X132931588Y-58848427D01*
X132735042Y-58717099D01*
X132567901Y-58549958D01*
X132436573Y-58353412D01*
X132346115Y-58135026D01*
X132300000Y-57903191D01*
X132300000Y-57666809D01*
X132346115Y-57434974D01*
X132436573Y-57216588D01*
X132567901Y-57020042D01*
X132735042Y-56852901D01*
X132931588Y-56721573D01*
X133149974Y-56631115D01*
X133381809Y-56585000D01*
X133618191Y-56585000D01*
X133850026Y-56631115D01*
X133850026Y-56631115D01*
G37*
G36*
X122875857Y-56727272D02*
X123076042Y-56810191D01*
X123076045Y-56810193D01*
X123242258Y-56921253D01*
X123256213Y-56930578D01*
X123409422Y-57083787D01*
X123409424Y-57083790D01*
X123409425Y-57083791D01*
X123498157Y-57216587D01*
X123529809Y-57263958D01*
X123612728Y-57464143D01*
X123655000Y-57676658D01*
X123655000Y-57893342D01*
X123612728Y-58105857D01*
X123529809Y-58306042D01*
X123529807Y-58306045D01*
X123417084Y-58474747D01*
X123409422Y-58486213D01*
X123256213Y-58639422D01*
X123256210Y-58639424D01*
X123256209Y-58639425D01*
X123145574Y-58713349D01*
X123076042Y-58759809D01*
X122875857Y-58842728D01*
X122663342Y-58885000D01*
X122446658Y-58885000D01*
X122234143Y-58842728D01*
X122033958Y-58759809D01*
X121964426Y-58713349D01*
X121853791Y-58639425D01*
X121853790Y-58639424D01*
X121853787Y-58639422D01*
X121700578Y-58486213D01*
X121692917Y-58474747D01*
X121580193Y-58306045D01*
X121580191Y-58306042D01*
X121497272Y-58105857D01*
X121455000Y-57893342D01*
X121455000Y-57676658D01*
X121497272Y-57464143D01*
X121580191Y-57263958D01*
X121611843Y-57216587D01*
X121700575Y-57083791D01*
X121700576Y-57083790D01*
X121700578Y-57083787D01*
X121853787Y-56930578D01*
X121867743Y-56921253D01*
X122033955Y-56810193D01*
X122033958Y-56810191D01*
X122234143Y-56727272D01*
X122446658Y-56685000D01*
X122663342Y-56685000D01*
X122875857Y-56727272D01*
X122875857Y-56727272D01*
G37*
G36*
X121115000Y-58885000D02*
X118915000Y-58885000D01*
X118915000Y-56685000D01*
X121115000Y-56685000D01*
X121115000Y-58885000D01*
X121115000Y-58885000D01*
G37*
G36*
X168471030Y-56799469D02*
X168471033Y-56799470D01*
X168471034Y-56799470D01*
X168659535Y-56856651D01*
X168659537Y-56856652D01*
X168833260Y-56949509D01*
X168985528Y-57074472D01*
X169110491Y-57226740D01*
X169110492Y-57226742D01*
X169203349Y-57400465D01*
X169244019Y-57534537D01*
X169260531Y-57588970D01*
X169279838Y-57785000D01*
X169260531Y-57981030D01*
X169260530Y-57981033D01*
X169260530Y-57981034D01*
X169209275Y-58150000D01*
X169203348Y-58169537D01*
X169110491Y-58343260D01*
X168985528Y-58495528D01*
X168833260Y-58620491D01*
X168688251Y-58698000D01*
X168659535Y-58713349D01*
X168471034Y-58770530D01*
X168471033Y-58770530D01*
X168471030Y-58770531D01*
X168324124Y-58785000D01*
X168225876Y-58785000D01*
X168078970Y-58770531D01*
X168078967Y-58770530D01*
X168078966Y-58770530D01*
X167890465Y-58713349D01*
X167861749Y-58698000D01*
X167716740Y-58620491D01*
X167564472Y-58495528D01*
X167439509Y-58343260D01*
X167346652Y-58169537D01*
X167340726Y-58150000D01*
X167289470Y-57981034D01*
X167289470Y-57981033D01*
X167289469Y-57981030D01*
X167270162Y-57785000D01*
X167289469Y-57588970D01*
X167305981Y-57534537D01*
X167346651Y-57400465D01*
X167439508Y-57226742D01*
X167439509Y-57226740D01*
X167564472Y-57074472D01*
X167716740Y-56949509D01*
X167890463Y-56856652D01*
X167890465Y-56856651D01*
X168078966Y-56799470D01*
X168078967Y-56799470D01*
X168078970Y-56799469D01*
X168225876Y-56785000D01*
X168324124Y-56785000D01*
X168471030Y-56799469D01*
X168471030Y-56799469D01*
G37*
G36*
X199565770Y-56713372D02*
X199681689Y-56736429D01*
X199863678Y-56811811D01*
X200027463Y-56921249D01*
X200166751Y-57060537D01*
X200276189Y-57224322D01*
X200351571Y-57406311D01*
X200390000Y-57599509D01*
X200390000Y-57796491D01*
X200351571Y-57989689D01*
X200276189Y-58171678D01*
X200166751Y-58335463D01*
X200027463Y-58474751D01*
X199863678Y-58584189D01*
X199681689Y-58659571D01*
X199565770Y-58682628D01*
X199488493Y-58698000D01*
X199291507Y-58698000D01*
X199214230Y-58682628D01*
X199098311Y-58659571D01*
X198916322Y-58584189D01*
X198752537Y-58474751D01*
X198613249Y-58335463D01*
X198503811Y-58171678D01*
X198428429Y-57989689D01*
X198390000Y-57796491D01*
X198390000Y-57599509D01*
X198428429Y-57406311D01*
X198503811Y-57224322D01*
X198613249Y-57060537D01*
X198752537Y-56921249D01*
X198916322Y-56811811D01*
X199098311Y-56736429D01*
X199214230Y-56713372D01*
X199291507Y-56698000D01*
X199488493Y-56698000D01*
X199565770Y-56713372D01*
X199565770Y-56713372D01*
G37*
G36*
X137970770Y-56165372D02*
X138086689Y-56188429D01*
X138268678Y-56263811D01*
X138432463Y-56373249D01*
X138571751Y-56512537D01*
X138681189Y-56676322D01*
X138756571Y-56858311D01*
X138779628Y-56974230D01*
X138795000Y-57051507D01*
X138795000Y-57248493D01*
X138779628Y-57325770D01*
X138756571Y-57441689D01*
X138681189Y-57623678D01*
X138571751Y-57787463D01*
X138432463Y-57926751D01*
X138268678Y-58036189D01*
X138086689Y-58111571D01*
X137970770Y-58134628D01*
X137893493Y-58150000D01*
X137696507Y-58150000D01*
X137619230Y-58134628D01*
X137503311Y-58111571D01*
X137321322Y-58036189D01*
X137157537Y-57926751D01*
X137018249Y-57787463D01*
X136908811Y-57623678D01*
X136833429Y-57441689D01*
X136810372Y-57325770D01*
X136795000Y-57248493D01*
X136795000Y-57051507D01*
X136810372Y-56974230D01*
X136833429Y-56858311D01*
X136908811Y-56676322D01*
X137018249Y-56512537D01*
X137157537Y-56373249D01*
X137321322Y-56263811D01*
X137503311Y-56188429D01*
X137619230Y-56165372D01*
X137696507Y-56150000D01*
X137893493Y-56150000D01*
X137970770Y-56165372D01*
X137970770Y-56165372D01*
G37*
G36*
X148151030Y-56164469D02*
X148151033Y-56164470D01*
X148151034Y-56164470D01*
X148339535Y-56221651D01*
X148339537Y-56221652D01*
X148513260Y-56314509D01*
X148665528Y-56439472D01*
X148790491Y-56591740D01*
X148790492Y-56591742D01*
X148883349Y-56765465D01*
X148939178Y-56949509D01*
X148940531Y-56953970D01*
X148959838Y-57150000D01*
X148940531Y-57346030D01*
X148940530Y-57346033D01*
X148940530Y-57346034D01*
X148913551Y-57434973D01*
X148883348Y-57534537D01*
X148790491Y-57708260D01*
X148665528Y-57860528D01*
X148513260Y-57985491D01*
X148513258Y-57985492D01*
X148339535Y-58078349D01*
X148151034Y-58135530D01*
X148151033Y-58135530D01*
X148151030Y-58135531D01*
X148004124Y-58150000D01*
X147905876Y-58150000D01*
X147758970Y-58135531D01*
X147758967Y-58135530D01*
X147758966Y-58135530D01*
X147570465Y-58078349D01*
X147396742Y-57985492D01*
X147396740Y-57985491D01*
X147244472Y-57860528D01*
X147119509Y-57708260D01*
X147026652Y-57534537D01*
X146996450Y-57434973D01*
X146969470Y-57346034D01*
X146969470Y-57346033D01*
X146969469Y-57346030D01*
X146950162Y-57150000D01*
X146969469Y-56953970D01*
X146970822Y-56949509D01*
X147026651Y-56765465D01*
X147119508Y-56591742D01*
X147119509Y-56591740D01*
X147244472Y-56439472D01*
X147396740Y-56314509D01*
X147570463Y-56221652D01*
X147570465Y-56221651D01*
X147758966Y-56164470D01*
X147758967Y-56164470D01*
X147758970Y-56164469D01*
X147905876Y-56150000D01*
X148004124Y-56150000D01*
X148151030Y-56164469D01*
X148151030Y-56164469D01*
G37*
M02*
