G04 #@! TF.GenerationSoftware,KiCad,Pcbnew,(5.0.2)-1*
G04 #@! TF.CreationDate,2020-09-24T18:59:20-07:00*
G04 #@! TF.ProjectId,mouse_v2,6d6f7573-655f-4763-922e-6b696361645f,rev?*
G04 #@! TF.SameCoordinates,Original*
G04 #@! TF.FileFunction,Paste,Bot*
G04 #@! TF.FilePolarity,Positive*
%FSLAX46Y46*%
G04 Gerber Fmt 4.6, Leading zero omitted, Abs format (unit mm)*
G04 Created by KiCad (PCBNEW (5.0.2)-1) date 9/24/2020 6:59:20 PM*
%MOMM*%
%LPD*%
G01*
G04 APERTURE LIST*
%ADD10C,0.100000*%
%ADD11C,1.425000*%
G04 APERTURE END LIST*
D10*
G04 #@! TO.C,C10*
G36*
X181169244Y-64843624D02*
X181193513Y-64847224D01*
X181217311Y-64853185D01*
X181240411Y-64861450D01*
X181262589Y-64871940D01*
X181283633Y-64884553D01*
X181303338Y-64899167D01*
X181321517Y-64915643D01*
X181337993Y-64933822D01*
X181352607Y-64953527D01*
X181365220Y-64974571D01*
X181375710Y-64996749D01*
X181383975Y-65019849D01*
X181389936Y-65043647D01*
X181393536Y-65067916D01*
X181394740Y-65092420D01*
X181394740Y-66342420D01*
X181393536Y-66366924D01*
X181389936Y-66391193D01*
X181383975Y-66414991D01*
X181375710Y-66438091D01*
X181365220Y-66460269D01*
X181352607Y-66481313D01*
X181337993Y-66501018D01*
X181321517Y-66519197D01*
X181303338Y-66535673D01*
X181283633Y-66550287D01*
X181262589Y-66562900D01*
X181240411Y-66573390D01*
X181217311Y-66581655D01*
X181193513Y-66587616D01*
X181169244Y-66591216D01*
X181144740Y-66592420D01*
X180219740Y-66592420D01*
X180195236Y-66591216D01*
X180170967Y-66587616D01*
X180147169Y-66581655D01*
X180124069Y-66573390D01*
X180101891Y-66562900D01*
X180080847Y-66550287D01*
X180061142Y-66535673D01*
X180042963Y-66519197D01*
X180026487Y-66501018D01*
X180011873Y-66481313D01*
X179999260Y-66460269D01*
X179988770Y-66438091D01*
X179980505Y-66414991D01*
X179974544Y-66391193D01*
X179970944Y-66366924D01*
X179969740Y-66342420D01*
X179969740Y-65092420D01*
X179970944Y-65067916D01*
X179974544Y-65043647D01*
X179980505Y-65019849D01*
X179988770Y-64996749D01*
X179999260Y-64974571D01*
X180011873Y-64953527D01*
X180026487Y-64933822D01*
X180042963Y-64915643D01*
X180061142Y-64899167D01*
X180080847Y-64884553D01*
X180101891Y-64871940D01*
X180124069Y-64861450D01*
X180147169Y-64853185D01*
X180170967Y-64847224D01*
X180195236Y-64843624D01*
X180219740Y-64842420D01*
X181144740Y-64842420D01*
X181169244Y-64843624D01*
X181169244Y-64843624D01*
G37*
D11*
X180682240Y-65717420D03*
D10*
G36*
X184144244Y-64843624D02*
X184168513Y-64847224D01*
X184192311Y-64853185D01*
X184215411Y-64861450D01*
X184237589Y-64871940D01*
X184258633Y-64884553D01*
X184278338Y-64899167D01*
X184296517Y-64915643D01*
X184312993Y-64933822D01*
X184327607Y-64953527D01*
X184340220Y-64974571D01*
X184350710Y-64996749D01*
X184358975Y-65019849D01*
X184364936Y-65043647D01*
X184368536Y-65067916D01*
X184369740Y-65092420D01*
X184369740Y-66342420D01*
X184368536Y-66366924D01*
X184364936Y-66391193D01*
X184358975Y-66414991D01*
X184350710Y-66438091D01*
X184340220Y-66460269D01*
X184327607Y-66481313D01*
X184312993Y-66501018D01*
X184296517Y-66519197D01*
X184278338Y-66535673D01*
X184258633Y-66550287D01*
X184237589Y-66562900D01*
X184215411Y-66573390D01*
X184192311Y-66581655D01*
X184168513Y-66587616D01*
X184144244Y-66591216D01*
X184119740Y-66592420D01*
X183194740Y-66592420D01*
X183170236Y-66591216D01*
X183145967Y-66587616D01*
X183122169Y-66581655D01*
X183099069Y-66573390D01*
X183076891Y-66562900D01*
X183055847Y-66550287D01*
X183036142Y-66535673D01*
X183017963Y-66519197D01*
X183001487Y-66501018D01*
X182986873Y-66481313D01*
X182974260Y-66460269D01*
X182963770Y-66438091D01*
X182955505Y-66414991D01*
X182949544Y-66391193D01*
X182945944Y-66366924D01*
X182944740Y-66342420D01*
X182944740Y-65092420D01*
X182945944Y-65067916D01*
X182949544Y-65043647D01*
X182955505Y-65019849D01*
X182963770Y-64996749D01*
X182974260Y-64974571D01*
X182986873Y-64953527D01*
X183001487Y-64933822D01*
X183017963Y-64915643D01*
X183036142Y-64899167D01*
X183055847Y-64884553D01*
X183076891Y-64871940D01*
X183099069Y-64861450D01*
X183122169Y-64853185D01*
X183145967Y-64847224D01*
X183170236Y-64843624D01*
X183194740Y-64842420D01*
X184119740Y-64842420D01*
X184144244Y-64843624D01*
X184144244Y-64843624D01*
G37*
D11*
X183657240Y-65717420D03*
G04 #@! TD*
M02*
