M48
;DRILL file {KiCad (5.0.2)-1} date 9/24/2020 7:00:15 PM
;FORMAT={-:-/ absolute / inch / decimal}
FMAT,2
INCH,TZ
T1C0.0157
T2C0.0295
T3C0.0300
T4C0.0315
T5C0.0354
T6C0.0394
T7C0.0433
T8C0.0440
T9C0.0748
T10C0.0860
T11C0.1260
%
G90
G05
T1
X4.775Y-4.15
X4.775Y-4.2
X4.825Y-4.125
X4.825Y-4.175
X4.875Y-4.15
X5.275Y-3.075
X5.275Y-3.125
X5.325Y-3.075
X5.325Y-3.125
X6.05Y-2.8
X6.1Y-2.8
X6.15Y-2.8
X6.2Y-2.8
X6.21Y-5.82
X6.28Y-5.82
X6.34Y-5.82
X6.4Y-5.82
X6.45Y-3.07
X6.575Y-3.15
X6.59Y-2.79
X6.625Y-3.15
X6.675Y-3.15
X6.94Y-5.23
X7.25Y-2.475
X7.3Y-2.45
X7.3Y-2.5
X7.3Y-2.63
X7.35Y-2.43
X7.535Y-2.55
X7.71Y-4.7
X7.72Y-4.75
X7.75Y-4.66
X7.76Y-4.71
X7.8Y-4.67
T2
X7.5Y-4.775
X7.55Y-4.725
X7.6Y-4.775
X7.2211Y-4.7634
X7.2711Y-4.7134
X7.2711Y-4.8134
X5.Y-4.79
X5.05Y-4.84
X5.1Y-4.79
X5.343Y-4.732
X5.343Y-4.832
X5.393Y-4.782
T3
X6.45Y-2.9484
X6.452Y-2.7516
T4
X6.8337Y-2.4563
X6.8411Y-2.3477
X6.9285Y-2.3489
X6.9337Y-2.4524
X7.0084Y-2.4524
X7.0109Y-2.3527
X7.1095Y-2.5877
X4.95Y-4.15
X4.95Y-4.55
X6.6Y-5.3
X6.6Y-5.7
X5.075Y-4.15
X5.075Y-4.55
X6.45Y-5.3
X6.45Y-5.7
X6.Y-5.3
X6.Y-5.7
X5.325Y-4.15
X5.325Y-4.55
X6.6006Y-3.0724
X6.6793Y-3.0724
X6.7581Y-3.0724
X6.8368Y-3.0724
X6.9156Y-3.0724
X6.9943Y-3.0724
X7.4Y-4.15
X7.4Y-4.55
X6.625Y-2.275
X6.625Y-2.675
X5.35Y-5.15
X5.75Y-5.15
X5.85Y-5.15
X6.25Y-5.15
X7.65Y-4.15
X7.65Y-4.55
X5.425Y-2.25
X5.825Y-2.25
X5.425Y-2.4
X5.825Y-2.4
X7.85Y-2.2716
X7.85Y-2.37
X7.525Y-4.15
X7.525Y-4.55
X5.425Y-2.525
X5.825Y-2.525
X6.36Y-5.15
X6.76Y-5.15
X5.614Y-3.067
X5.6927Y-3.067
X5.7715Y-3.067
X5.8502Y-3.067
X5.929Y-3.067
X6.0077Y-3.067
X5.Y-2.675
X5.4Y-2.675
X6.86Y-5.15
X7.26Y-5.15
X7.275Y-4.15
X7.275Y-4.55
X7.41Y-2.6816
X7.41Y-2.78
X5.2Y-4.15
X5.2Y-4.55
X6.15Y-5.3
X6.15Y-5.7
T5
X6.8395Y-5.396
X6.8841Y-5.3065
X7.3778Y-5.05
X7.4778Y-5.05
X4.725Y-2.275
X4.825Y-2.275
X4.725Y-2.525
X4.825Y-2.525
X4.9276Y-5.0443
X5.0276Y-5.0443
X5.7154Y-5.309
X5.76Y-5.3985
X4.725Y-2.775
X4.825Y-2.775
X7.5752Y-5.0506
X7.6752Y-5.0506
X5.1287Y-5.0446
X5.2287Y-5.0446
X5.805Y-5.486
X5.8496Y-5.5755
X6.752Y-5.5735
X6.7966Y-5.484
T6
X7.6588Y-2.5832
X7.6588Y-2.6832
X7.7968Y-2.5812
X7.7968Y-2.6812
T7
X5.66Y-4.4244
X5.66Y-4.5244
X5.66Y-4.6244
X5.66Y-4.7244
X5.66Y-4.8244
X5.66Y-4.9244
X5.66Y-5.0244
X5.76Y-4.4244
X5.76Y-5.0244
X5.86Y-4.4244
X5.86Y-5.0244
X5.96Y-4.4244
X5.96Y-5.0244
X6.06Y-4.4244
X6.06Y-5.0244
X6.16Y-4.4244
X6.16Y-5.0244
X6.26Y-4.4244
X6.26Y-5.0244
X6.36Y-4.4244
X6.36Y-5.0244
X6.46Y-4.4244
X6.46Y-5.0244
X6.56Y-4.4244
X6.56Y-5.0244
X6.66Y-4.4244
X6.66Y-5.0244
X6.76Y-4.4244
X6.76Y-5.0244
X6.86Y-4.4244
X6.86Y-4.9244
X6.86Y-5.0244
X6.96Y-4.4244
X6.96Y-5.0244
X5.Y-2.275
X5.Y-2.4522
X5.2559Y-2.275
X5.2559Y-2.4522
T8
X5.5157Y-2.6218
X5.5157Y-2.9218
X5.6157Y-2.6218
X5.6157Y-2.9218
X5.7157Y-2.6218
X5.7157Y-2.9218
X5.8157Y-2.6218
X5.8157Y-2.9218
X5.9157Y-2.6218
X5.9157Y-2.9218
X6.0157Y-2.6218
X6.0157Y-2.9218
X6.1157Y-2.6218
X6.1157Y-2.9218
X6.2157Y-2.6218
X6.2157Y-2.9218
T9
X7.258Y-2.35
X7.445Y-2.35
X7.6301Y-2.35
T10
X7.4031Y-3.0817
X7.4031Y-3.7903
X5.1919Y-3.0817
X5.1919Y-3.7903
T11
X7.14Y-4.18
X6.3Y-5.55
X6.3Y-2.4
X5.56Y-4.18
T0
M30
