G04 #@! TF.GenerationSoftware,KiCad,Pcbnew,(5.0.2)-1*
G04 #@! TF.CreationDate,2020-09-24T18:59:20-07:00*
G04 #@! TF.ProjectId,mouse_v2,6d6f7573-655f-4763-922e-6b696361645f,rev?*
G04 #@! TF.SameCoordinates,Original*
G04 #@! TF.FileFunction,Legend,Bot*
G04 #@! TF.FilePolarity,Positive*
%FSLAX46Y46*%
G04 Gerber Fmt 4.6, Leading zero omitted, Abs format (unit mm)*
G04 Created by KiCad (PCBNEW (5.0.2)-1) date 9/24/2020 6:59:20 PM*
%MOMM*%
%LPD*%
G01*
G04 APERTURE LIST*
%ADD10C,0.300000*%
%ADD11C,0.200000*%
%ADD12C,0.100000*%
%ADD13C,0.120000*%
%ADD14C,0.150000*%
G04 APERTURE END LIST*
D10*
X150964285Y-103701428D02*
X150964285Y-102630000D01*
X150892857Y-102415714D01*
X150750000Y-102272857D01*
X150535714Y-102201428D01*
X150392857Y-102201428D01*
X151678571Y-102344285D02*
X151750000Y-102272857D01*
X151678571Y-102201428D01*
X151607142Y-102272857D01*
X151678571Y-102344285D01*
X151678571Y-102201428D01*
X154250000Y-102201428D02*
X153535714Y-102201428D01*
X153535714Y-103701428D01*
X154964285Y-102201428D02*
X154821428Y-102272857D01*
X154750000Y-102344285D01*
X154678571Y-102487142D01*
X154678571Y-102915714D01*
X154750000Y-103058571D01*
X154821428Y-103130000D01*
X154964285Y-103201428D01*
X155178571Y-103201428D01*
X155321428Y-103130000D01*
X155392857Y-103058571D01*
X155464285Y-102915714D01*
X155464285Y-102487142D01*
X155392857Y-102344285D01*
X155321428Y-102272857D01*
X155178571Y-102201428D01*
X154964285Y-102201428D01*
X155964285Y-103201428D02*
X156250000Y-102201428D01*
X156535714Y-102915714D01*
X156821428Y-102201428D01*
X157107142Y-103201428D01*
X157750000Y-102272857D02*
X157750000Y-102201428D01*
X157678571Y-102058571D01*
X157607142Y-101987142D01*
X160392857Y-102344285D02*
X160321428Y-102272857D01*
X160107142Y-102201428D01*
X159964285Y-102201428D01*
X159750000Y-102272857D01*
X159607142Y-102415714D01*
X159535714Y-102558571D01*
X159464285Y-102844285D01*
X159464285Y-103058571D01*
X159535714Y-103344285D01*
X159607142Y-103487142D01*
X159750000Y-103630000D01*
X159964285Y-103701428D01*
X160107142Y-103701428D01*
X160321428Y-103630000D01*
X160392857Y-103558571D01*
X161035714Y-102344285D02*
X161107142Y-102272857D01*
X161035714Y-102201428D01*
X160964285Y-102272857D01*
X161035714Y-102344285D01*
X161035714Y-102201428D01*
X162892857Y-102201428D02*
X162892857Y-103701428D01*
X163250000Y-103701428D01*
X163464285Y-103630000D01*
X163607142Y-103487142D01*
X163678571Y-103344285D01*
X163750000Y-103058571D01*
X163750000Y-102844285D01*
X163678571Y-102558571D01*
X163607142Y-102415714D01*
X163464285Y-102272857D01*
X163250000Y-102201428D01*
X162892857Y-102201428D01*
X164392857Y-102201428D02*
X164392857Y-103201428D01*
X164392857Y-103701428D02*
X164321428Y-103630000D01*
X164392857Y-103558571D01*
X164464285Y-103630000D01*
X164392857Y-103701428D01*
X164392857Y-103558571D01*
X165750000Y-102201428D02*
X165750000Y-102987142D01*
X165678571Y-103130000D01*
X165535714Y-103201428D01*
X165250000Y-103201428D01*
X165107142Y-103130000D01*
X165750000Y-102272857D02*
X165607142Y-102201428D01*
X165250000Y-102201428D01*
X165107142Y-102272857D01*
X165035714Y-102415714D01*
X165035714Y-102558571D01*
X165107142Y-102701428D01*
X165250000Y-102772857D01*
X165607142Y-102772857D01*
X165750000Y-102844285D01*
X166321428Y-103201428D02*
X167107142Y-103201428D01*
X166321428Y-102201428D01*
X167107142Y-102201428D01*
X151321428Y-99651428D02*
X151321428Y-101151428D01*
X152178571Y-99651428D02*
X151535714Y-100508571D01*
X152178571Y-101151428D02*
X151321428Y-100294285D01*
X152821428Y-99651428D02*
X152821428Y-100651428D01*
X152821428Y-101151428D02*
X152750000Y-101080000D01*
X152821428Y-101008571D01*
X152892857Y-101080000D01*
X152821428Y-101151428D01*
X152821428Y-101008571D01*
X153321428Y-100651428D02*
X153892857Y-100651428D01*
X153535714Y-101151428D02*
X153535714Y-99865714D01*
X153607142Y-99722857D01*
X153750000Y-99651428D01*
X153892857Y-99651428D01*
X154392857Y-100222857D02*
X155535714Y-100222857D01*
X156250000Y-99651428D02*
X156250000Y-101151428D01*
X156750000Y-100080000D01*
X157250000Y-101151428D01*
X157250000Y-99651428D01*
X158178571Y-99651428D02*
X158035714Y-99722857D01*
X157964285Y-99794285D01*
X157892857Y-99937142D01*
X157892857Y-100365714D01*
X157964285Y-100508571D01*
X158035714Y-100580000D01*
X158178571Y-100651428D01*
X158392857Y-100651428D01*
X158535714Y-100580000D01*
X158607142Y-100508571D01*
X158678571Y-100365714D01*
X158678571Y-99937142D01*
X158607142Y-99794285D01*
X158535714Y-99722857D01*
X158392857Y-99651428D01*
X158178571Y-99651428D01*
X159964285Y-100651428D02*
X159964285Y-99651428D01*
X159321428Y-100651428D02*
X159321428Y-99865714D01*
X159392857Y-99722857D01*
X159535714Y-99651428D01*
X159750000Y-99651428D01*
X159892857Y-99722857D01*
X159964285Y-99794285D01*
X160607142Y-99722857D02*
X160750000Y-99651428D01*
X161035714Y-99651428D01*
X161178571Y-99722857D01*
X161250000Y-99865714D01*
X161250000Y-99937142D01*
X161178571Y-100080000D01*
X161035714Y-100151428D01*
X160821428Y-100151428D01*
X160678571Y-100222857D01*
X160607142Y-100365714D01*
X160607142Y-100437142D01*
X160678571Y-100580000D01*
X160821428Y-100651428D01*
X161035714Y-100651428D01*
X161178571Y-100580000D01*
X162464285Y-99722857D02*
X162321428Y-99651428D01*
X162035714Y-99651428D01*
X161892857Y-99722857D01*
X161821428Y-99865714D01*
X161821428Y-100437142D01*
X161892857Y-100580000D01*
X162035714Y-100651428D01*
X162321428Y-100651428D01*
X162464285Y-100580000D01*
X162535714Y-100437142D01*
X162535714Y-100294285D01*
X161821428Y-100151428D01*
X164178571Y-100651428D02*
X164535714Y-99651428D01*
X164892857Y-100651428D01*
X165750000Y-101151428D02*
X165892857Y-101151428D01*
X166035714Y-101080000D01*
X166107142Y-101008571D01*
X166178571Y-100865714D01*
X166250000Y-100580000D01*
X166250000Y-100222857D01*
X166178571Y-99937142D01*
X166107142Y-99794285D01*
X166035714Y-99722857D01*
X165892857Y-99651428D01*
X165750000Y-99651428D01*
X165607142Y-99722857D01*
X165535714Y-99794285D01*
X165464285Y-99937142D01*
X165392857Y-100222857D01*
X165392857Y-100580000D01*
X165464285Y-100865714D01*
X165535714Y-101008571D01*
X165607142Y-101080000D01*
X165750000Y-101151428D01*
X156178571Y-98458571D02*
X156250000Y-98530000D01*
X156392857Y-98601428D01*
X156750000Y-98601428D01*
X156892857Y-98530000D01*
X156964285Y-98458571D01*
X157035714Y-98315714D01*
X157035714Y-98172857D01*
X156964285Y-97958571D01*
X156107142Y-97101428D01*
X157035714Y-97101428D01*
X157964285Y-98601428D02*
X158107142Y-98601428D01*
X158250000Y-98530000D01*
X158321428Y-98458571D01*
X158392857Y-98315714D01*
X158464285Y-98030000D01*
X158464285Y-97672857D01*
X158392857Y-97387142D01*
X158321428Y-97244285D01*
X158250000Y-97172857D01*
X158107142Y-97101428D01*
X157964285Y-97101428D01*
X157821428Y-97172857D01*
X157750000Y-97244285D01*
X157678571Y-97387142D01*
X157607142Y-97672857D01*
X157607142Y-98030000D01*
X157678571Y-98315714D01*
X157750000Y-98458571D01*
X157821428Y-98530000D01*
X157964285Y-98601428D01*
X159035714Y-98458571D02*
X159107142Y-98530000D01*
X159250000Y-98601428D01*
X159607142Y-98601428D01*
X159750000Y-98530000D01*
X159821428Y-98458571D01*
X159892857Y-98315714D01*
X159892857Y-98172857D01*
X159821428Y-97958571D01*
X158964285Y-97101428D01*
X159892857Y-97101428D01*
X160821428Y-98601428D02*
X160964285Y-98601428D01*
X161107142Y-98530000D01*
X161178571Y-98458571D01*
X161250000Y-98315714D01*
X161321428Y-98030000D01*
X161321428Y-97672857D01*
X161250000Y-97387142D01*
X161178571Y-97244285D01*
X161107142Y-97172857D01*
X160964285Y-97101428D01*
X160821428Y-97101428D01*
X160678571Y-97172857D01*
X160607142Y-97244285D01*
X160535714Y-97387142D01*
X160464285Y-97672857D01*
X160464285Y-98030000D01*
X160535714Y-98315714D01*
X160607142Y-98458571D01*
X160678571Y-98530000D01*
X160821428Y-98601428D01*
D11*
X149225000Y-104140000D02*
X149225000Y-96520000D01*
X168910000Y-104140000D02*
X149209760Y-104140000D01*
X168910000Y-96674940D02*
X168910000Y-104140000D01*
X149225000Y-96520000D02*
X168945560Y-96507300D01*
D12*
X180974952Y-68254571D02*
X180213047Y-68254571D01*
X180594000Y-67873619D02*
X180594000Y-68635523D01*
X184193132Y-68254571D02*
X183431227Y-68254571D01*
D13*
G04 #@! TO.C,C10*
X181567676Y-64807420D02*
X182771804Y-64807420D01*
X181567676Y-66627420D02*
X182771804Y-66627420D01*
D14*
X182760857Y-69699142D02*
X182808476Y-69746761D01*
X182951333Y-69794380D01*
X183046571Y-69794380D01*
X183189428Y-69746761D01*
X183284666Y-69651523D01*
X183332285Y-69556285D01*
X183379904Y-69365809D01*
X183379904Y-69222952D01*
X183332285Y-69032476D01*
X183284666Y-68937238D01*
X183189428Y-68842000D01*
X183046571Y-68794380D01*
X182951333Y-68794380D01*
X182808476Y-68842000D01*
X182760857Y-68889619D01*
X181808476Y-69794380D02*
X182379904Y-69794380D01*
X182094190Y-69794380D02*
X182094190Y-68794380D01*
X182189428Y-68937238D01*
X182284666Y-69032476D01*
X182379904Y-69080095D01*
X181189428Y-68794380D02*
X181094190Y-68794380D01*
X180998952Y-68842000D01*
X180951333Y-68889619D01*
X180903714Y-68984857D01*
X180856095Y-69175333D01*
X180856095Y-69413428D01*
X180903714Y-69603904D01*
X180951333Y-69699142D01*
X180998952Y-69746761D01*
X181094190Y-69794380D01*
X181189428Y-69794380D01*
X181284666Y-69746761D01*
X181332285Y-69699142D01*
X181379904Y-69603904D01*
X181427523Y-69413428D01*
X181427523Y-69175333D01*
X181379904Y-68984857D01*
X181332285Y-68889619D01*
X181284666Y-68842000D01*
X181189428Y-68794380D01*
G04 #@! TD*
M02*
